<?xml version="1.0" encoding="UTF-8" standalone="no"?>
<svg
   xmlns:dc="http://purl.org/dc/elements/1.1/"
   xmlns:cc="http://creativecommons.org/ns#"
   xmlns:rdf="http://www.w3.org/1999/02/22-rdf-syntax-ns#"
   xmlns:svg="http://www.w3.org/2000/svg"
   xmlns="http://www.w3.org/2000/svg"
   viewBox="0 0 816 1056"
   height="1056"
   width="816"
   xml:space="preserve"
   id="svg2"
   version="1.1"><metadata
     id="metadata8"><rdf:RDF><cc:Work
         rdf:about=""><dc:format>image/svg+xml</dc:format><dc:type
           rdf:resource="http://purl.org/dc/dcmitype/StillImage" /></cc:Work></rdf:RDF></metadata><defs
     id="defs6"><clipPath
       id="clipPath18"
       clipPathUnits="userSpaceOnUse"><path
         id="path16"
         d="M 0,792 H 612 V 0 H 0 Z" /></clipPath><clipPath
       id="clipPath454"
       clipPathUnits="userSpaceOnUse"><path
         id="path452"
         d="M 0,792 H 612 V 0 H 0 Z" /></clipPath></defs><g
     transform="matrix(1.3333333,0,0,-1.3333333,0,1056)"
     id="g10"><g
       id="g12"><g
         clip-path="url(#clipPath18)"
         id="g14"><g
           transform="translate(489.5508,610.709)"
           id="g20"><path
             id="path22"
             style="fill:#d22129;fill-opacity:1;fill-rule:nonzero;stroke:none"
             d="m 0,0 c 0,0 -16.637,17.346 -18.448,24.218 -1.812,6.873 -1.431,9.819 2.306,10.146 3.737,0.327 8.453,-0.327 12.64,0 C 0.686,34.691 8.896,35.346 9.7,33.055 10.504,30.764 15.611,6.873 15.611,6.873 Z" /></g><g
           transform="translate(489.5508,610.709)"
           id="g24"><path
             id="path26"
             style="fill:none;stroke:#7c0512;stroke-width:2;stroke-linecap:butt;stroke-linejoin:miter;stroke-miterlimit:10;stroke-dasharray:none;stroke-opacity:1"
             d="m 0,0 c 0,0 -16.637,17.346 -18.448,24.218 -1.812,6.873 -1.431,9.819 2.306,10.146 3.737,0.327 8.453,-0.327 12.64,0 C 0.686,34.691 8.896,35.346 9.7,33.055 10.504,30.764 15.611,6.873 15.611,6.873 Z" /></g><g
           transform="translate(495.7998,610.709)"
           id="g28"><path
             id="path30"
             style="fill:#bc1c23;fill-opacity:1;fill-rule:nonzero;stroke:none"
             d="M 0,0 C 0,0 -2.291,26.509 0,30.764 2.291,35.018 5.961,36.655 9.362,36 12.764,35.346 20.945,34.691 24.219,32.073 27.491,29.455 32.4,27.164 32.073,24.218 31.746,21.273 26.51,10.146 26.51,10.146 Z" /></g><g
           transform="translate(495.7998,610.709)"
           id="g32"><path
             id="path34"
             style="fill:none;stroke:#7c0512;stroke-width:2;stroke-linecap:butt;stroke-linejoin:miter;stroke-miterlimit:10;stroke-dasharray:none;stroke-opacity:1"
             d="M 0,0 C 0,0 -2.291,26.509 0,30.764 2.291,35.018 5.961,36.655 9.362,36 12.764,35.346 20.945,34.691 24.219,32.073 27.491,29.455 32.4,27.164 32.073,24.218 31.746,21.273 26.51,10.146 26.51,10.146 Z" /></g><g
           transform="translate(522.6367,623.7998)"
           id="g36"><path
             id="path38"
             style="fill:#b91c22;fill-opacity:1;fill-rule:nonzero;stroke:none"
             d="m 0,0 c 0,0 0,9.164 4.254,9.164 4.255,0 11.61,-0.126 14.642,-4.318 3.031,-4.191 8.594,-9.1 7.94,-14.664 -0.654,-5.564 -4.582,-16.767 -4.582,-16.767 l -24.218,-3.851 z" /></g><g
           transform="translate(522.6367,623.7998)"
           id="g40"><path
             id="path42"
             style="fill:none;stroke:#7c0512;stroke-width:2;stroke-linecap:butt;stroke-linejoin:miter;stroke-miterlimit:10;stroke-dasharray:none;stroke-opacity:1"
             d="m 0,0 c 0,0 0,9.164 4.254,9.164 4.255,0 11.61,-0.126 14.642,-4.318 3.031,-4.191 8.594,-9.1 7.94,-14.664 -0.654,-5.564 -4.582,-16.767 -4.582,-16.767 l -24.218,-3.851 z" /></g><g
           transform="translate(521,591.7271)"
           id="g44"><path
             id="path46"
             style="fill:#a3151b;fill-opacity:1;fill-rule:nonzero;stroke:none"
             d="m 0,0 20.532,13.418 c 0,0 7.614,6.546 10.559,4.582 2.945,-1.963 5.89,-6.043 8.181,-12.512 2.291,-6.469 3.928,-16.288 1.964,-16.942 -1.964,-0.655 -15.382,0 -15.382,0 L 0,-6.044 Z" /></g><g
           transform="translate(521,591.7271)"
           id="g48"><path
             id="path50"
             style="fill:none;stroke:#7c0512;stroke-width:2;stroke-linecap:butt;stroke-linejoin:miter;stroke-miterlimit:10;stroke-dasharray:none;stroke-opacity:1"
             d="m 0,0 20.532,13.418 c 0,0 7.614,6.546 10.559,4.582 2.945,-1.963 5.89,-6.043 8.181,-12.512 2.291,-6.469 3.928,-16.288 1.964,-16.942 -1.964,-0.655 -15.382,0 -15.382,0 L 0,-6.044 Z" /></g><g
           transform="translate(466.8848,347.5195)"
           id="g52"><path
             id="path54"
             style="fill:#e61d25;fill-opacity:1;fill-rule:nonzero;stroke:none"
             d="m 0,0 c 0,0 -10.591,-13.098 -13.951,-30.864 -3.361,-17.767 -6.176,-32.936 -6.776,-36.841 -0.599,-3.906 -7.212,-9.309 -5.495,-13.311 1.717,-4.002 2.843,-8.416 2.843,-8.416 0,0 2.54,9.939 5.512,12.436 2.971,2.497 4.105,9.874 3.602,12.952 -0.504,3.078 -1.92,7.808 1.732,7.94 3.65,0.134 1.234,5.039 3.124,8.455 1.888,3.415 5.562,1.951 5.024,7.651 -0.538,5.7 0.508,-0.654 2.928,5.021 2.42,5.675 -2.539,12.433 0.621,14.921 3.161,2.49 7.775,8.411 5.523,17.241 C 2.434,6.013 0,0 0,0" /></g><g
           transform="translate(466.8848,347.5195)"
           id="g56"><path
             id="path58"
             style="fill:none;stroke:#7c0512;stroke-width:2;stroke-linecap:butt;stroke-linejoin:miter;stroke-miterlimit:10;stroke-dasharray:none;stroke-opacity:1"
             d="m 0,0 c 0,0 -10.591,-13.098 -13.951,-30.864 -3.361,-17.767 -6.176,-32.936 -6.776,-36.841 -0.599,-3.906 -7.212,-9.309 -5.495,-13.311 1.717,-4.002 2.843,-8.416 2.843,-8.416 0,0 2.54,9.939 5.512,12.436 2.971,2.497 4.105,9.874 3.602,12.952 -0.504,3.078 -1.92,7.808 1.732,7.94 3.65,0.134 1.234,5.039 3.124,8.455 1.888,3.415 5.562,1.951 5.024,7.651 -0.538,5.7 0.508,-0.654 2.928,5.021 2.42,5.675 -2.539,12.433 0.621,14.921 3.161,2.49 7.775,8.411 5.523,17.241 C 2.434,6.013 0,0 0,0 Z" /></g><g
           transform="translate(424.6963,436.4155)"
           id="g60"><path
             id="path62"
             style="fill:#c5242b;fill-opacity:1;fill-rule:nonzero;stroke:none"
             d="m 0,0 c 1.769,12.215 55.271,-39.121 57.232,-46.586 1.961,-7.466 0.617,-12.099 -2.471,-13.3 -3.088,-1.201 -10.311,-1.656 -13.23,0.451 -2.919,2.106 -22.714,24.557 -29.062,30.997 C 6.12,-21.998 -1.564,-10.806 0,0" /></g><g
           transform="translate(424.6963,436.4155)"
           id="g64"><path
             id="path66"
             style="fill:none;stroke:#7c0512;stroke-width:2;stroke-linecap:butt;stroke-linejoin:miter;stroke-miterlimit:10;stroke-dasharray:none;stroke-opacity:1"
             d="m 0,0 c 1.769,12.215 55.271,-39.121 57.232,-46.586 1.961,-7.466 0.617,-12.099 -2.471,-13.3 -3.088,-1.201 -10.311,-1.656 -13.23,0.451 -2.919,2.106 -22.714,24.557 -29.062,30.997 C 6.12,-21.998 -1.564,-10.806 0,0 Z" /></g><g
           transform="translate(472.9912,388.2012)"
           id="g68"><path
             id="path70"
             style="fill:#d22129;fill-opacity:1;fill-rule:nonzero;stroke:none"
             d="m 0,0 c 0,0 -9.634,-6.464 -10.738,-19.572 -1.105,-13.109 -5.411,-21.185 -1.341,-25.936 4.07,-4.751 9.02,-6.558 11.848,-2.201 2.827,4.356 10.316,17.608 10.798,24.178 0.484,6.569 3.938,17.99 0.159,21.538 C 6.946,1.554 0,0 0,0" /></g><g
           transform="translate(472.9912,388.2012)"
           id="g72"><path
             id="path74"
             style="fill:none;stroke:#7c0512;stroke-width:2;stroke-linecap:butt;stroke-linejoin:miter;stroke-miterlimit:10;stroke-dasharray:none;stroke-opacity:1"
             d="m 0,0 c 0,0 -9.634,-6.464 -10.738,-19.572 -1.105,-13.109 -5.411,-21.185 -1.341,-25.936 4.07,-4.751 9.02,-6.558 11.848,-2.201 2.827,4.356 10.316,17.608 10.798,24.178 0.484,6.569 3.938,17.99 0.159,21.538 C 6.946,1.554 0,0 0,0 Z" /></g><g
           transform="translate(432.9961,309.4854)"
           id="g76"><path
             id="path78"
             style="fill:#e61d25;fill-opacity:1;fill-rule:nonzero;stroke:none"
             d="m 0,0 c 0,0 -12.007,-11.813 -17.358,-29.085 -5.352,-17.271 -9.868,-32.023 -10.906,-35.836 -1.038,-3.813 -8.22,-8.432 -6.967,-12.602 1.252,-4.171 1.871,-8.685 1.871,-8.685 0,0 3.65,9.588 6.885,11.731 3.236,2.145 5.198,9.346 5.046,12.461 -0.151,3.116 -1.022,7.975 2.62,7.694 3.643,-0.282 1.797,4.866 4.062,8.045 2.264,3.179 5.748,1.309 5.859,7.034 0.112,5.723 0.43,-0.708 3.478,4.656 3.047,5.364 -1.114,12.641 2.307,14.755 3.423,2.115 8.678,7.477 7.44,16.503 C 3.1,5.698 0,0 0,0" /></g><g
           transform="translate(432.9961,309.4854)"
           id="g80"><path
             id="path82"
             style="fill:none;stroke:#7c0512;stroke-width:2;stroke-linecap:butt;stroke-linejoin:miter;stroke-miterlimit:10;stroke-dasharray:none;stroke-opacity:1"
             d="m 0,0 c 0,0 -12.007,-11.813 -17.358,-29.085 -5.352,-17.271 -9.868,-32.023 -10.906,-35.836 -1.038,-3.813 -8.22,-8.432 -6.967,-12.602 1.252,-4.171 1.871,-8.685 1.871,-8.685 0,0 3.65,9.588 6.885,11.731 3.236,2.145 5.198,9.346 5.046,12.461 -0.151,3.116 -1.022,7.975 2.62,7.694 3.643,-0.282 1.797,4.866 4.062,8.045 2.264,3.179 5.748,1.309 5.859,7.034 0.112,5.723 0.43,-0.708 3.478,4.656 3.047,5.364 -1.114,12.641 2.307,14.755 3.423,2.115 8.678,7.477 7.44,16.503 C 3.1,5.698 0,0 0,0 Z" /></g><g
           transform="translate(407.6895,425.1748)"
           id="g84"><path
             id="path86"
             style="fill:#c5242b;fill-opacity:1;fill-rule:nonzero;stroke:none"
             d="m 0,0 c 6.136,10.709 37.015,-56.702 36.094,-64.366 -0.921,-7.664 -3.875,-11.478 -7.189,-11.459 -3.313,0.017 -10.197,2.251 -12.136,5.283 C 14.828,-67.51 4.675,-39.354 1.139,-31.03 -2.396,-22.707 -5.428,-9.473 0,0" /></g><g
           transform="translate(407.6895,425.1748)"
           id="g88"><path
             id="path90"
             style="fill:none;stroke:#7c0512;stroke-width:2;stroke-linecap:butt;stroke-linejoin:miter;stroke-miterlimit:10;stroke-dasharray:none;stroke-opacity:1"
             d="m 0,0 c 6.136,10.709 37.015,-56.702 36.094,-64.366 -0.921,-7.664 -3.875,-11.478 -7.189,-11.459 -3.313,0.017 -10.197,2.251 -12.136,5.283 C 14.828,-67.51 4.675,-39.354 1.139,-31.03 -2.396,-22.707 -5.428,-9.473 0,0 Z" /></g><g
           transform="translate(429.7471,354.0225)"
           id="g92"><path
             id="path94"
             style="fill:#d22129;fill-opacity:1;fill-rule:nonzero;stroke:none"
             d="m 0,0 c 0,0 -8.27,-8.136 -6.928,-21.222 1.342,-13.086 -1.394,-21.82 3.486,-25.735 4.88,-3.915 10.079,-4.774 12.05,0.03 1.972,4.805 6.877,19.215 6.135,25.76 -0.742,6.545 0.537,18.408 -3.834,21.194 C 6.539,2.813 0,0 0,0" /></g><g
           transform="translate(429.7471,354.0225)"
           id="g96"><path
             id="path98"
             style="fill:none;stroke:#7c0512;stroke-width:2;stroke-linecap:butt;stroke-linejoin:miter;stroke-miterlimit:10;stroke-dasharray:none;stroke-opacity:1"
             d="m 0,0 c 0,0 -8.27,-8.136 -6.928,-21.222 1.342,-13.086 -1.394,-21.82 3.486,-25.735 4.88,-3.915 10.079,-4.774 12.05,0.03 1.972,4.805 6.877,19.215 6.135,25.76 -0.742,6.545 0.537,18.408 -3.834,21.194 C 6.539,2.813 0,0 0,0 Z" /></g><g
           transform="translate(528.8291,408.8843)"
           id="g100"><path
             id="path102"
             style="fill:#e61d25;fill-opacity:1;fill-rule:nonzero;stroke:none"
             d="m 0,0 c 0,0 -10.921,-13.7 -14.324,-32.23 -3.405,-18.53 -6.255,-34.351 -6.86,-38.423 -0.603,-4.073 -7.435,-9.735 -5.636,-13.896 1.798,-4.162 2.985,-8.757 2.985,-8.757 0,0 2.589,10.369 5.658,12.986 3.071,2.616 4.213,10.309 3.677,13.514 -0.536,3.205 -2.025,8.126 1.759,8.283 3.785,0.157 1.258,5.256 3.201,8.824 1.943,3.569 5.759,2.062 5.175,7.998 -0.583,5.938 0.529,-0.678 3.012,5.246 2.484,5.926 -2.688,12.944 0.578,15.552 3.265,2.61 8.022,8.803 5.647,17.992 C 2.497,6.278 0,0 0,0" /></g><g
           transform="translate(528.8291,408.8843)"
           id="g104"><path
             id="path106"
             style="fill:none;stroke:#7c0512;stroke-width:2;stroke-linecap:butt;stroke-linejoin:miter;stroke-miterlimit:10;stroke-dasharray:none;stroke-opacity:1"
             d="m 0,0 c 0,0 -10.921,-13.7 -14.324,-32.23 -3.405,-18.53 -6.255,-34.351 -6.86,-38.423 -0.603,-4.073 -7.435,-9.735 -5.636,-13.896 1.798,-4.162 2.985,-8.757 2.985,-8.757 0,0 2.589,10.369 5.658,12.986 3.071,2.616 4.213,10.309 3.677,13.514 -0.536,3.205 -2.025,8.126 1.759,8.283 3.785,0.157 1.258,5.256 3.201,8.824 1.943,3.569 5.759,2.062 5.175,7.998 -0.583,5.938 0.529,-0.678 3.012,5.246 2.484,5.926 -2.688,12.944 0.578,15.552 3.265,2.61 8.022,8.803 5.647,17.992 C 2.497,6.278 0,0 0,0 Z" /></g><g
           transform="translate(459.9785,482.0073)"
           id="g108"><path
             id="path110"
             style="fill:#c5242b;fill-opacity:1;fill-rule:nonzero;stroke:none"
             d="m 0,0 c -2.185,12.674 67.061,-20.983 71.395,-27.751 4.334,-6.768 4.497,-11.791 1.839,-13.976 -2.658,-2.184 -9.631,-4.959 -13.186,-3.811 C 56.493,-44.389 29.763,-28.51 21.434,-24.17 13.105,-19.831 1.932,-11.211 0,0" /></g><g
           transform="translate(459.9785,482.0073)"
           id="g112"><path
             id="path114"
             style="fill:none;stroke:#7c0512;stroke-width:2;stroke-linecap:butt;stroke-linejoin:miter;stroke-miterlimit:10;stroke-dasharray:none;stroke-opacity:1"
             d="m 0,0 c -2.185,12.674 67.061,-20.983 71.395,-27.751 4.334,-6.768 4.497,-11.791 1.839,-13.976 -2.658,-2.184 -9.631,-4.959 -13.186,-3.811 C 56.493,-44.389 29.763,-28.51 21.434,-24.17 13.105,-19.831 1.932,-11.211 0,0 Z" /></g><g
           transform="translate(523.0859,449.7666)"
           id="g116"><path
             id="path118"
             style="fill:#d22129;fill-opacity:1;fill-rule:nonzero;stroke:none"
             d="m 0,0 c 0,0 -7.418,-9.506 -4.292,-22.852 3.125,-13.346 1.477,-22.735 7.017,-26.134 5.541,-3.398 11.001,-3.597 12.386,1.631 1.386,5.227 4.509,20.77 2.872,27.436 C 16.347,-13.254 16.08,-0.824 11.214,1.476 6.348,3.775 0,0 0,0" /></g><g
           transform="translate(523.0859,449.7666)"
           id="g120"><path
             id="path122"
             style="fill:none;stroke:#7c0512;stroke-width:2;stroke-linecap:butt;stroke-linejoin:miter;stroke-miterlimit:10;stroke-dasharray:none;stroke-opacity:1"
             d="m 0,0 c 0,0 -7.418,-9.506 -4.292,-22.852 3.125,-13.346 1.477,-22.735 7.017,-26.134 5.541,-3.398 11.001,-3.597 12.386,1.631 1.386,5.227 4.509,20.77 2.872,27.436 C 16.347,-13.254 16.08,-0.824 11.214,1.476 6.348,3.775 0,0 0,0 Z" /></g><g
           transform="translate(496.2363,378.127)"
           id="g124"><path
             id="path126"
             style="fill:#e61d25;fill-opacity:1;fill-rule:nonzero;stroke:none"
             d="m 0,0 c 0,0 -10.036,-13.527 -12.654,-31.418 -2.618,-17.891 -4.8,-33.163 -5.237,-37.091 -0.436,-3.928 -6.819,-9.599 -4.936,-13.527 1.882,-3.927 3.19,-8.291 3.19,-8.291 0,0 2.125,10.036 4.991,12.654 2.864,2.618 3.69,10.037 3.059,13.092 -0.631,3.054 -2.243,7.72 1.399,8.005 3.642,0.285 1.024,5.086 2.77,8.576 1.745,3.491 5.478,2.183 4.702,7.854 -0.775,5.673 0.534,-0.631 2.716,5.139 2.182,5.771 -3.055,12.317 0,14.935 3.055,2.618 7.418,8.727 4.8,17.454 C 2.182,6.109 0,0 0,0" /></g><g
           transform="translate(496.2363,378.127)"
           id="g128"><path
             id="path130"
             style="fill:none;stroke:#7c0512;stroke-width:2;stroke-linecap:butt;stroke-linejoin:miter;stroke-miterlimit:10;stroke-dasharray:none;stroke-opacity:1"
             d="m 0,0 c 0,0 -10.036,-13.527 -12.654,-31.418 -2.618,-17.891 -4.8,-33.163 -5.237,-37.091 -0.436,-3.928 -6.819,-9.599 -4.936,-13.527 1.882,-3.927 3.19,-8.291 3.19,-8.291 0,0 2.125,10.036 4.991,12.654 2.864,2.618 3.69,10.037 3.059,13.092 -0.631,3.054 -2.243,7.72 1.399,8.005 3.642,0.285 1.024,5.086 2.77,8.576 1.745,3.491 5.478,2.183 4.702,7.854 -0.775,5.673 0.534,-0.631 2.716,5.139 2.182,5.771 -3.055,12.317 0,14.935 3.055,2.618 7.418,8.727 4.8,17.454 C 2.182,6.109 0,0 0,0 Z" /></g><g
           transform="translate(440.3818,460.1636)"
           id="g132"><path
             id="path134"
             style="fill:#c5242b;fill-opacity:1;fill-rule:nonzero;stroke:none"
             d="m 0,0 c -0.493,12.333 61.488,-28.364 64.78,-35.345 3.292,-6.982 2.817,-11.782 0,-13.528 -2.816,-1.745 -9.835,-3.511 -13.089,-1.974 -3.254,1.538 -26.818,19.994 -34.237,25.166 C 10.036,-20.509 0.437,-10.909 0,0" /></g><g
           transform="translate(440.3818,460.1636)"
           id="g136"><path
             id="path138"
             style="fill:none;stroke:#7c0512;stroke-width:2;stroke-linecap:butt;stroke-linejoin:miter;stroke-miterlimit:10;stroke-dasharray:none;stroke-opacity:1"
             d="m 0,0 c -0.493,12.333 61.488,-28.364 64.78,-35.345 3.292,-6.982 2.817,-11.782 0,-13.528 -2.816,-1.745 -9.835,-3.511 -13.089,-1.974 -3.254,1.538 -26.818,19.994 -34.237,25.166 C 10.036,-20.509 0.437,-10.909 0,0 Z" /></g><g
           transform="translate(321.3828,530.7925)"
           id="g140"><path
             id="path142"
             style="fill:#d22129;fill-opacity:1;fill-rule:nonzero;stroke:none"
             d="m 0,0 c 0,0 -6.615,-2.789 -11.279,-7.785 -4.665,-4.997 -3.419,-8.862 -5.794,-11.535 -2.375,-2.674 -4.316,-6.137 -4.151,-7.738 0.166,-1.6 2.168,-4.696 2.168,-4.696 0,0 0.895,3.417 3.404,3.915 2.509,0.499 4.185,0.233 3.987,1.15 -0.198,0.916 -1.513,3.685 -0.428,3.771 1.085,0.085 1.644,0.458 3.035,10e-4 1.391,-0.457 1.249,1.819 0.988,2.899 -0.261,1.08 -1.477,3.718 0.016,3.072 1.493,-0.645 3.083,-1.327 4.814,-0.828 1.731,0.498 -2.016,3.956 -1.296,4.592 0.721,0.637 1.477,4.582 4.048,3.796 2.569,-0.786 4.592,1.257 3.384,4.758 C 1.688,-1.128 0,0 0,0" /></g><g
           transform="translate(321.3828,530.7925)"
           id="g144"><path
             id="path146"
             style="fill:none;stroke:#7c0512;stroke-width:2;stroke-linecap:butt;stroke-linejoin:miter;stroke-miterlimit:10;stroke-dasharray:none;stroke-opacity:1"
             d="m 0,0 c 0,0 -6.615,-2.789 -11.279,-7.785 -4.665,-4.997 -3.419,-8.862 -5.794,-11.535 -2.375,-2.674 -4.316,-6.137 -4.151,-7.738 0.166,-1.6 2.168,-4.696 2.168,-4.696 0,0 0.895,3.417 3.404,3.915 2.509,0.499 4.185,0.233 3.987,1.15 -0.198,0.916 -1.513,3.685 -0.428,3.771 1.085,0.085 1.644,0.458 3.035,10e-4 1.391,-0.457 1.249,1.819 0.988,2.899 -0.261,1.08 -1.477,3.718 0.016,3.072 1.493,-0.645 3.083,-1.327 4.814,-0.828 1.731,0.498 -2.016,3.956 -1.296,4.592 0.721,0.637 1.477,4.582 4.048,3.796 2.569,-0.786 4.592,1.257 3.384,4.758 C 1.688,-1.128 0,0 0,0 Z" /></g><g
           transform="translate(317.4062,573.1567)"
           id="g148"><path
             id="path150"
             style="fill:#d22129;fill-opacity:1;fill-rule:nonzero;stroke:none"
             d="m 0,0 c 0,0 -8.325,-9.446 -9.115,-19.075 -0.791,-9.63 -0.882,-22.96 3.274,-30.252 4.157,-7.292 8.984,-7.1 8.984,-7.1 0,0 2.29,-1.123 4.003,9.15 1.714,10.274 9.075,26.586 3.937,37.706 C 5.945,1.548 0,0 0,0" /></g><g
           transform="translate(317.4062,573.1567)"
           id="g152"><path
             id="path154"
             style="fill:none;stroke:#7c0512;stroke-width:2;stroke-linecap:butt;stroke-linejoin:miter;stroke-miterlimit:10;stroke-dasharray:none;stroke-opacity:1"
             d="m 0,0 c 0,0 -8.325,-9.446 -9.115,-19.075 -0.791,-9.63 -0.882,-22.96 3.274,-30.252 4.157,-7.292 8.984,-7.1 8.984,-7.1 0,0 2.29,-1.123 4.003,9.15 1.714,10.274 9.075,26.586 3.937,37.706 C 5.945,1.548 0,0 0,0 Z" /></g><g
           transform="translate(387.2979,531.8667)"
           id="g156"><path
             id="path158"
             style="fill:#c5242b;fill-opacity:1;fill-rule:nonzero;stroke:none"
             d="m 0,0 c 0,0 -18.981,20.522 -32.399,27.395 -13.418,6.873 -28.8,17.158 -32.074,17.251 -3.272,0.094 -6.872,0.552 -7.854,-2.459 -0.982,-3.011 -4.581,-6.61 -1.963,-10.538 2.618,-3.927 24.545,-20.945 30.764,-22.582 C -37.309,7.431 -3.605,-5.35 -3.605,-5.35 Z" /></g><g
           transform="translate(387.2979,531.8667)"
           id="g160"><path
             id="path162"
             style="fill:none;stroke:#7c0512;stroke-width:2;stroke-linecap:butt;stroke-linejoin:miter;stroke-miterlimit:10;stroke-dasharray:none;stroke-opacity:1"
             d="m 0,0 c 0,0 -18.981,20.522 -32.399,27.395 -13.418,6.873 -28.8,17.158 -32.074,17.251 -3.272,0.094 -6.872,0.552 -7.854,-2.459 -0.982,-3.011 -4.581,-6.61 -1.963,-10.538 2.618,-3.927 24.545,-20.945 30.764,-22.582 C -37.309,7.431 -3.605,-5.35 -3.605,-5.35 Z" /></g><g
           transform="translate(302.7007,518.4639)"
           id="g164"><path
             id="path166"
             style="fill:#d22129;fill-opacity:1;fill-rule:nonzero;stroke:none"
             d="m 0,0 c 0,0 -8.982,-4.375 -16.103,-11.032 -7.12,-6.657 -6.567,-11.011 -10.227,-14.553 -3.658,-3.542 -6.981,-7.944 -7.19,-9.804 -0.208,-1.861 1.488,-5.182 1.488,-5.182 0,0 2.004,4.176 5.266,5.175 3.262,1 5.286,0.962 5.276,2.011 -0.01,1.048 -0.933,4.097 0.445,4.376 1.377,0.28 2.171,0.811 3.789,0.5 1.618,-0.31 2.031,2.351 1.986,3.581 -0.045,1.23 -0.88,4.14 0.817,3.625 1.698,-0.516 3.505,-1.059 5.795,-0.187 2.291,0.872 -1.49,4.334 -0.426,5.203 1.065,0.869 3.034,5.645 6.039,5.141 3.004,-0.505 6.06,2.236 5.46,6.165 C 1.815,-1.053 0,0 0,0" /></g><g
           transform="translate(302.7007,518.4639)"
           id="g168"><path
             id="path170"
             style="fill:none;stroke:#7c0512;stroke-width:2;stroke-linecap:butt;stroke-linejoin:miter;stroke-miterlimit:10;stroke-dasharray:none;stroke-opacity:1"
             d="m 0,0 c 0,0 -8.982,-4.375 -16.103,-11.032 -7.12,-6.657 -6.567,-11.011 -10.227,-14.553 -3.658,-3.542 -6.981,-7.944 -7.19,-9.804 -0.208,-1.861 1.488,-5.182 1.488,-5.182 0,0 2.004,4.176 5.266,5.175 3.262,1 5.286,0.962 5.276,2.011 -0.01,1.048 -0.933,4.097 0.445,4.376 1.377,0.28 2.171,0.811 3.789,0.5 1.618,-0.31 2.031,2.351 1.986,3.581 -0.045,1.23 -0.88,4.14 0.817,3.625 1.698,-0.516 3.505,-1.059 5.795,-0.187 2.291,0.872 -1.49,4.334 -0.426,5.203 1.065,0.869 3.034,5.645 6.039,5.141 3.004,-0.505 6.06,2.236 5.46,6.165 C 1.815,-1.053 0,0 0,0 Z" /></g><g
           transform="translate(296.6748,563.9551)"
           id="g172"><path
             id="path174"
             style="fill:#d22129;fill-opacity:1;fill-rule:nonzero;stroke:none"
             d="m 0,0 c 0,0 -7.312,-10.249 -7.112,-19.909 0.2,-9.659 1.476,-22.929 6.359,-29.757 4.882,-6.827 9.663,-6.141 9.663,-6.141 0,0 2.394,-0.883 3.045,9.512 0.651,10.395 6.302,27.376 0.051,37.91 C 5.756,2.15 0,0 0,0" /></g><g
           transform="translate(296.6748,563.9551)"
           id="g176"><path
             id="path178"
             style="fill:none;stroke:#7c0512;stroke-width:2;stroke-linecap:butt;stroke-linejoin:miter;stroke-miterlimit:10;stroke-dasharray:none;stroke-opacity:1"
             d="m 0,0 c 0,0 -7.312,-10.249 -7.112,-19.909 0.2,-9.659 1.476,-22.929 6.359,-29.757 4.882,-6.827 9.663,-6.141 9.663,-6.141 0,0 2.394,-0.883 3.045,9.512 0.651,10.395 6.302,27.376 0.051,37.91 C 5.756,2.15 0,0 0,0 Z" /></g><g
           transform="translate(359.6807,509.0562)"
           id="g180"><path
             id="path182"
             style="fill:#c5242b;fill-opacity:1;fill-rule:nonzero;stroke:none"
             d="m 0,0 c 0,0 -13.948,24.226 -25.504,33.908 -11.556,9.682 -24.267,23.128 -27.438,23.946 -3.17,0.819 -6.579,2.065 -8.204,-0.652 -1.627,-2.718 -5.937,-5.428 -4.256,-9.839 1.68,-4.41 19.278,-25.875 24.977,-28.852 5.699,-2.977 35.721,-22.926 35.721,-22.926 z" /></g><g
           transform="translate(359.6807,509.0562)"
           id="g184"><path
             id="path186"
             style="fill:none;stroke:#7c0512;stroke-width:2;stroke-linecap:butt;stroke-linejoin:miter;stroke-miterlimit:10;stroke-dasharray:none;stroke-opacity:1"
             d="m 0,0 c 0,0 -13.948,24.226 -25.504,33.908 -11.556,9.682 -24.267,23.128 -27.438,23.946 -3.17,0.819 -6.579,2.065 -8.204,-0.652 -1.627,-2.718 -5.937,-5.428 -4.256,-9.839 1.68,-4.41 19.278,-25.875 24.977,-28.852 5.699,-2.977 35.721,-22.926 35.721,-22.926 z" /></g><g
           transform="translate(276.5737,513.4824)"
           id="g188"><path
             id="path190"
             style="fill:#d22129;fill-opacity:1;fill-rule:nonzero;stroke:none"
             d="m 0,0 c 0,0 -9.656,-11.775 -16.779,-25.054 -7.123,-13.279 -5.761,-18.275 -9.401,-25.248 -3.64,-6.973 -6.749,-14.773 -6.681,-17.222 0.069,-2.45 2.581,-5.358 2.581,-5.358 0,0 1.622,6.586 5.227,10.133 3.605,3.548 5.95,4.934 5.764,6.224 -0.185,1.29 -1.759,4.408 -0.213,5.729 1.545,1.321 2.375,2.541 4.297,3.303 1.922,0.762 1.957,4.347 1.7,5.837 -0.257,1.489 -1.706,4.499 0.342,5.063 2.048,0.564 4.227,1.173 6.73,3.874 2.502,2.7 -2.444,4.305 -1.359,6.135 1.087,1.829 2.568,9.132 6.126,10.636 3.557,1.504 6.634,7.059 5.287,11.495 C 2.273,-0.018 0,0 0,0" /></g><g
           transform="translate(276.5737,513.4824)"
           id="g192"><path
             id="path194"
             style="fill:none;stroke:#7c0512;stroke-width:2;stroke-linecap:butt;stroke-linejoin:miter;stroke-miterlimit:10;stroke-dasharray:none;stroke-opacity:1"
             d="m 0,0 c 0,0 -9.656,-11.775 -16.779,-25.054 -7.123,-13.279 -5.761,-18.275 -9.401,-25.248 -3.64,-6.973 -6.749,-14.773 -6.681,-17.222 0.069,-2.45 2.581,-5.358 2.581,-5.358 0,0 1.622,6.586 5.227,10.133 3.605,3.548 5.95,4.934 5.764,6.224 -0.185,1.29 -1.759,4.408 -0.213,5.729 1.545,1.321 2.375,2.541 4.297,3.303 1.922,0.762 1.957,4.347 1.7,5.837 -0.257,1.489 -1.706,4.499 0.342,5.063 2.048,0.564 4.227,1.173 6.73,3.874 2.502,2.7 -2.444,4.305 -1.359,6.135 1.087,1.829 2.568,9.132 6.126,10.636 3.557,1.504 6.634,7.059 5.287,11.495 C 2.273,-0.018 0,0 0,0 Z" /></g><g
           transform="translate(276.5752,551.3618)"
           id="g196"><path
             id="path198"
             style="fill:#d22129;fill-opacity:1;fill-rule:nonzero;stroke:none"
             d="m 0,0 c 0,0 -8.067,-9.666 -8.599,-19.313 -0.532,-9.647 -0.264,-22.975 4.087,-30.153 4.351,-7.177 9.17,-6.856 9.17,-6.856 0,0 2.321,-1.061 3.757,9.255 1.437,10.316 8.356,26.82 2.922,37.797 C 5.902,1.708 0,0 0,0" /></g><g
           transform="translate(276.5752,551.3618)"
           id="g200"><path
             id="path202"
             style="fill:none;stroke:#7c0512;stroke-width:2;stroke-linecap:butt;stroke-linejoin:miter;stroke-miterlimit:10;stroke-dasharray:none;stroke-opacity:1"
             d="m 0,0 c 0,0 -8.067,-9.666 -8.599,-19.313 -0.532,-9.647 -0.264,-22.975 4.087,-30.153 4.351,-7.177 9.17,-6.856 9.17,-6.856 0,0 2.321,-1.061 3.757,9.255 1.437,10.316 8.356,26.82 2.922,37.797 C 5.902,1.708 0,0 0,0 Z" /></g><g
           transform="translate(335.3555,497.1382)"
           id="g204"><path
             id="path206"
             style="fill:#c5242b;fill-opacity:1;fill-rule:nonzero;stroke:none"
             d="m 0,0 c 0,0 -13.33,24.572 -24.637,34.543 -11.307,9.972 -23.674,23.736 -26.822,24.634 -3.149,0.899 -6.525,2.231 -8.219,-0.445 -1.695,-2.675 -6.072,-5.275 -4.504,-9.727 1.568,-4.452 18.617,-26.355 24.239,-29.476 5.622,-3.12 35.129,-23.823 35.129,-23.823 z" /></g><g
           transform="translate(335.3555,497.1382)"
           id="g208"><path
             id="path210"
             style="fill:none;stroke:#7c0512;stroke-width:2;stroke-linecap:butt;stroke-linejoin:miter;stroke-miterlimit:10;stroke-dasharray:none;stroke-opacity:1"
             d="m 0,0 c 0,0 -13.33,24.572 -24.637,34.543 -11.307,9.972 -23.674,23.736 -26.822,24.634 -3.149,0.899 -6.525,2.231 -8.219,-0.445 -1.695,-2.675 -6.072,-5.275 -4.504,-9.727 1.568,-4.452 18.617,-26.355 24.239,-29.476 5.622,-3.12 35.129,-23.823 35.129,-23.823 z" /></g><g
           transform="translate(232.6729,475.2183)"
           id="g212"><path
             id="path214"
             style="fill:#d22129;fill-opacity:1;fill-rule:nonzero;stroke:none"
             d="m 0,0 c 0,0 -2.291,-15.055 -1.637,-30.109 0.655,-15.055 4.377,-18.655 4.807,-26.509 0.43,-7.855 1.739,-16.149 3.048,-18.22 1.309,-2.071 4.954,-3.288 4.954,-3.288 0,0 -1.967,6.49 -0.679,11.38 1.289,4.892 2.598,7.281 1.779,8.295 -0.817,1.014 -3.763,2.892 -3.108,4.817 0.654,1.925 0.745,3.398 2.008,5.034 1.264,1.636 -0.536,4.737 -1.518,5.887 -0.982,1.15 -3.763,2.997 -2.291,4.528 1.473,1.53 3.036,3.167 3.809,6.767 0.773,3.6 -4.299,2.454 -4.299,4.582 0,2.127 -2.455,9.163 -0.164,12.273 C 9,-11.455 8.809,-5.107 5.386,-1.981 1.963,1.146 0,0 0,0" /></g><g
           transform="translate(232.6729,475.2183)"
           id="g216"><path
             id="path218"
             style="fill:none;stroke:#7c0512;stroke-width:2;stroke-linecap:butt;stroke-linejoin:miter;stroke-miterlimit:10;stroke-dasharray:none;stroke-opacity:1"
             d="m 0,0 c 0,0 -2.291,-15.055 -1.637,-30.109 0.655,-15.055 4.377,-18.655 4.807,-26.509 0.43,-7.855 1.739,-16.149 3.048,-18.22 1.309,-2.071 4.954,-3.288 4.954,-3.288 0,0 -1.967,6.49 -0.679,11.38 1.289,4.892 2.598,7.281 1.779,8.295 -0.817,1.014 -3.763,2.892 -3.108,4.817 0.654,1.925 0.745,3.398 2.008,5.034 1.264,1.636 -0.536,4.737 -1.518,5.887 -0.982,1.15 -3.763,2.997 -2.291,4.528 1.473,1.53 3.036,3.167 3.809,6.767 0.773,3.6 -4.299,2.454 -4.299,4.582 0,2.127 -2.455,9.163 -0.164,12.273 C 9,-11.455 8.809,-5.107 5.386,-1.981 1.963,1.146 0,0 0,0 Z" /></g><g
           transform="translate(251.2183,518.418)"
           id="g220"><path
             id="path222"
             style="fill:#d22129;fill-opacity:1;fill-rule:nonzero;stroke:none"
             d="m 0,0 c 0,0 -11.127,-5.891 -15.273,-14.618 -4.145,-8.727 -8.945,-21.164 -7.636,-29.455 1.309,-8.29 5.891,-9.818 5.891,-9.818 0,0 1.745,-1.86 6.981,7.142 5.237,9.004 17.891,21.658 17.019,33.876 C 6.109,-0.654 0,0 0,0" /></g><g
           transform="translate(251.2183,518.418)"
           id="g224"><path
             id="path226"
             style="fill:none;stroke:#7c0512;stroke-width:2;stroke-linecap:butt;stroke-linejoin:miter;stroke-miterlimit:10;stroke-dasharray:none;stroke-opacity:1"
             d="m 0,0 c 0,0 -11.127,-5.891 -15.273,-14.618 -4.145,-8.727 -8.945,-21.164 -7.636,-29.455 1.309,-8.29 5.891,-9.818 5.891,-9.818 0,0 1.745,-1.86 6.981,7.142 5.237,9.004 17.891,21.658 17.019,33.876 C 6.109,-0.654 0,0 0,0 Z" /></g><g
           transform="translate(319.0723,478.5874)"
           id="g228"><path
             id="path230"
             style="fill:#c5242b;fill-opacity:1;fill-rule:nonzero;stroke:none"
             d="m 0,0 c 0,0 -18.981,20.521 -32.399,27.395 -13.419,6.872 -28.801,17.158 -32.073,17.251 -3.273,0.094 -6.873,0.551 -7.855,-2.459 -0.982,-3.011 -4.582,-6.611 -1.964,-10.538 2.619,-3.927 24.546,-20.945 30.764,-22.582 C -37.309,7.431 -3.605,-5.35 -3.605,-5.35 Z" /></g><g
           transform="translate(319.0723,478.5874)"
           id="g232"><path
             id="path234"
             style="fill:none;stroke:#7c0512;stroke-width:2;stroke-linecap:butt;stroke-linejoin:miter;stroke-miterlimit:10;stroke-dasharray:none;stroke-opacity:1"
             d="m 0,0 c 0,0 -18.981,20.521 -32.399,27.395 -13.419,6.872 -28.801,17.158 -32.073,17.251 -3.273,0.094 -6.873,0.551 -7.855,-2.459 -0.982,-3.011 -4.582,-6.611 -1.964,-10.538 2.619,-3.927 24.546,-20.945 30.764,-22.582 C -37.309,7.431 -3.605,-5.35 -3.605,-5.35 Z" /></g><g
           transform="translate(270.7959,389.627)"
           id="g236"><path
             id="path238"
             style="fill:#7c0512;fill-opacity:1;fill-rule:nonzero;stroke:none"
             d="m 0,0 c -2.064,-2.638 -4.24,-4.9 -6.606,-7.095 -2.361,-2.167 -4.892,-4.153 -7.583,-5.904 -1.327,-0.904 -2.752,-1.661 -4.154,-2.444 -1.462,-0.681 -2.895,-1.411 -4.43,-1.929 -1.487,-0.621 -3.079,-0.97 -4.628,-1.399 -1.593,-0.262 -3.198,-0.58 -4.741,-0.7 -6.229,-0.663 -12.462,-1.067 -18.695,-1.386 -6.234,-0.304 -12.47,-0.51 -18.705,-0.595 6.222,0.418 12.432,0.957 18.628,1.592 6.194,0.65 12.379,1.385 18.508,2.372 1.559,0.207 2.998,0.586 4.466,0.902 1.426,0.484 2.878,0.875 4.239,1.535 1.399,0.553 2.708,1.317 4.037,2.02 1.277,0.809 2.57,1.582 3.774,2.503 2.441,1.782 4.73,3.782 6.849,5.948 2.098,2.153 4.121,4.525 5.776,6.891 z" /></g><g
           transform="translate(284.1411,313.9814)"
           id="g240"><path
             id="path242"
             style="fill:#971c13;fill-opacity:1;fill-rule:nonzero;stroke:none"
             d="M 0,0 C 0,0 -16.559,10.473 -36.632,9.601 -56.705,8.728 -80.705,6.982 -90.741,-5.672 c -10.036,-12.655 -18.038,-26.619 -16.219,-33.6 1.819,-6.982 4.001,-13.091 4.001,-13.091 0,0 6.545,-2.618 13.091,3.054 6.545,5.673 6.109,11.346 8.727,10.473 2.618,-0.873 10.473,-5.236 11.782,-3.491 1.309,1.746 3.491,10.036 6.545,10.473 3.055,0.436 2.7,-6.982 9.205,-5.237 6.504,1.746 7.377,9.601 11.304,6.983 3.928,-2.619 6.109,-7.419 11.782,-5.237 5.673,2.182 13.527,3.054 17.018,2.618 3.491,-0.436 23.014,-5.236 23.014,-5.236 0,0 2.505,17.454 0,26.182 C 7.004,-3.054 0,0 0,0" /></g><g
           transform="translate(284.1411,313.9814)"
           id="g244"><path
             id="path246"
             style="fill:none;stroke:#7c0512;stroke-width:2;stroke-linecap:butt;stroke-linejoin:miter;stroke-miterlimit:10;stroke-dasharray:none;stroke-opacity:1"
             d="M 0,0 C 0,0 -16.559,10.473 -36.632,9.601 -56.705,8.728 -80.705,6.982 -90.741,-5.672 c -10.036,-12.655 -18.038,-26.619 -16.219,-33.6 1.819,-6.982 4.001,-13.091 4.001,-13.091 0,0 6.545,-2.618 13.091,3.054 6.545,5.673 6.109,11.346 8.727,10.473 2.618,-0.873 10.473,-5.236 11.782,-3.491 1.309,1.746 3.491,10.036 6.545,10.473 3.055,0.436 2.7,-6.982 9.205,-5.237 6.504,1.746 7.377,9.601 11.304,6.983 3.928,-2.619 6.109,-7.419 11.782,-5.237 5.673,2.182 13.527,3.054 17.018,2.618 3.491,-0.436 23.014,-5.236 23.014,-5.236 0,0 2.505,17.454 0,26.182 C 7.004,-3.054 0,0 0,0 Z" /></g><g
           transform="translate(274.9644,387.7656)"
           id="g248"><path
             id="path250"
             style="fill:#7c0512;fill-opacity:1;fill-rule:nonzero;stroke:none"
             d="m 0,0 c -2.375,-3.472 -4.935,-6.605 -7.75,-9.62 -2.81,-2.991 -5.856,-5.796 -9.269,-8.175 -3.403,-2.355 -7.231,-4.338 -11.477,-5.066 -4.019,-0.648 -8.094,-0.994 -12.141,-1.073 -4.049,-0.087 -8.042,0.038 -12.007,-0.232 -3.968,-0.236 -7.909,-0.85 -11.812,-1.709 -7.797,-1.731 -15.524,-4.056 -22.764,-7.532 7.094,3.776 14.752,6.435 22.531,8.505 3.897,1.03 7.883,1.822 11.918,2.23 4.035,0.443 8.081,0.485 12.05,0.736 3.972,0.244 7.898,0.744 11.777,1.534 3.675,0.788 7.09,2.71 10.166,5.037 3.082,2.344 5.866,5.121 8.427,8.086 2.546,2.956 4.941,6.168 6.966,9.41 z" /></g><g
           transform="translate(266.5347,311.7656)"
           id="g252"><path
             id="path254"
             style="fill:#f9b29e;fill-opacity:1;fill-rule:nonzero;stroke:none"
             d="m 0,0 c 0,0 -16.833,8.214 -39.903,2.63 -23.07,-5.585 -36.987,-26.346 -36.987,-26.346 0,0 17.555,13.436 32.778,17.703 C -28.888,-1.745 0,0 0,0" /></g><g
           transform="translate(292.8447,373.6289)"
           id="g256"><path
             id="path258"
             style="fill:#7c0512;fill-opacity:1;fill-rule:nonzero;stroke:none"
             d="m 0,0 c -4.167,-1.433 -8.359,-3.118 -12.443,-4.914 -4.095,-1.801 -8.11,-3.78 -11.997,-5.965 -3.889,-2.181 -7.605,-4.63 -11.13,-7.363 -3.528,-2.717 -6.789,-5.762 -9.676,-9.135 -2.897,-3.375 -5.255,-7.159 -7.521,-11.074 l -0.87,-1.464 -0.765,-1.462 c -0.249,-0.49 -0.518,-0.972 -0.754,-1.47 l -0.587,-1.549 c -0.184,-0.521 -0.419,-1.026 -0.563,-1.562 l -0.428,-1.609 c -0.327,-1.066 -0.485,-2.17 -0.678,-3.27 -0.706,-4.41 -0.712,-8.941 -0.291,-13.422 0.458,-4.478 1.265,-8.94 2.531,-13.279 -1.426,4.291 -2.4,8.731 -3.027,13.223 -0.59,4.494 -0.759,9.075 -0.203,13.619 0.155,1.133 0.277,2.274 0.573,3.387 l 0.382,1.682 c 0.13,0.561 0.353,1.096 0.526,1.646 l 0.555,1.641 c 0.226,0.532 0.489,1.05 0.734,1.575 l 0.751,1.57 0.808,1.481 c 2.113,3.984 4.407,7.999 7.279,11.602 2.859,3.604 6.125,6.883 9.652,9.813 3.514,2.941 7.269,5.619 11.181,8.005 3.907,2.391 7.935,4.564 12.044,6.555 4.122,1.994 8.258,3.843 12.583,5.51 z" /></g><g
           transform="translate(281.9551,380.4307)"
           id="g260"><path
             id="path262"
             style="fill:#7c0512;fill-opacity:1;fill-rule:nonzero;stroke:none"
             d="m 0,0 c -5.127,-4.914 -10.455,-9.466 -16.287,-13.515 -2.925,-1.995 -5.959,-3.885 -9.34,-5.256 l -1.296,-0.463 c -0.431,-0.158 -0.858,-0.319 -1.328,-0.402 -0.918,-0.205 -1.857,-0.425 -2.675,-0.523 -1.698,-0.241 -3.384,-0.573 -5.066,-0.924 -6.692,-1.497 -13.347,-3.664 -19.218,-7.244 -5.905,-3.524 -10.002,-9.661 -11.963,-16.301 0.795,3.389 2.206,6.638 4.089,9.596 0.95,1.473 2.023,2.881 3.262,4.141 1.239,1.262 2.609,2.397 4.061,3.399 5.857,3.966 12.523,6.49 19.298,8.353 1.704,0.442 3.416,0.865 5.151,1.197 0.904,0.154 1.647,0.387 2.419,0.592 0.387,0.082 0.767,0.249 1.147,0.41 l 1.14,0.469 c 3.015,1.391 5.846,3.333 8.564,5.388 5.414,4.151 10.481,8.92 15.167,13.863 z" /></g><g
           transform="translate(496.6729,421.5845)"
           id="g264"><path
             id="path266"
             style="fill:#d22129;fill-opacity:1;fill-rule:nonzero;stroke:none"
             d="m 0,0 c 0,0 -8.291,-8.115 -6.982,-21.204 1.309,-13.089 -1.45,-21.817 3.42,-25.744 4.871,-3.927 10.068,-4.801 12.051,0 1.984,4.8 6.926,19.197 6.2,25.744 C 13.964,-14.657 15.272,-2.797 10.909,0 6.545,2.797 0,0 0,0" /></g><g
           transform="translate(496.6729,421.5845)"
           id="g268"><path
             id="path270"
             style="fill:none;stroke:#7c0512;stroke-width:2;stroke-linecap:butt;stroke-linejoin:miter;stroke-miterlimit:10;stroke-dasharray:none;stroke-opacity:1"
             d="m 0,0 c 0,0 -8.291,-8.115 -6.982,-21.204 1.309,-13.089 -1.45,-21.817 3.42,-25.744 4.871,-3.927 10.068,-4.801 12.051,0 1.984,4.8 6.926,19.197 6.2,25.744 C 13.964,-14.657 15.272,-2.797 10.909,0 6.545,2.797 0,0 0,0 Z" /></g><g
           transform="translate(353.1094,396)"
           id="g272"><path
             id="path274"
             style="fill:#d22129;fill-opacity:1;fill-rule:nonzero;stroke:none"
             d="m 0,0 c 0,0 -8.312,-20.055 -6.338,-34.454 1.974,-14.4 12.883,-41.455 12.883,-41.455 0,0 27.915,-2.182 35.994,0 8.079,2.181 18.115,6.109 18.552,9.164 0.436,3.055 0,29.673 -10.473,42.327 C 40.146,-11.764 27.66,3.878 24.521,4.348 21.382,4.818 0,0 0,0" /></g><g
           transform="translate(353.1094,396)"
           id="g276"><path
             id="path278"
             style="fill:none;stroke:#7c0512;stroke-width:2;stroke-linecap:butt;stroke-linejoin:miter;stroke-miterlimit:10;stroke-dasharray:none;stroke-opacity:1"
             d="m 0,0 c 0,0 -8.312,-20.055 -6.338,-34.454 1.974,-14.4 12.883,-41.455 12.883,-41.455 0,0 27.915,-2.182 35.994,0 8.079,2.181 18.115,6.109 18.552,9.164 0.436,3.055 0,29.673 -10.473,42.327 C 40.146,-11.764 27.66,3.878 24.521,4.348 21.382,4.818 0,0 0,0 Z" /></g><g
           transform="translate(493.5205,612.1909)"
           id="g280"><path
             id="path282"
             style="fill:#d22129;fill-opacity:1;fill-rule:nonzero;stroke:none"
             d="m 0,0 c 0,0 13.164,16.455 21.94,16.455 8.776,0 14.993,0 13.53,-10.97 -1.463,-10.97 -6.582,-39.858 -6.582,-39.858 z" /></g><g
           transform="translate(493.5205,612.1909)"
           id="g284"><path
             id="path286"
             style="fill:none;stroke:#7c0512;stroke-width:2;stroke-linecap:butt;stroke-linejoin:miter;stroke-miterlimit:10;stroke-dasharray:none;stroke-opacity:1"
             d="m 0,0 c 0,0 13.164,16.455 21.94,16.455 8.776,0 14.993,0 13.53,-10.97 -1.463,-10.97 -6.582,-39.858 -6.582,-39.858 z" /></g><g
           transform="translate(473.4092,604.1465)"
           id="g288"><path
             id="path290"
             style="fill:#ac181e;fill-opacity:1;fill-rule:nonzero;stroke:none"
             d="M 0,0 C 0,0 13.164,10.604 16.82,10.97 20.477,11.335 28.521,12.798 36.566,7.313 44.611,1.828 50.827,-5.12 51.559,-12.798 52.29,-20.478 49.73,-31.813 45.708,-36.201 41.686,-40.589 35.104,-47.537 35.104,-47.537 Z" /></g><g
           transform="translate(473.4092,604.1465)"
           id="g292"><path
             id="path294"
             style="fill:none;stroke:#7c0512;stroke-width:2;stroke-linecap:butt;stroke-linejoin:miter;stroke-miterlimit:10;stroke-dasharray:none;stroke-opacity:1"
             d="M 0,0 C 0,0 13.164,10.604 16.82,10.97 20.477,11.335 28.521,12.798 36.566,7.313 44.611,1.828 50.827,-5.12 51.559,-12.798 52.29,-20.478 49.73,-31.813 45.708,-36.201 41.686,-40.589 35.104,-47.537 35.104,-47.537 Z" /></g><g
           transform="translate(455.125,593.1763)"
           id="g296"><path
             id="path298"
             style="fill:#b81b22;fill-opacity:1;fill-rule:nonzero;stroke:none"
             d="m 0,0 c 0,0 11.336,8.045 19.746,11.702 8.411,3.656 14.993,2.194 19.015,0 C 42.783,9.507 50.828,8.045 57.775,-3.291 64.724,-14.626 61.066,-28.156 59.238,-32.91 57.41,-37.664 41.32,-57.044 41.32,-57.044 Z" /></g><g
           transform="translate(455.125,593.1763)"
           id="g300"><path
             id="path302"
             style="fill:none;stroke:#7c0512;stroke-width:2;stroke-linecap:butt;stroke-linejoin:miter;stroke-miterlimit:10;stroke-dasharray:none;stroke-opacity:1"
             d="m 0,0 c 0,0 11.336,8.045 19.746,11.702 8.411,3.656 14.993,2.194 19.015,0 C 42.783,9.507 50.828,8.045 57.775,-3.291 64.724,-14.626 61.066,-28.156 59.238,-32.91 57.41,-37.664 41.32,-57.044 41.32,-57.044 Z" /></g><g
           transform="translate(433.5508,578.5498)"
           id="g304"><path
             id="path306"
             style="fill:#c01d24;fill-opacity:1;fill-rule:nonzero;stroke:none"
             d="m 0,0 c 0,0 5.485,15.358 19.746,16.82 14.261,1.463 18.283,3.291 25.963,0 C 53.388,13.53 59.97,6.948 64.357,0 c 4.389,-6.948 8.411,-24.134 6.949,-29.985 -1.463,-5.85 -17.918,-27.79 -17.918,-27.79 z" /></g><g
           transform="translate(433.5508,578.5498)"
           id="g308"><path
             id="path310"
             style="fill:none;stroke:#7c0512;stroke-width:2;stroke-linecap:butt;stroke-linejoin:miter;stroke-miterlimit:10;stroke-dasharray:none;stroke-opacity:1"
             d="m 0,0 c 0,0 5.485,15.358 19.746,16.82 14.261,1.463 18.283,3.291 25.963,0 C 53.388,13.53 59.97,6.948 64.357,0 c 4.389,-6.948 8.411,-24.134 6.949,-29.985 -1.463,-5.85 -17.918,-27.79 -17.918,-27.79 z" /></g><g
           transform="translate(410.8799,566.8481)"
           id="g312"><path
             id="path314"
             style="fill:#cb2027;fill-opacity:1;fill-rule:nonzero;stroke:none"
             d="m 0,0 c 0,0 10.238,13.164 23.402,15.358 13.164,2.194 17.918,6.582 28.157,0 C 61.798,8.776 71.671,5.485 76.79,-8.41 c 5.119,-13.896 5.119,-26.694 3.291,-32.91 -1.828,-6.217 -13.53,-24.866 -13.53,-24.866 z" /></g><g
           transform="translate(410.8799,566.8481)"
           id="g316"><path
             id="path318"
             style="fill:none;stroke:#7c0512;stroke-width:2;stroke-linecap:butt;stroke-linejoin:miter;stroke-miterlimit:10;stroke-dasharray:none;stroke-opacity:1"
             d="m 0,0 c 0,0 10.238,13.164 23.402,15.358 13.164,2.194 17.918,6.582 28.157,0 C 61.798,8.776 71.671,5.485 76.79,-8.41 c 5.119,-13.896 5.119,-26.694 3.291,-32.91 -1.828,-6.217 -13.53,-24.866 -13.53,-24.866 z" /></g><g
           transform="translate(385.6484,551.856)"
           id="g320"><path
             id="path322"
             style="fill:#d22129;fill-opacity:1;fill-rule:nonzero;stroke:none"
             d="m 0,0 c 10.239,8.045 19.381,17.917 28.156,19.015 8.777,1.097 23.404,6.216 32.545,-3.291 9.142,-9.508 20.843,-13.896 27.06,-29.62 6.216,-15.723 11.335,-27.79 5.85,-37.663 -5.485,-9.873 -19.014,-27.06 -19.014,-27.06 z" /></g><g
           transform="translate(385.6484,551.856)"
           id="g324"><path
             id="path326"
             style="fill:none;stroke:#7c0512;stroke-width:2;stroke-linecap:butt;stroke-linejoin:miter;stroke-miterlimit:10;stroke-dasharray:none;stroke-opacity:1"
             d="m 0,0 c 10.239,8.045 19.381,17.917 28.156,19.015 8.777,1.097 23.404,6.216 32.545,-3.291 9.142,-9.508 20.843,-13.896 27.06,-29.62 6.216,-15.723 11.335,-27.79 5.85,-37.663 -5.485,-9.873 -19.014,-27.06 -19.014,-27.06 z" /></g><g
           transform="translate(320.1943,486.7671)"
           id="g328"><path
             id="path330"
             style="fill:#d22129;fill-opacity:1;fill-rule:nonzero;stroke:none"
             d="M 0,0 C 0,0 16.089,24.866 31.447,36.933 46.806,49 69.111,70.208 73.134,72.768 c 4.021,2.56 18.283,4.753 31.812,-7.679 13.53,-12.433 25.232,-18.283 36.201,-39.858 10.97,-21.574 10.605,-25.962 8.777,-30.35 -1.829,-4.388 -21.941,-35.104 -34.739,-47.537 -12.798,-12.432 -44.977,-37.298 -53.387,-39.857 -8.41,-2.561 -49,-12.434 -49,-12.434 z" /></g><g
           transform="translate(320.1943,486.7671)"
           id="g332"><path
             id="path334"
             style="fill:none;stroke:#7c0512;stroke-width:2;stroke-linecap:butt;stroke-linejoin:miter;stroke-miterlimit:10;stroke-dasharray:none;stroke-opacity:1"
             d="M 0,0 C 0,0 16.089,24.866 31.447,36.933 46.806,49 69.111,70.208 73.134,72.768 c 4.021,2.56 18.283,4.753 31.812,-7.679 13.53,-12.433 25.232,-18.283 36.201,-39.858 10.97,-21.574 10.605,-25.962 8.777,-30.35 -1.829,-4.388 -21.941,-35.104 -34.739,-47.537 -12.798,-12.432 -44.977,-37.298 -53.387,-39.857 -8.41,-2.561 -49,-12.434 -49,-12.434 z" /></g><g
           transform="translate(166.187,408.5376)"
           id="g336"><path
             id="path338"
             style="fill:#971c13;fill-opacity:1;fill-rule:nonzero;stroke:none"
             d="m 0,0 c -1.037,-4.437 -0.797,-15.352 1.296,-20.906 2.093,-5.553 0.074,-15.297 -2.134,-21.992 -2.208,-6.695 -6.503,-7.935 -7.624,-11.015 -1.121,-3.081 2.634,-7.219 0.537,-8.661 -2.096,-1.442 -2.91,4.628 -5.661,-0.351 -2.752,-4.98 -3.164,-12.438 -3.002,-15.051 0.162,-2.613 -3.822,-8.878 -6.624,-13.038 -2.803,-4.16 1.819,-1.147 6.968,0.432 5.149,1.58 22.919,14.486 28.346,24.003 5.426,9.518 18.749,34.387 17.861,55.756 C 29.076,10.546 0,0 0,0" /></g><g
           transform="translate(166.187,408.5376)"
           id="g340"><path
             id="path342"
             style="fill:none;stroke:#7c0512;stroke-width:2;stroke-linecap:butt;stroke-linejoin:miter;stroke-miterlimit:10;stroke-dasharray:none;stroke-opacity:1"
             d="m 0,0 c -1.037,-4.437 -0.797,-15.352 1.296,-20.906 2.093,-5.553 0.074,-15.297 -2.134,-21.992 -2.208,-6.695 -6.503,-7.935 -7.624,-11.015 -1.121,-3.081 2.634,-7.219 0.537,-8.661 -2.096,-1.442 -2.91,4.628 -5.661,-0.351 -2.752,-4.98 -3.164,-12.438 -3.002,-15.051 0.162,-2.613 -3.822,-8.878 -6.624,-13.038 -2.803,-4.16 1.819,-1.147 6.968,0.432 5.149,1.58 22.919,14.486 28.346,24.003 5.426,9.518 18.749,34.387 17.861,55.756 C 29.076,10.546 0,0 0,0 Z" /></g><g
           transform="translate(224.3818,475.8726)"
           id="g344"><path
             id="path346"
             style="fill:#bc1c23;fill-opacity:1;fill-rule:nonzero;stroke:none"
             d="M 0,0 C 0,0 -17.455,4.993 -27.927,2.715 -38.4,0.437 -70.254,-7.418 -77.673,-15.272 c -7.418,-7.855 -38.4,-21.339 -46.254,-43.833 -7.855,-22.495 -8.728,-49.55 -5.237,-63.513 3.491,-13.964 14.837,-35.782 22.691,-36.655 7.855,-0.872 15.273,2.522 15.273,2.522 0,0 -6.109,6.206 -3.491,14.06 2.618,7.855 13.964,11.346 16.582,15.709 2.618,4.364 14.836,16.146 15.709,22.691 0.873,6.545 1.309,21.346 2.182,24.418 0.872,3.073 6.835,9.619 13.017,7.873 6.183,-1.745 16.656,-7.418 16.219,-13.09 -0.436,-5.673 3.055,-5.237 3.055,-5.237 0,0 10.76,5.785 13.453,12.274 2.692,6.49 7.929,10.389 12.292,24.366 C 2.182,-39.709 0,0 0,0" /></g><g
           transform="translate(224.3818,475.8726)"
           id="g348"><path
             id="path350"
             style="fill:none;stroke:#7c0512;stroke-width:2;stroke-linecap:butt;stroke-linejoin:miter;stroke-miterlimit:10;stroke-dasharray:none;stroke-opacity:1"
             d="M 0,0 C 0,0 -17.455,4.993 -27.927,2.715 -38.4,0.437 -70.254,-7.418 -77.673,-15.272 c -7.418,-7.855 -38.4,-21.339 -46.254,-43.833 -7.855,-22.495 -8.728,-49.55 -5.237,-63.513 3.491,-13.964 14.837,-35.782 22.691,-36.655 7.855,-0.872 15.273,2.522 15.273,2.522 0,0 -6.109,6.206 -3.491,14.06 2.618,7.855 13.964,11.346 16.582,15.709 2.618,4.364 14.836,16.146 15.709,22.691 0.873,6.545 1.309,21.346 2.182,24.418 0.872,3.073 6.835,9.619 13.017,7.873 6.183,-1.745 16.656,-7.418 16.219,-13.09 -0.436,-5.673 3.055,-5.237 3.055,-5.237 0,0 10.76,5.785 13.453,12.274 2.692,6.49 7.929,10.389 12.292,24.366 C 2.182,-39.709 0,0 0,0 Z" /></g><g
           transform="translate(241.8364,487.6548)"
           id="g352"><path
             id="path354"
             style="fill:#d22129;fill-opacity:1;fill-rule:nonzero;stroke:none"
             d="m 0,0 c 0,0 -21.382,0.873 -27.491,0 -6.109,-0.873 -4.8,-10.152 -2.618,-15.985 2.182,-5.833 8.727,-25.034 17.454,-28.961 8.728,-3.927 28.801,-3.491 35.346,-3.927 6.545,-0.437 28.416,3.927 28.416,3.927 0,0 3.438,9.164 -4.853,16.582 C 37.963,-20.946 30.545,-10.909 19.2,-3.928 7.854,3.054 0,0 0,0" /></g><g
           transform="translate(241.8364,487.6548)"
           id="g356"><path
             id="path358"
             style="fill:none;stroke:#7c0512;stroke-width:2;stroke-linecap:butt;stroke-linejoin:miter;stroke-miterlimit:10;stroke-dasharray:none;stroke-opacity:1"
             d="m 0,0 c 0,0 -21.382,0.873 -27.491,0 -6.109,-0.873 -4.8,-10.152 -2.618,-15.985 2.182,-5.833 8.727,-25.034 17.454,-28.961 8.728,-3.927 28.801,-3.491 35.346,-3.927 6.545,-0.437 28.416,3.927 28.416,3.927 0,0 3.438,9.164 -4.853,16.582 C 37.963,-20.946 30.545,-10.909 19.2,-3.928 7.854,3.054 0,0 0,0 Z" /></g><g
           transform="translate(284.1411,367.9189)"
           id="g360"><path
             id="path362"
             style="fill:#d22129;fill-opacity:1;fill-rule:nonzero;stroke:none"
             d="m 0,0 c 0,0 57.053,8.49 96.247,3.437 39.193,-5.054 94.385,-22.397 118.863,-33.34 24.476,-10.944 51.095,-45.416 52.403,-65.489 1.31,-20.073 -12.218,-63.272 -12.218,-63.272 0,0 10.91,44.072 5.673,60.218 -5.236,16.145 -10.01,40.145 -45.858,60.069 -20.28,11.272 -50.818,20.513 -65.632,23.713 -19.312,4.171 -33.383,10.022 -63.492,11.781 C 55.054,-1.076 2.641,-4.642 2.641,-4.642 Z" /></g><g
           transform="translate(284.1411,367.9189)"
           id="g364"><path
             id="path366"
             style="fill:none;stroke:#7c0512;stroke-width:1;stroke-linecap:butt;stroke-linejoin:miter;stroke-miterlimit:10;stroke-dasharray:none;stroke-opacity:1"
             d="m 0,0 c 0,0 57.053,8.49 96.247,3.437 39.193,-5.054 94.385,-22.397 118.863,-33.34 24.476,-10.944 51.095,-45.416 52.403,-65.489 1.31,-20.073 -12.218,-63.272 -12.218,-63.272 0,0 10.91,44.072 5.673,60.218 -5.236,16.145 -10.01,40.145 -45.858,60.069 -20.28,11.272 -50.818,20.513 -65.632,23.713 -19.312,4.171 -33.383,10.022 -63.492,11.781 C 55.054,-1.076 2.641,-4.642 2.641,-4.642 Z" /></g><g
           transform="translate(255.3638,402.4219)"
           id="g368"><path
             id="path370"
             style="fill:#d22129;fill-opacity:1;fill-rule:nonzero;stroke:none"
             d="m 0,0 c 0,0 -24.437,59.618 -51.927,100.282 -27.491,40.665 -60.655,85.493 -95.564,102.57 -34.909,17.077 -60.655,6.923 -70.691,0 -10.036,-6.923 -18.764,-17.144 -18.764,-17.144 0,0 15.273,17.203 36.218,18.948 20.946,1.745 44.749,-3.096 61.528,-15.709 39.709,-29.85 50.783,-51.831 72,-80.727 C -31.637,59.783 -3.055,-2.042 -3.055,-2.042 Z" /></g><g
           transform="translate(255.3638,402.4219)"
           id="g372"><path
             id="path374"
             style="fill:none;stroke:#7c0512;stroke-width:1;stroke-linecap:butt;stroke-linejoin:miter;stroke-miterlimit:10;stroke-dasharray:none;stroke-opacity:1"
             d="m 0,0 c 0,0 -24.437,59.618 -51.927,100.282 -27.491,40.665 -60.655,85.493 -95.564,102.57 -34.909,17.077 -60.655,6.923 -70.691,0 -10.036,-6.923 -18.764,-17.144 -18.764,-17.144 0,0 15.273,17.203 36.218,18.948 20.946,1.745 44.749,-3.096 61.528,-15.709 39.709,-29.85 50.783,-51.831 72,-80.727 C -31.637,59.783 -3.055,-2.042 -3.055,-2.042 Z" /></g><g
           transform="translate(261.7388,401.0405)"
           id="g376"><path
             id="path378"
             style="fill:#d22129;fill-opacity:1;fill-rule:nonzero;stroke:none"
             d="m 0,0 c 2.596,-5.554 2.111,-11.266 -1.082,-12.758 -3.193,-1.492 -7.885,1.8 -10.481,7.354 -2.596,5.554 -2.112,11.266 1.082,12.758 C -7.289,8.847 -2.596,5.554 0,0" /></g><g
           transform="translate(261.7388,401.0405)"
           id="g380"><path
             id="path382"
             style="fill:none;stroke:#7c0512;stroke-width:2;stroke-linecap:butt;stroke-linejoin:miter;stroke-miterlimit:10;stroke-dasharray:none;stroke-opacity:1"
             d="m 0,0 c 2.596,-5.554 2.111,-11.266 -1.082,-12.758 -3.193,-1.492 -7.885,1.8 -10.481,7.354 -2.596,5.554 -2.112,11.266 1.082,12.758 C -7.289,8.847 -2.596,5.554 0,0 Z" /></g><g
           transform="translate(294.4766,370.9746)"
           id="g384"><path
             id="path386"
             style="fill:#d22129;fill-opacity:1;fill-rule:nonzero;stroke:none"
             d="M 0,0 C 4.335,-4.335 5.829,-9.869 3.336,-12.361 0.844,-14.854 -4.69,-13.36 -9.025,-9.025 -13.36,-4.69 -14.854,0.845 -12.362,3.337 -9.87,5.829 -4.335,4.335 0,0" /></g><g
           transform="translate(294.4766,370.9746)"
           id="g388"><path
             id="path390"
             style="fill:none;stroke:#7c0512;stroke-width:2;stroke-linecap:butt;stroke-linejoin:miter;stroke-miterlimit:10;stroke-dasharray:none;stroke-opacity:1"
             d="M 0,0 C 4.335,-4.335 5.829,-9.869 3.336,-12.361 0.844,-14.854 -4.69,-13.36 -9.025,-9.025 -13.36,-4.69 -14.854,0.845 -12.362,3.337 -9.87,5.829 -4.335,4.335 0,0 Z" /></g><g
           transform="translate(259.8281,393.1064)"
           id="g392"><path
             id="path394"
             style="fill:#d22129;fill-opacity:1;fill-rule:nonzero;stroke:none"
             d="m 0,0 c 0,0 10.706,25.143 17.217,42.102 7.096,18.48 24.124,44.143 28.147,46.337 4.022,2.194 15.002,13.464 30.163,11.298 13.516,-1.93 40.786,-10.924 50.293,-28.475 9.508,-17.553 16.582,-41.013 10,-55.64 C 129.238,0.995 105.343,-3.973 98.761,-7.629 92.179,-11.286 53.053,-25.547 42.814,-25.181 32.575,-24.815 24.313,-25.187 24.313,-25.187 Z" /></g><g
           transform="translate(259.8281,393.1064)"
           id="g396"><path
             id="path398"
             style="fill:none;stroke:#7c0512;stroke-width:2;stroke-linecap:butt;stroke-linejoin:miter;stroke-miterlimit:10;stroke-dasharray:none;stroke-opacity:1"
             d="m 0,0 c 0,0 10.706,25.143 17.217,42.102 7.096,18.48 24.124,44.143 28.147,46.337 4.022,2.194 15.002,13.464 30.163,11.298 13.516,-1.93 40.786,-10.924 50.293,-28.475 9.508,-17.553 16.582,-41.013 10,-55.64 C 129.238,0.995 105.343,-3.973 98.761,-7.629 92.179,-11.286 53.053,-25.547 42.814,-25.181 32.575,-24.815 24.313,-25.187 24.313,-25.187 Z" /></g><g
           transform="translate(307.8623,340.1641)"
           id="g400"><path
             id="path402"
             style="fill:#bc1c23;fill-opacity:1;fill-rule:nonzero;stroke:none"
             d="m 0,0 c -10.349,-3.055 -27.345,-6.161 -33.299,-13.527 -5.908,-7.311 7.374,-22.692 9.578,-29.237 2.204,-6.546 6.959,-18.328 0,-21.818 -6.96,-3.491 -20.487,-11.346 -30.087,-15.709 -9.6,-4.364 -32.727,-12.219 -45.818,-10.473 -13.091,1.745 -28.364,8.727 -30.545,7.418 -2.182,-1.309 0.851,-18.419 3.273,-24.436 3.599,-8.946 21.599,-34.473 49.963,-39.273 28.364,-4.799 66.098,1.309 84.539,9.6 18.443,8.291 51.334,29.175 59.897,35.346 20.285,14.618 39.273,41.454 42.764,54.981 3.491,13.527 5.236,32.291 -12.218,39.274 C 80.592,-0.873 38.798,2.219 23.865,2.618 11.21,2.956 0,0 0,0" /></g><g
           transform="translate(307.8623,340.1641)"
           id="g404"><path
             id="path406"
             style="fill:none;stroke:#7c0512;stroke-width:2;stroke-linecap:butt;stroke-linejoin:miter;stroke-miterlimit:10;stroke-dasharray:none;stroke-opacity:1"
             d="m 0,0 c -10.349,-3.055 -27.345,-6.161 -33.299,-13.527 -5.908,-7.311 7.374,-22.692 9.578,-29.237 2.204,-6.546 6.959,-18.328 0,-21.818 -6.96,-3.491 -20.487,-11.346 -30.087,-15.709 -9.6,-4.364 -32.727,-12.219 -45.818,-10.473 -13.091,1.745 -28.364,8.727 -30.545,7.418 -2.182,-1.309 0.851,-18.419 3.273,-24.436 3.599,-8.946 21.599,-34.473 49.963,-39.273 28.364,-4.799 66.098,1.309 84.539,9.6 18.443,8.291 51.334,29.175 59.897,35.346 20.285,14.618 39.273,41.454 42.764,54.981 3.491,13.527 5.236,32.291 -12.218,39.274 C 80.592,-0.873 38.798,2.219 23.865,2.618 11.21,2.956 0,0 0,0 Z" /></g><g
           transform="translate(199.0728,466.2729)"
           id="g408"><path
             id="path410"
             style="fill:#f9b29e;fill-opacity:1;fill-rule:nonzero;stroke:none"
             d="m 0,0 c 0,0 -29.673,0.873 -59.346,-22.255 -29.672,-23.127 -36.217,-62.198 -36.217,-62.198 0,0 16.581,30.867 35.781,46.969 C -40.582,-21.382 0,0 0,0" /></g><g
           transform="translate(402.8545,326.2002)"
           id="g412"><path
             id="path414"
             style="fill:#f9b29e;fill-opacity:1;fill-rule:nonzero;stroke:none"
             d="m 0,0 c 0,0 -34.866,10.067 -62.836,9.603 -29.661,-0.494 -52.088,-12.582 -52.088,-12.582 0,0 38.515,7.374 57.125,6.321 C -39.188,2.289 0,0 0,0" /></g><g
           transform="translate(421.3018,569.248)"
           id="g416"><path
             id="path418"
             style="fill:#f9b29e;fill-opacity:1;fill-rule:nonzero;stroke:none"
             d="m 0,0 c 0,0 1.319,2.33 -9.061,-0.804 -5.779,-1.746 -8.364,-4.342 -8.364,-4.342 0,0 5.567,0.71 9.02,1.69 C -1.457,-1.486 0,0 0,0" /></g><g
           transform="translate(439.4883,579.9756)"
           id="g420"><path
             id="path422"
             style="fill:#f9b29e;fill-opacity:1;fill-rule:nonzero;stroke:none"
             d="m 0,0 c 0,0 1.319,2.33 -9.061,-0.805 -5.779,-1.745 -8.364,-4.342 -8.364,-4.342 0,0 5.567,0.711 9.02,1.69 C -1.457,-1.486 0,0 0,0" /></g><g
           transform="translate(456.9785,593.0337)"
           id="g424"><path
             id="path426"
             style="fill:#f9b29e;fill-opacity:1;fill-rule:nonzero;stroke:none"
             d="m 0,0 c 0,0 0.989,2.488 -8.866,-2.033 -5.488,-2.517 -7.694,-5.443 -7.694,-5.443 0,0 5.417,1.464 8.705,2.905 C -1.241,-1.67 0,0 0,0" /></g><g
           transform="translate(485.5254,603.9902)"
           id="g428"><path
             id="path430"
             style="fill:#f9b29e;fill-opacity:1;fill-rule:nonzero;stroke:none"
             d="m 0,0 c 0,0 1.319,2.33 -9.061,-0.805 -5.779,-1.745 -8.364,-4.342 -8.364,-4.342 0,0 5.567,0.711 9.02,1.69 C -1.458,-1.486 0,0 0,0" /></g><g
           transform="translate(493.8203,613.0444)"
           id="g432"><path
             id="path434"
             style="fill:#f9b29e;fill-opacity:1;fill-rule:nonzero;stroke:none"
             d="m 0,0 c 0,0 0.715,1.519 -5.626,-0.931 -3.53,-1.364 -5.023,-3.11 -5.023,-3.11 0,0 3.446,0.708 5.558,1.483 C -0.841,-0.998 0,0 0,0" /></g><g
           transform="translate(400.4541,558.9946)"
           id="g436"><path
             id="path438"
             style="fill:#f9b29e;fill-opacity:1;fill-rule:nonzero;stroke:none"
             d="m 0,0 c 0,0 -3.409,-3.592 -34.761,-29.396 -17.455,-14.366 -28.784,-31.42 -28.784,-31.42 0,0 19.029,17.91 29.509,26.239 C -12.947,-17.813 0,0 0,0" /></g><g
           transform="translate(325.7822,485.6909)"
           id="g440"><path
             id="path442"
             style="fill:#f9b29e;fill-opacity:1;fill-rule:nonzero;stroke:none"
             d="m 0,0 c 0,0 -24.831,-19.481 -33.709,-32.891 -19.492,-29.439 -26.046,-58.432 -26.046,-58.432 0,0 17.111,38.905 28.991,55.814 C -26.432,-29.343 0,0 0,0" /></g><g
           transform="translate(151.8677,325.2402)"
           id="g444"><path
             id="path446"
             style="fill:#f9b29e;fill-opacity:1;fill-rule:nonzero;stroke:none"
             d="m 0,0 c 0,0 17.255,7.285 28.212,28.342 10.957,21.055 4.461,45.191 4.461,45.191 0,0 -1.415,-22.061 -8.207,-36.339 C 17.675,22.917 0,0 0,0" /></g></g></g><g
       id="g448"><g
         clip-path="url(#clipPath454)"
         id="g450"><g
           transform="translate(293.543,419.6494)"
           id="g456"><path
             id="path458"
             style="fill:#ffffff;fill-opacity:1;fill-rule:nonzero;stroke:none"
             d="M 0,0 C -11.251,6.335 -16.435,18.462 -11.579,27.085 -6.723,35.709 6.334,37.563 17.585,31.229 28.836,24.893 34.02,12.766 29.164,4.143 24.309,-4.48 11.251,-6.335 0,0" /></g><g
           transform="translate(293.543,419.6494)"
           id="g460"><path
             id="path462"
             style="fill:none;stroke:#231f20;stroke-width:2.5;stroke-linecap:butt;stroke-linejoin:miter;stroke-miterlimit:10;stroke-dasharray:none;stroke-opacity:1"
             d="M 0,0 C -11.251,6.335 -16.435,18.462 -11.579,27.085 -6.723,35.709 6.334,37.563 17.585,31.229 28.836,24.893 34.02,12.766 29.164,4.143 24.309,-4.48 11.251,-6.335 0,0 Z" /></g><g
           transform="translate(302.835,431.6387)"
           id="g464"><path
             id="path466"
             style="fill:#414142;fill-opacity:1;fill-rule:nonzero;stroke:none"
             d="m 0,0 c -3.495,4.503 -3.216,10.568 0.623,13.547 3.838,2.98 9.783,1.745 13.278,-2.758 C 17.396,6.286 17.117,0.221 13.278,-2.758 9.439,-5.738 3.495,-4.503 0,0" /></g><g
           transform="translate(314.0176,433.8726)"
           id="g468"><path
             id="path470"
             style="fill:#ffffff;fill-opacity:1;fill-rule:nonzero;stroke:none"
             d="M 0,0 C -1.421,0.8 -1.925,2.602 -1.124,4.023 -0.323,5.444 1.478,5.948 2.899,5.147 4.32,4.347 4.824,2.546 4.023,1.124 3.223,-0.297 1.422,-0.801 0,0" /></g><g
           transform="translate(329.3184,431.333)"
           id="g472"><path
             id="path474"
             style="fill:#231f20;fill-opacity:1;fill-rule:nonzero;stroke:none"
             d="m 0,0 -19.441,42.607 -25.736,4.647 9.611,-7.191 29.512,-42.607 z" /></g><g
           transform="translate(335.2432,392.3496)"
           id="g476"><path
             id="path478"
             style="fill:#ffffff;fill-opacity:1;fill-rule:nonzero;stroke:none"
             d="M 0,0 C 11.617,-8.308 26.197,-7.823 32.564,1.081 38.932,9.986 34.676,23.939 23.058,32.247 11.439,40.554 -3.14,40.07 -9.508,31.165 -15.875,22.26 -11.618,8.307 0,0" /></g><g
           transform="translate(335.2432,392.3496)"
           id="g480"><path
             id="path482"
             style="fill:none;stroke:#231f20;stroke-width:2.5;stroke-linecap:butt;stroke-linejoin:miter;stroke-miterlimit:10;stroke-dasharray:none;stroke-opacity:1"
             d="M 0,0 C 11.617,-8.308 26.197,-7.823 32.564,1.081 38.932,9.986 34.676,23.939 23.058,32.247 11.439,40.554 -3.14,40.07 -9.508,31.165 -15.875,22.26 -11.618,8.307 0,0 Z" /></g><g
           transform="translate(342.0244,407.5195)"
           id="g484"><path
             id="path486"
             style="fill:#414142;fill-opacity:1;fill-rule:nonzero;stroke:none"
             d="M 0,0 C 5.991,-1.964 12.205,0.584 13.88,5.692 15.554,10.799 12.054,16.532 6.062,18.496 0.072,20.459 -6.143,17.911 -7.816,12.804 -9.49,7.696 -5.991,1.964 0,0" /></g><g
           transform="translate(339.9062,419.5283)"
           id="g488"><path
             id="path490"
             style="fill:#ffffff;fill-opacity:1;fill-rule:nonzero;stroke:none"
             d="M 0,0 C 1.468,-1.049 3.509,-0.71 4.559,0.757 5.607,2.225 5.269,4.266 3.801,5.315 2.333,6.365 0.292,6.026 -0.757,4.558 -1.807,3.09 -1.468,1.05 0,0" /></g><g
           transform="translate(329.5937,433.8521)"
           id="g492"><path
             id="path494"
             style="fill:#231f20;fill-opacity:1;fill-rule:nonzero;stroke:none"
             d="M 0,0 51.801,-0.585 68.024,-24.535 56.447,-18.034 0.138,-7.263 Z" /></g></g></g></g></svg>