<?xml version="1.0" encoding="UTF-8" standalone="no"?>
<svg
   xmlns:dc="http://purl.org/dc/elements/1.1/"
   xmlns:cc="http://creativecommons.org/ns#"
   xmlns:rdf="http://www.w3.org/1999/02/22-rdf-syntax-ns#"
   xmlns:svg="http://www.w3.org/2000/svg"
   xmlns="http://www.w3.org/2000/svg"
   viewBox="0 0 793.70135 1122.52"
   height="1122.52"
   width="793.70135"
   xml:space="preserve"
   id="svg2"
   version="1.1"><metadata
     id="metadata8"><rdf:RDF><cc:Work
         rdf:about=""><dc:format>image/svg+xml</dc:format><dc:type
           rdf:resource="http://purl.org/dc/dcmitype/StillImage" /></cc:Work></rdf:RDF></metadata><defs
     id="defs6"><clipPath
       id="clipPath18"
       clipPathUnits="userSpaceOnUse"><path
         id="path16"
         d="M 0,841.89 H 595.276 V 0 H 0 Z" /></clipPath></defs><g
     transform="matrix(1.3333333,0,0,-1.3333333,0,1122.52)"
     id="g10"><g
       id="g12"><g
         clip-path="url(#clipPath18)"
         id="g14"><g
           transform="translate(317.4541,430.399)"
           id="g20"><path
             id="path22"
             style="fill:#bf935b;fill-opacity:1;fill-rule:nonzero;stroke:none"
             d="m 0,0 c 0,0 6.776,-9.454 8.921,-16.845 2.041,-7.036 0.076,-13.293 0.419,-22.472 0.267,-7.167 1.742,-22.811 9.734,-25.294 10.831,-3.363 18.786,-16.224 18.786,-16.224 0,0 4.461,11.888 -10.524,25.624 -4.762,4.363 -7.505,18.438 -5.403,24.617 2.101,6.178 -1.634,18.9 -2.692,26.667 -0.548,4.02 -6.944,16.256 -6.944,16.256 z" /></g><g
           transform="translate(317.4541,430.399)"
           id="g24"><path
             id="path26"
             style="fill:none;stroke:#5a3114;stroke-width:3;stroke-linecap:butt;stroke-linejoin:miter;stroke-miterlimit:10;stroke-dasharray:none;stroke-opacity:1"
             d="m 0,0 c 0,0 6.776,-9.454 8.921,-16.845 2.041,-7.036 0.076,-13.293 0.419,-22.472 0.267,-7.167 1.742,-22.811 9.734,-25.294 10.831,-3.363 18.786,-16.224 18.786,-16.224 0,0 4.461,11.888 -10.524,25.624 -4.762,4.363 -7.505,18.438 -5.403,24.617 2.101,6.178 -1.634,18.9 -2.692,26.667 -0.548,4.02 -6.944,16.256 -6.944,16.256 z" /></g><g
           transform="translate(286.5308,451.7604)"
           id="g28"><path
             id="path30"
             style="fill:#bf935b;fill-opacity:1;fill-rule:nonzero;stroke:none"
             d="m 0,0 c 0,0 -1.358,-8.085 -0.327,-20.05 1.03,-11.965 -0.495,-17.184 -4.095,-28.639 -2.95,-9.387 3.035,-18.327 0.655,-28.473 -0.639,-2.723 -3.109,-22.582 -3.109,-22.582 0,0 13.733,8.994 15.463,17.673 2.251,11.291 3.355,21.11 6.645,25.624 6.817,9.358 1.29,14.966 4.435,21.429 2.063,4.236 1.929,21.387 4.384,45.335 z" /></g><g
           transform="translate(286.5308,451.7604)"
           id="g32"><path
             id="path34"
             style="fill:none;stroke:#5a3114;stroke-width:3;stroke-linecap:butt;stroke-linejoin:miter;stroke-miterlimit:10;stroke-dasharray:none;stroke-opacity:1"
             d="m 0,0 c 0,0 -1.358,-8.085 -0.327,-20.05 1.03,-11.965 -0.495,-17.184 -4.095,-28.639 -2.95,-9.387 3.035,-18.327 0.655,-28.473 -0.639,-2.723 -3.109,-22.582 -3.109,-22.582 0,0 13.733,8.994 15.463,17.673 2.251,11.291 3.355,21.11 6.645,25.624 6.817,9.358 1.29,14.966 4.435,21.429 2.063,4.236 1.929,21.387 4.384,45.335 z" /></g><g
           transform="translate(259.0361,438.9078)"
           id="g36"><path
             id="path38"
             style="fill:#bf935b;fill-opacity:1;fill-rule:nonzero;stroke:none"
             d="m 0,0 c 0,0 -3.563,-5.739 -8.018,-14.563 -4.042,-8.009 -7.734,-14.323 -12.764,-24.383 -3.927,-7.854 -11.542,-25.524 -4.418,-32.89 9.655,-9.982 10.637,-28.473 10.637,-28.473 0,0 11.781,10.145 3.763,33.709 -2.548,7.487 2.782,24.219 8.673,29.618 5.891,5.4 21.167,17.182 18.602,21.437 -2.566,4.254 -3.711,30.33 -3.711,30.33 z" /></g><g
           transform="translate(259.0361,438.9078)"
           id="g40"><path
             id="path42"
             style="fill:none;stroke:#5a3114;stroke-width:3;stroke-linecap:butt;stroke-linejoin:miter;stroke-miterlimit:10;stroke-dasharray:none;stroke-opacity:1"
             d="m 0,0 c 0,0 -3.563,-5.739 -8.018,-14.563 -4.042,-8.009 -7.734,-14.323 -12.764,-24.383 -3.927,-7.854 -11.542,-25.524 -4.418,-32.89 9.655,-9.982 10.637,-28.473 10.637,-28.473 0,0 11.781,10.145 3.763,33.709 -2.548,7.487 2.782,24.219 8.673,29.618 5.891,5.4 21.167,17.182 18.602,21.437 -2.566,4.254 -3.711,30.33 -3.711,30.33 z" /></g><g
           transform="translate(394.9131,426.5499)"
           id="g44"><path
             id="path46"
             style="fill:#bf935b;fill-opacity:1;fill-rule:nonzero;stroke:none"
             d="m 0,0 c 0,0 2.009,-3.541 5.25,-4.564 0,0 4.138,-2.055 -0.213,-3.371 0,0 -5.692,-1.342 -9.223,1.141 l 3.85,7.322 z" /></g><g
           transform="translate(394.9131,426.5499)"
           id="g48"><path
             id="path50"
             style="fill:none;stroke:#5a3114;stroke-width:3;stroke-linecap:butt;stroke-linejoin:miter;stroke-miterlimit:10;stroke-dasharray:none;stroke-opacity:1"
             d="m 0,0 c 0,0 2.009,-3.541 5.25,-4.564 0,0 4.138,-2.055 -0.213,-3.371 0,0 -5.692,-1.342 -9.223,1.141 l 3.85,7.322 z" /></g><g
           transform="translate(398.3574,456.0109)"
           id="g52"><path
             id="path54"
             style="fill:#7b7979;fill-opacity:1;fill-rule:nonzero;stroke:none"
             d="m 0,0 32.276,51.677 c 0,0 1.423,1.464 0.955,4.599 0,0 -8.294,20.115 9.633,31.743 0,0 18.421,11.686 24.11,-7.887 0,0 3.911,-15.046 -11.278,-25.804 0,0 -3.882,-3.191 -11.357,-4.197 0,0 -3.605,-0.85 -4.453,-3.393 L 11.157,-2.318 C 11.157,-2.318 4.954,1.368 0,0" /></g><g
           transform="translate(398.3574,456.0109)"
           id="g56"><path
             id="path58"
             style="fill:none;stroke:#393536;stroke-width:2;stroke-linecap:butt;stroke-linejoin:miter;stroke-miterlimit:10;stroke-dasharray:none;stroke-opacity:1"
             d="m 0,0 32.276,51.677 c 0,0 1.423,1.464 0.955,4.599 0,0 -8.294,20.115 9.633,31.743 0,0 18.421,11.686 24.11,-7.887 0,0 3.911,-15.046 -11.278,-25.804 0,0 -3.882,-3.191 -11.357,-4.197 0,0 -3.605,-0.85 -4.453,-3.393 L 11.157,-2.318 C 11.157,-2.318 4.954,1.368 0,0 Z" /></g><g
           transform="translate(333.7656,452.108)"
           id="g60"><path
             id="path62"
             style="fill:#bf935b;fill-opacity:1;fill-rule:nonzero;stroke:none"
             d="m 0,0 c 7.107,-2.11 10.115,-7.115 11.476,-9.088 6.232,-9.043 25.136,-33.129 44.209,-35.236 0,0 16.72,0.574 21.915,14.331 0,0 4.19,14.633 -9.621,22.258 0,0 -8.437,5.569 -15.178,0.244 0,0 -0.134,6.177 4.681,8.894 0,0 9.696,6.664 20.31,-1.157 0,0 9.888,-7.127 12.254,-18.593 0,0 5.267,-17.319 -6.788,-31.14 0,0 -16.584,-18.118 -35.405,-15.176 0,0 -8.291,3.191 -19.059,8.391 -6.209,2.998 -11.847,7.066 -16.652,12.011 -5.437,5.593 -13.216,12.824 -16.072,15.679 -2.181,2.182 -8.287,6.86 -10.69,12.109 -2.956,6.457 1.822,9.812 -3.491,18.058 0,0 15.786,-0.895 18.111,-1.585" /></g><g
           transform="translate(333.7656,452.108)"
           id="g64"><path
             id="path66"
             style="fill:none;stroke:#5a3114;stroke-width:3;stroke-linecap:butt;stroke-linejoin:miter;stroke-miterlimit:10;stroke-dasharray:none;stroke-opacity:1"
             d="m 0,0 c 7.107,-2.11 10.115,-7.115 11.476,-9.088 6.232,-9.043 25.136,-33.129 44.209,-35.236 0,0 16.72,0.574 21.915,14.331 0,0 4.19,14.633 -9.621,22.258 0,0 -8.437,5.569 -15.178,0.244 0,0 -0.134,6.177 4.681,8.894 0,0 9.696,6.664 20.31,-1.157 0,0 9.888,-7.127 12.254,-18.593 0,0 5.267,-17.319 -6.788,-31.14 0,0 -16.584,-18.118 -35.405,-15.176 0,0 -8.291,3.191 -19.059,8.391 -6.209,2.998 -11.847,7.066 -16.652,12.011 -5.437,5.593 -13.216,12.824 -16.072,15.679 -2.181,2.182 -8.287,6.86 -10.69,12.109 -2.956,6.457 1.822,9.812 -3.491,18.058 0,0 15.786,-0.895 18.111,-1.585 z" /></g><g
           transform="translate(407.665,439.5592)"
           id="g68"><path
             id="path70"
             style="fill:#bf935b;fill-opacity:1;fill-rule:nonzero;stroke:none"
             d="m 0,0 c 0,0 -1.633,-4.873 -4.229,-4.681 0,0 -5.514,7.917 -16.814,8.029 0,0 -1.541,0.195 0.422,2.063 0,0 9.137,7.247 20.621,-5.411" /></g><g
           transform="translate(407.665,439.5592)"
           id="g72"><path
             id="path74"
             style="fill:none;stroke:#5a3114;stroke-width:3;stroke-linecap:butt;stroke-linejoin:miter;stroke-miterlimit:10;stroke-dasharray:none;stroke-opacity:1"
             d="m 0,0 c 0,0 -1.633,-4.873 -4.229,-4.681 0,0 -5.514,7.917 -16.814,8.029 0,0 -1.541,0.195 0.422,2.063 0,0 9.137,7.247 20.621,-5.411 z" /></g><g
           transform="translate(403.4365,434.8781)"
           id="g76"><path
             id="path78"
             style="fill:#bf935b;fill-opacity:1;fill-rule:nonzero;stroke:none"
             d="m 0,0 c 0,0 1.347,-9.092 -7.031,-9.642 0,0 -6.868,9.607 -16.649,6.601 0,0 -1.432,-0.438 -1.545,1.724 0,0 -1.378,6.046 6.452,9.225 0,0 5.881,1.456 13.003,-2.897 0,0 4.107,-2.489 5.77,-5.011" /></g><g
           transform="translate(403.4365,434.8781)"
           id="g80"><path
             id="path82"
             style="fill:none;stroke:#5a3114;stroke-width:3;stroke-linecap:butt;stroke-linejoin:miter;stroke-miterlimit:10;stroke-dasharray:none;stroke-opacity:1"
             d="m 0,0 c 0,0 1.347,-9.092 -7.031,-9.642 0,0 -6.868,9.607 -16.649,6.601 0,0 -1.432,-0.438 -1.545,1.724 0,0 -1.378,6.046 6.452,9.225 0,0 5.881,1.456 13.003,-2.897 0,0 4.107,-2.489 5.77,-5.011 z" /></g><g
           transform="translate(383.1074,432.7745)"
           id="g84"><path
             id="path86"
             style="fill:#4f4c4d;fill-opacity:1;fill-rule:nonzero;stroke:#393536;stroke-width:2;stroke-linecap:butt;stroke-linejoin:miter;stroke-miterlimit:10;stroke-dasharray:none;stroke-opacity:1"
             d="m 0,0 -2.209,-3.308 c -0.977,-1.462 -1.599,-3.151 -1.674,-4.907 -0.065,-1.528 0.237,-3.24 1.547,-4.414 0,0 6.793,-6.281 10.055,-0.384 3.135,5.668 0,0 0,0 l 3.849,7.322 c 0,0 -4.986,6.195 -11.811,5.327" /></g><g
           transform="translate(244.3091,508.8361)"
           id="g88"><path
             id="path90"
             style="fill:#a67f4e;fill-opacity:1;fill-rule:nonzero;stroke:none"
             d="m 0,0 c 0,0 -5.236,-5.344 -14.073,0 -8.836,5.345 -35.469,45.446 -39.334,64.832 -3.866,19.385 1.731,18.731 -2.703,28.549 -4.435,9.818 -3.093,22.582 0,30.436 3.092,7.855 -3.939,17.018 -2.06,22.582 1.879,5.564 7.443,24.218 12.352,31.091 4.909,6.873 14.026,26.837 16.34,33.709 2.314,6.873 9.514,22.909 16.387,27.819 6.873,4.908 22.753,7.526 31.34,14.399 8.587,6.873 10.841,9.491 18.878,8.182 8.037,-1.309 17.526,-3.927 20.145,-7.854 2.619,-3.928 7.528,-0.982 7.855,1.636 0.328,2.618 5.891,7.524 9.164,6.544 3.273,-0.98 22.909,-7.526 26.509,-12.435 3.6,-4.909 20.291,-15.382 23.564,-16.364 3.272,-0.981 13.418,-14.399 17.017,-20.618 3.601,-6.218 10.801,-22.148 16.365,-27.111 5.563,-4.961 12.763,-34.586 10.472,-43.01 -2.291,-8.424 -5.676,-42.461 -5.292,-49.66 0.383,-7.201 -9.108,-35.019 -11.399,-37.964 -2.29,-2.946 -15.119,-24.861 -16.887,-30.43 -1.767,-5.57 -22.058,-30.443 -25.658,-30.443 -3.601,0 -29.127,24.094 -42.873,24.156 C 52.364,18.108 25.581,16.84 16.554,16.329 7.527,15.817 0,0 0,0" /></g><g
           transform="translate(244.3091,508.8361)"
           id="g92"><path
             id="path94"
             style="fill:none;stroke:#613627;stroke-width:3;stroke-linecap:butt;stroke-linejoin:miter;stroke-miterlimit:10;stroke-dasharray:none;stroke-opacity:1"
             d="m 0,0 c 0,0 -5.236,-5.344 -14.073,0 -8.836,5.345 -35.469,45.446 -39.334,64.832 -3.866,19.385 1.731,18.731 -2.703,28.549 -4.435,9.818 -3.093,22.582 0,30.436 3.092,7.855 -3.939,17.018 -2.06,22.582 1.879,5.564 7.443,24.218 12.352,31.091 4.909,6.873 14.026,26.837 16.34,33.709 2.314,6.873 9.514,22.909 16.387,27.819 6.873,4.908 22.753,7.526 31.34,14.399 8.587,6.873 10.841,9.491 18.878,8.182 8.037,-1.309 17.526,-3.927 20.145,-7.854 2.619,-3.928 7.528,-0.982 7.855,1.636 0.328,2.618 5.891,7.524 9.164,6.544 3.273,-0.98 22.909,-7.526 26.509,-12.435 3.6,-4.909 20.291,-15.382 23.564,-16.364 3.272,-0.981 13.418,-14.399 17.017,-20.618 3.601,-6.218 10.801,-22.148 16.365,-27.111 5.563,-4.961 12.763,-34.586 10.472,-43.01 -2.291,-8.424 -5.676,-42.461 -5.292,-49.66 0.383,-7.201 -9.108,-35.019 -11.399,-37.964 -2.29,-2.946 -15.119,-24.861 -16.887,-30.43 -1.767,-5.57 -22.058,-30.443 -25.658,-30.443 -3.601,0 -29.127,24.094 -42.873,24.156 C 52.364,18.108 25.581,16.84 16.554,16.329 7.527,15.817 0,0 0,0 Z" /></g><g
           transform="translate(247.5967,506.402)"
           id="g96"><path
             id="path98"
             style="fill:#7e5732;fill-opacity:1;fill-rule:nonzero;stroke:none"
             d="m 0,0 c 0,0 -41.797,43.62 -43.971,72.419 -2.175,28.801 0.771,82.801 10.916,103.419 10.146,20.618 31.551,50.4 46.376,55.963 14.825,5.564 22.318,10.146 32.48,9.491 10.163,-0.654 32.354,-7.854 47.604,-22.909 15.249,-15.054 37.831,-31.745 38.486,-68.072 0.654,-36.328 2.291,-68.084 -10.473,-88.042 C 108.654,42.311 88.05,9.256 88.05,9.256 L 46.8,-16.274 Z" /></g><g
           transform="translate(247.5967,506.402)"
           id="g100"><path
             id="path102"
             style="fill:none;stroke:#613627;stroke-width:3;stroke-linecap:butt;stroke-linejoin:miter;stroke-miterlimit:10;stroke-dasharray:none;stroke-opacity:1"
             d="m 0,0 c 0,0 -41.797,43.62 -43.971,72.419 -2.175,28.801 0.771,82.801 10.916,103.419 10.146,20.618 31.551,50.4 46.376,55.963 14.825,5.564 22.318,10.146 32.48,9.491 10.163,-0.654 32.354,-7.854 47.604,-22.909 15.249,-15.054 37.831,-31.745 38.486,-68.072 0.654,-36.328 2.291,-68.084 -10.473,-88.042 C 108.654,42.311 88.05,9.256 88.05,9.256 L 46.8,-16.274 Z" /></g><g
           transform="translate(294.709,739.8898)"
           id="g104"><path
             id="path106"
             style="fill:#613a1e;fill-opacity:1;fill-rule:nonzero;stroke:none"
             d="m 0,0 c 0,0 -11.008,-21.382 -12.218,-25.527 -3.54,-12.13 -8.922,-37.527 -5.018,-58.036 4.139,-21.75 1.357,-59.43 -1.361,-82.91 -2.635,-22.771 4.219,-41.774 4.634,-46.472 1.963,-22.255 15.927,-28.95 15.927,-28.95 0,0 13.964,4.513 17.454,36.149 0.98,8.884 5.121,23.876 2.57,41.029 -2.788,18.753 -2.513,55.6 1.277,80.503 3.353,22.032 -0.927,35.886 -2.32,44.505 C 16.717,-13.542 0,0 0,0" /></g><g
           transform="translate(248.2363,502.7262)"
           id="g108"><path
             id="path110"
             style="fill:#bf935b;fill-opacity:1;fill-rule:nonzero;stroke:none"
             d="M 0,0 C -0.819,-3.847 -2.618,-12.445 -1.309,-19.75 0,-27.055 6.764,-43.418 6.764,-49.746 c 0,-6.327 -3.709,-12.059 -10.91,-15.955 -7.199,-3.896 -17.018,-8.328 -22.254,-16.15 -5.236,-7.821 -13.309,-23.967 -8.727,-35.531 4.582,-11.564 14.182,-18.982 14.182,-18.982 0,0 -6.764,14.401 -5.891,20.946 0.873,6.545 3.054,15.58 10.69,22.125 7.637,6.545 17.455,6.494 20.292,8.42 2.836,1.927 12.76,5.709 13.95,12.504 1.19,6.795 1.569,14.551 1.569,14.551 0,0 -1.377,-21.382 -5.305,-29.891 -3.927,-8.509 -11.042,-9.56 -11.305,-30.109 -0.219,-17.018 20.103,-29.455 20.103,-29.455 0,0 -7.231,22.895 -4.394,33.047 2.836,10.153 3.236,14.541 13.09,25.862 5.73,6.583 11.351,11.291 14.128,18.655 1.691,4.484 -3.409,15.382 -3.409,15.382 0,0 9.658,-5.294 14.591,-15.71 4.932,-10.415 -10.275,-16.145 -9.72,-27.054 C 48,-108 56.291,-109.053 58.255,-120.2 c 1.963,-11.145 -8.093,-23.364 -10.811,-27.073 -2.716,-3.709 -6.862,-8.727 -6.862,-8.727 0,0 21.019,10.156 27.055,15.709 5.454,5.018 10.472,14.182 6.545,23.345 -2.648,6.178 -6.109,13.964 -3.491,20.728 2.619,6.763 2.619,6.763 8.29,14.367 1.207,1.616 8.51,9.422 5.237,16.15 -2.49,5.12 -6.785,11.339 -6.785,11.339 0,0 4.493,-0.276 12.347,-9.565 7.855,-9.29 11.893,-9.382 15.82,-25.31 3.927,-15.927 -0.856,-28.963 -3.709,-36 -2.59,-6.388 -10.241,-17.236 -10.241,-17.236 0,0 22.677,11.988 27.477,30.213 4.801,18.223 5.236,28.915 0,38.951 -2.855,5.471 -13.527,17.762 -16.855,26.595 -2.519,6.688 0.208,23.457 2.946,31.969 8.638,26.854 -7.199,40.708 -24.563,40.708 C 66.437,25.964 59.783,-0.05 47.563,1.309 37.327,2.448 29.206,22.179 20.945,22.691 9.379,23.407 1.745,8.192 0,0" /></g><g
           transform="translate(248.2363,502.7262)"
           id="g112"><path
             id="path114"
             style="fill:none;stroke:#5a3114;stroke-width:3;stroke-linecap:butt;stroke-linejoin:miter;stroke-miterlimit:10;stroke-dasharray:none;stroke-opacity:1"
             d="M 0,0 C -0.819,-3.847 -2.618,-12.445 -1.309,-19.75 0,-27.055 6.764,-43.418 6.764,-49.746 c 0,-6.327 -3.709,-12.059 -10.91,-15.955 -7.199,-3.896 -17.018,-8.328 -22.254,-16.15 -5.236,-7.821 -13.309,-23.967 -8.727,-35.531 4.582,-11.564 14.182,-18.982 14.182,-18.982 0,0 -6.764,14.401 -5.891,20.946 0.873,6.545 3.054,15.58 10.69,22.125 7.637,6.545 17.455,6.494 20.292,8.42 2.836,1.927 12.76,5.709 13.95,12.504 1.19,6.795 1.569,14.551 1.569,14.551 0,0 -1.377,-21.382 -5.305,-29.891 -3.927,-8.509 -11.042,-9.56 -11.305,-30.109 -0.219,-17.018 20.103,-29.455 20.103,-29.455 0,0 -7.231,22.895 -4.394,33.047 2.836,10.153 3.236,14.541 13.09,25.862 5.73,6.583 11.351,11.291 14.128,18.655 1.691,4.484 -3.409,15.382 -3.409,15.382 0,0 9.658,-5.294 14.591,-15.71 4.932,-10.415 -10.275,-16.145 -9.72,-27.054 C 48,-108 56.291,-109.053 58.255,-120.2 c 1.963,-11.145 -8.093,-23.364 -10.811,-27.073 -2.716,-3.709 -6.862,-8.727 -6.862,-8.727 0,0 21.019,10.156 27.055,15.709 5.454,5.018 10.472,14.182 6.545,23.345 -2.648,6.178 -6.109,13.964 -3.491,20.728 2.619,6.763 2.619,6.763 8.29,14.367 1.207,1.616 8.51,9.422 5.237,16.15 -2.49,5.12 -6.785,11.339 -6.785,11.339 0,0 4.493,-0.276 12.347,-9.565 7.855,-9.29 11.893,-9.382 15.82,-25.31 3.927,-15.927 -0.856,-28.963 -3.709,-36 -2.59,-6.388 -10.241,-17.236 -10.241,-17.236 0,0 22.677,11.988 27.477,30.213 4.801,18.223 5.236,28.915 0,38.951 -2.855,5.471 -13.527,17.762 -16.855,26.595 -2.519,6.688 0.208,23.457 2.946,31.969 8.638,26.854 -7.199,40.708 -24.563,40.708 C 66.437,25.964 59.783,-0.05 47.563,1.309 37.327,2.448 29.206,22.179 20.945,22.691 9.379,23.407 1.745,8.192 0,0 Z" /></g><g
           transform="translate(355.9355,487.5397)"
           id="g116"><path
             id="path118"
             style="fill:#ffffff;fill-opacity:1;fill-rule:nonzero;stroke:none"
             d="m 0,0 c 0,-12.912 -8.022,-23.379 -17.919,-23.379 -9.896,0 -17.92,10.467 -17.92,23.379 0,12.912 8.024,23.379 17.92,23.379 C -8.022,23.379 0,12.912 0,0" /></g><g
           transform="translate(355.9355,487.5397)"
           id="g120"><path
             id="path122"
             style="fill:none;stroke:#483631;stroke-width:2.5;stroke-linecap:butt;stroke-linejoin:miter;stroke-miterlimit:10;stroke-dasharray:none;stroke-opacity:1"
             d="m 0,0 c 0,-12.912 -8.022,-23.379 -17.919,-23.379 -9.896,0 -17.92,10.467 -17.92,23.379 0,12.912 8.024,23.379 17.92,23.379 C -8.022,23.379 0,12.912 0,0 Z" /></g><g
           transform="translate(285.8203,485.4567)"
           id="g124"><path
             id="path126"
             style="fill:#ffffff;fill-opacity:1;fill-rule:nonzero;stroke:none"
             d="m 0,0 c 0,-12.912 -8.022,-23.379 -17.919,-23.379 -9.897,0 -17.92,10.467 -17.92,23.379 0,12.912 8.023,23.379 17.92,23.379 C -8.022,23.379 0,12.912 0,0" /></g><g
           transform="translate(285.8203,485.4567)"
           id="g128"><path
             id="path130"
             style="fill:none;stroke:#483631;stroke-width:2.5;stroke-linecap:butt;stroke-linejoin:miter;stroke-miterlimit:10;stroke-dasharray:none;stroke-opacity:1"
             d="m 0,0 c 0,-12.912 -8.022,-23.379 -17.919,-23.379 -9.897,0 -17.92,10.467 -17.92,23.379 0,12.912 8.023,23.379 17.92,23.379 C -8.022,23.379 0,12.912 0,0 Z" /></g><g
           transform="translate(277.3945,477.4249)"
           id="g132"><path
             id="path134"
             style="fill:#393536;fill-opacity:1;fill-rule:nonzero;stroke:none"
             d="m 0,0 c 0,-5.7 -3.939,-10.321 -8.798,-10.321 -4.859,0 -8.798,4.621 -8.798,10.321 0,5.7 3.939,10.32 8.798,10.32 C -3.939,10.32 0,5.7 0,0" /></g><g
           transform="translate(269.2739,473.7848)"
           id="g136"><path
             id="path138"
             style="fill:#ffffff;fill-opacity:1;fill-rule:nonzero;stroke:none"
             d="m 0,0 c 0,-1.856 -1.199,-3.36 -2.677,-3.36 -1.479,0 -2.678,1.504 -2.678,3.36 0,1.855 1.199,3.36 2.678,3.36 C -1.199,3.36 0,1.855 0,0" /></g><g
           transform="translate(345.3623,480.1974)"
           id="g140"><path
             id="path142"
             style="fill:#393536;fill-opacity:1;fill-rule:nonzero;stroke:none"
             d="m 0,0 c 0,-5.7 -3.939,-10.32 -8.799,-10.32 -4.858,0 -8.798,4.62 -8.798,10.32 0,5.7 3.94,10.321 8.798,10.321 C -3.939,10.321 0,5.7 0,0" /></g><g
           transform="translate(341.2412,475.5631)"
           id="g144"><path
             id="path146"
             style="fill:#ffffff;fill-opacity:1;fill-rule:nonzero;stroke:none"
             d="m 0,0 c 0,-1.855 -1.198,-3.36 -2.678,-3.36 -1.478,0 -2.676,1.505 -2.676,3.36 0,1.855 1.198,3.36 2.676,3.36 C -1.198,3.36 0,1.855 0,0" /></g></g></g></g></svg>