<?xml version="1.0" encoding="UTF-8" standalone="no"?>
<svg
   xmlns:dc="http://purl.org/dc/elements/1.1/"
   xmlns:cc="http://creativecommons.org/ns#"
   xmlns:rdf="http://www.w3.org/1999/02/22-rdf-syntax-ns#"
   xmlns:svg="http://www.w3.org/2000/svg"
   xmlns="http://www.w3.org/2000/svg"
   viewBox="0 0 816 1056"
   height="1056"
   width="816"
   xml:space="preserve"
   id="svg2"
   version="1.1"><metadata
     id="metadata8"><rdf:RDF><cc:Work
         rdf:about=""><dc:format>image/svg+xml</dc:format><dc:type
           rdf:resource="http://purl.org/dc/dcmitype/StillImage" /></cc:Work></rdf:RDF></metadata><defs
     id="defs6"><clipPath
       id="clipPath18"
       clipPathUnits="userSpaceOnUse"><path
         id="path16"
         d="M 0,792 H 612 V 0 H 0 Z" /></clipPath></defs><g
     transform="matrix(1.3333333,0,0,-1.3333333,0,1056)"
     id="g10"><g
       id="g12"><g
         clip-path="url(#clipPath18)"
         id="g14"><g
           transform="translate(338.709,354.4541)"
           id="g20"><path
             id="path22"
             style="fill:#aa361a;fill-opacity:1;fill-rule:nonzero;stroke:none"
             d="m 0,0 c 0,0 -58.582,22.582 -61.854,24.873 -3.273,2.291 -18.655,7.2 -23.237,6.546 -4.582,-0.655 -7.854,-5.564 -6.872,-8.51 0.981,-2.945 3.599,-16.036 3.599,-16.036 L 0,-10.145 Z" /></g><g
           transform="translate(338.709,354.4541)"
           id="g24"><path
             id="path26"
             style="fill:none;stroke:#231f20;stroke-width:2;stroke-linecap:butt;stroke-linejoin:miter;stroke-miterlimit:10;stroke-dasharray:none;stroke-opacity:1"
             d="m 0,0 c 0,0 -58.582,22.582 -61.854,24.873 -3.273,2.291 -18.655,7.2 -23.237,6.546 -4.582,-0.655 -7.854,-5.564 -6.872,-8.51 0.981,-2.945 3.599,-16.036 3.599,-16.036 L 0,-10.145 Z" /></g><g
           transform="translate(300.418,355.7637)"
           id="g28"><path
             id="path30"
             style="fill:#ca4223;fill-opacity:1;fill-rule:nonzero;stroke:none"
             d="m 0,0 c 0,0 -36,17.019 -44.836,17.673 -8.836,0.654 -15.055,2.945 -16.691,-3.273 -1.637,-6.218 -0.655,-14.4 1.964,-18.328 2.618,-3.926 17.345,-13.745 17.345,-13.745 l 88.364,1.637 2.938,6.218 c 0,0 -27.483,3.6 -49.084,9.818" /></g><g
           transform="translate(300.418,355.7637)"
           id="g32"><path
             id="path34"
             style="fill:none;stroke:#231f20;stroke-width:2;stroke-linecap:butt;stroke-linejoin:miter;stroke-miterlimit:10;stroke-dasharray:none;stroke-opacity:1"
             d="m 0,0 c 0,0 -36,17.019 -44.836,17.673 -8.836,0.654 -15.055,2.945 -16.691,-3.273 -1.637,-6.218 -0.655,-14.4 1.964,-18.328 2.618,-3.926 17.345,-13.745 17.345,-13.745 l 88.364,1.637 2.938,6.218 c 0,0 -27.483,3.6 -49.084,9.818 z" /></g><g
           transform="translate(345.582,343.9814)"
           id="g36"><path
             id="path38"
             style="fill:#da4727;fill-opacity:1;fill-rule:nonzero;stroke:none"
             d="m 0,0 c 0,0 -16.036,-1.963 -25.527,-2.618 -9.492,-0.654 -23.891,5.236 -33.71,6.873 -9.818,1.637 -31.091,2.618 -36.327,0 -5.236,-2.618 -7.527,-6.873 -5.563,-13.745 1.963,-6.873 3.272,-12.437 15.054,-16.692 11.782,-4.254 30.721,1.637 35.161,3.273 4.439,1.637 30.294,7.527 35.203,8.837 4.909,1.308 35.673,2.392 37.963,3.16 C 24.545,-10.146 0,0 0,0" /></g><g
           transform="translate(345.6152,344.2295)"
           id="g40"><path
             id="path42"
             style="fill:#231f20;fill-opacity:1;fill-rule:nonzero;stroke:none"
             d="m 0,0 2.088,-0.693 2.018,-0.696 4.016,-1.452 c 2.673,-0.981 5.346,-1.971 7.984,-3.077 1.324,-0.549 2.642,-1.11 3.963,-1.726 0.663,-0.311 1.317,-0.637 1.997,-1.025 0.348,-0.207 0.675,-0.389 1.111,-0.748 l 0.176,-0.16 c 0.071,-0.071 0.148,-0.159 0.217,-0.242 0.034,-0.038 0.102,-0.138 0.145,-0.209 0.055,-0.097 0.079,-0.118 0.146,-0.282 0.066,-0.164 0.112,-0.342 0.133,-0.516 0.028,-0.211 -0.011,-0.582 -0.119,-0.841 -0.104,-0.262 -0.255,-0.456 -0.445,-0.642 -0.232,-0.209 -0.269,-0.201 -0.41,-0.287 -0.089,-0.05 -0.317,-0.139 -0.299,-0.128 l -0.089,-0.022 -0.359,-0.09 c -0.223,-0.052 -0.52,-0.126 -0.687,-0.146 l -0.555,-0.086 c -0.368,-0.057 -0.745,-0.119 -1.097,-0.16 l -2.146,-0.264 c -1.423,-0.172 -2.841,-0.3 -4.259,-0.442 -5.663,-0.559 -11.32,-1.017 -16.948,-1.53 -2.81,-0.273 -5.63,-0.515 -8.369,-0.846 -0.698,-0.074 -1.343,-0.182 -2.004,-0.279 -0.354,-0.043 -0.595,-0.112 -0.875,-0.169 l -0.412,-0.085 -0.53,-0.142 -4.165,-1.08 c -5.529,-1.331 -11.04,-2.657 -16.561,-3.922 -2.759,-0.634 -5.513,-1.28 -8.245,-1.951 -1.36,-0.337 -2.738,-0.669 -4.044,-1.035 -0.717,-0.192 -1.163,-0.336 -1.908,-0.582 -0.712,-0.246 -1.406,-0.454 -2.108,-0.673 -2.798,-0.83 -5.61,-1.543 -8.462,-2.109 -2.849,-0.565 -5.728,-1.03 -8.649,-1.237 -2.917,-0.219 -5.861,-0.308 -8.818,0.009 -2.938,0.291 -5.94,0.95 -8.689,2.115 -2.693,1.124 -5.34,2.512 -7.661,4.423 -2.317,1.918 -4.121,4.492 -5.174,7.242 -0.547,1.37 -0.943,2.764 -1.339,4.135 -0.377,1.356 -0.804,2.758 -1.018,4.238 -0.195,1.47 -0.241,2.994 0.048,4.503 0.297,1.505 0.97,2.957 1.93,4.161 0.96,1.206 2.138,2.207 3.416,2.992 l 0.972,0.561 c 0.349,0.168 0.73,0.313 1.097,0.467 0.376,0.174 0.73,0.221 1.096,0.336 0.364,0.092 0.73,0.218 1.089,0.278 2.888,0.625 5.76,0.864 8.632,1.086 5.743,0.37 11.48,0.398 17.222,0.057 2.87,-0.208 5.743,-0.413 8.65,-0.939 2.921,-0.515 5.718,-1.228 8.468,-2.017 l 8.175,-2.333 c 2.702,-0.767 5.395,-1.501 8.092,-2.046 2.696,-0.522 5.386,-0.959 8.01,-0.876 l 8.467,0.386 8.5,0.438 4.258,0.195 z m -0.067,-0.495 c -0.087,-0.041 -0.288,-0.07 -0.459,-0.109 L -1.05,-0.71 -2.097,-0.922 -4.192,-1.334 -8.393,-2.098 c -2.805,-0.474 -5.612,-0.95 -8.432,-1.346 -2.819,-0.415 -5.642,-0.799 -8.494,-1.087 -3.05,-0.303 -6.039,-0.042 -8.924,0.411 -2.89,0.455 -5.716,1.07 -8.499,1.754 l -8.246,2.166 c -2.728,0.686 -5.429,1.407 -8.093,1.907 -2.681,0.466 -5.458,0.869 -8.237,1.177 -5.563,0.654 -11.183,1.166 -16.789,1.329 -2.797,0.064 -5.612,0.019 -8.316,-0.342 -0.347,-0.029 -0.661,-0.113 -0.989,-0.181 -0.313,-0.082 -0.676,-0.115 -0.95,-0.235 -0.291,-0.109 -0.583,-0.195 -0.88,-0.316 l -0.897,-0.457 c -1.166,-0.649 -2.252,-1.437 -3.07,-2.447 -0.824,-1 -1.401,-2.18 -1.679,-3.456 -0.273,-1.278 -0.268,-2.633 -0.056,-3.967 0.209,-1.333 0.625,-2.649 1.026,-4.02 0.395,-1.354 0.833,-2.677 1.392,-3.922 0.552,-1.249 1.221,-2.419 2.035,-3.474 0.827,-1.046 1.835,-1.928 2.9,-2.731 2.183,-1.557 4.698,-2.675 7.304,-3.556 5.091,-1.709 10.666,-1.433 16.099,-0.694 5.447,0.761 10.872,2.133 16.112,3.86 0.646,0.225 1.304,0.447 1.926,0.686 0.594,0.22 1.49,0.542 2.14,0.731 1.414,0.444 2.782,0.829 4.167,1.211 2.761,0.755 5.515,1.476 8.27,2.186 5.506,1.426 11.042,2.707 16.549,4.03 l 4.101,0.956 0.5,0.122 0.631,0.125 c 0.416,0.079 0.866,0.173 1.218,0.207 0.746,0.092 1.504,0.197 2.219,0.254 2.903,0.283 5.744,0.462 8.595,0.587 5.695,0.283 11.37,0.457 17.034,0.626 l 4.234,0.151 2.096,0.091 c 0.355,0.013 0.682,0.041 1.018,0.065 l 0.502,0.037 c 0.188,0.011 0.234,0.031 0.36,0.04 l 0.163,0.014 0.042,0.002 c 0.063,0.015 -0.129,-0.042 -0.176,-0.078 -0.105,-0.062 -0.092,-0.047 -0.3,-0.216 -0.165,-0.151 -0.274,-0.32 -0.366,-0.538 -0.104,-0.215 -0.126,-0.543 -0.101,-0.71 0.009,-0.131 0.043,-0.268 0.096,-0.389 0.056,-0.121 0.049,-0.109 0.083,-0.166 0.018,-0.033 0.066,-0.092 0.071,-0.098 0.011,-0.016 0.031,-0.036 0.042,-0.042 l -0.017,0.023 c -0.099,0.108 -0.371,0.313 -0.621,0.485 -0.524,0.361 -1.12,0.712 -1.711,1.063 -1.192,0.703 -2.428,1.376 -3.672,2.039 l -7.539,3.912 -3.804,1.912 -1.902,0.964 -0.95,0.483 -0.475,0.241 -0.239,0.12 c -0.061,0.037 -0.203,0.09 -0.175,0.104" /></g><g
           transform="translate(429.6904,371.4727)"
           id="g44"><path
             id="path46"
             style="fill:#af3e31;fill-opacity:1;fill-rule:nonzero;stroke:none"
             d="M 0,0 C 0,0 -12.763,11.782 -24.545,10.146 -36.327,8.509 -85.091,-0.654 -90.981,-7.2 c -5.891,-6.545 -11.127,-6.872 -9.164,-15.382 1.963,-8.509 7.2,-16.363 16.691,-19.309 9.491,-2.945 40.255,-4.255 53.346,-3.6 13.09,0.655 30.436,3.273 36.327,15.382 C 12.109,-18 0,0 0,0" /></g><g
           transform="translate(429.8809,371.6357)"
           id="g48"><path
             id="path50"
             style="fill:#231f20;fill-opacity:1;fill-rule:nonzero;stroke:none"
             d="m 0,0 c 1.608,-2.4 2.916,-4.847 4.158,-7.397 1.262,-2.529 2.288,-5.173 3.161,-7.894 0.418,-1.367 0.757,-2.765 1.008,-4.19 0.267,-1.424 0.42,-2.884 0.421,-4.366 0.004,-1.481 -0.137,-2.985 -0.478,-4.475 -0.198,-0.74 -0.401,-1.482 -0.694,-2.2 -0.261,-0.735 -0.652,-1.375 -0.979,-2.071 -1.438,-2.69 -3.482,-5.083 -5.881,-6.956 -2.384,-1.912 -5.078,-3.295 -7.822,-4.415 -1.373,-0.579 -2.768,-1.04 -4.175,-1.48 -1.414,-0.374 -2.829,-0.771 -4.254,-1.054 -2.846,-0.615 -5.708,-1.062 -8.567,-1.368 -5.718,-0.586 -11.459,-0.688 -17.097,-0.544 -5.656,0.13 -11.292,0.408 -16.925,0.829 -5.632,0.42 -11.259,0.948 -16.885,1.85 -2.816,0.453 -5.615,0.966 -8.471,1.87 -2.849,0.897 -5.557,2.313 -7.873,4.187 -2.342,1.84 -4.304,4.109 -5.81,6.612 -1.521,2.498 -2.627,5.197 -3.416,7.961 -0.386,1.381 -0.711,2.784 -0.872,4.264 -0.163,1.457 -0.1,3.057 0.532,4.509 0.625,1.451 1.673,2.603 2.722,3.584 1.06,0.986 2.151,1.862 3.185,2.781 1.032,0.918 2,1.89 2.895,2.918 0.201,0.24 0.505,0.535 0.805,0.82 0.294,0.311 0.612,0.482 0.919,0.725 0.308,0.242 0.628,0.411 0.945,0.607 0.317,0.195 0.633,0.388 0.955,0.551 2.56,1.39 5.212,2.432 7.864,3.452 5.319,1.993 10.719,3.684 16.164,5.163 5.449,1.467 10.945,2.714 16.476,3.775 5.532,1.051 11.109,1.854 16.71,2.51 1.401,0.163 2.805,0.303 4.214,0.438 l 2.118,0.188 2.25,0.038 c 2.986,-0.143 5.815,-0.952 8.456,-2.042 C -11.61,8.05 -9.106,6.708 -6.758,5.134 -4.392,3.566 -2.159,1.921 0,0 m -0.38,-0.326 c -4.133,3.624 -9.065,6.628 -14.299,8.3 -2.62,0.82 -5.351,1.261 -7.986,1.058 l -1.946,-0.263 -2.042,-0.432 -4.09,-0.919 -8.181,-1.872 c -2.725,-0.628 -5.45,-1.252 -8.181,-1.842 L -63.491,0.228 c -5.46,-1.146 -10.922,-2.293 -16.282,-3.741 -2.673,-0.728 -5.326,-1.567 -7.797,-2.66 -0.317,-0.13 -0.613,-0.277 -0.901,-0.437 -0.287,-0.16 -0.598,-0.302 -0.851,-0.486 -0.249,-0.179 -0.569,-0.334 -0.761,-0.534 -0.217,-0.187 -0.437,-0.359 -0.703,-0.643 -0.994,-1.048 -2.091,-1.979 -3.163,-2.915 -1.08,-0.923 -2.192,-1.787 -3.202,-2.694 -1.008,-0.902 -1.902,-1.875 -2.363,-3.03 -0.481,-1.143 -0.533,-2.449 -0.369,-3.759 0.044,-0.653 0.227,-1.315 0.355,-1.972 0.194,-0.656 0.343,-1.325 0.575,-1.968 0.401,-1.307 0.936,-2.564 1.506,-3.795 0.62,-1.208 1.29,-2.388 2.083,-3.475 1.544,-2.204 3.456,-4.111 5.637,-5.591 2.178,-1.489 4.622,-2.524 7.18,-3.107 2.557,-0.574 5.321,-0.9 8.063,-1.173 5.501,-0.538 11.065,-0.884 16.631,-1.11 5.568,-0.214 11.146,-0.333 16.707,-0.325 2.782,0.011 5.554,0.039 8.309,0.105 2.735,0.077 5.49,0.28 8.208,0.522 5.438,0.463 10.822,1.384 15.822,3.1 l 0.942,0.316 0.907,0.376 c 0.597,0.263 1.234,0.469 1.798,0.786 0.58,0.288 1.177,0.557 1.752,0.857 l 1.66,0.992 c 2.131,1.427 4.06,3.134 5.527,5.24 0.742,1.063 1.381,2.149 1.815,3.357 0.433,1.208 0.716,2.491 0.872,3.808 0.329,2.643 0.07,5.402 -0.469,8.099 -1.121,5.4 -3.468,10.633 -6.377,15.303" /></g><g
           transform="translate(439.3184,378.5059)"
           id="g52"><path
             id="path54"
             style="fill:#982f13;fill-opacity:1;fill-rule:nonzero;stroke:none"
             d="m 0,0 c 0,0 -6.545,15.081 -17.182,17.481 -10.217,2.307 -20.345,-0.026 -20.345,-0.026 l -5.237,-3.491 4.582,-3.274 c 0,0 14.346,0.233 18.055,-0.422 3.709,-0.655 14.454,-13.54 14.454,-13.54 z" /></g><g
           transform="translate(439.3184,378.5059)"
           id="g56"><path
             id="path58"
             style="fill:none;stroke:#231f20;stroke-width:2;stroke-linecap:butt;stroke-linejoin:miter;stroke-miterlimit:10;stroke-dasharray:none;stroke-opacity:1"
             d="m 0,0 c 0,0 -6.545,15.081 -17.182,17.481 -10.217,2.307 -20.345,-0.026 -20.345,-0.026 l -5.237,-3.491 4.582,-3.274 c 0,0 14.346,0.233 18.055,-0.422 3.709,-0.655 14.454,-13.54 14.454,-13.54 z" /></g><g
           transform="translate(402.4463,392.6875)"
           id="g60"><path
             id="path62"
             style="fill:#982f13;fill-opacity:1;fill-rule:nonzero;stroke:none"
             d="m 0,0 c 0,0 -3.491,4.364 -8.291,3.055 -4.8,-1.31 -21.601,-8.054 -23.563,-9.372 -1.964,-1.319 -6.764,-4.81 -6.764,-4.81 0,0 19.854,5.018 22.472,5.891 2.619,0.873 11.723,1.445 13.826,2.467 C -0.219,-1.745 0,0 0,0" /></g><g
           transform="translate(402.4463,392.6875)"
           id="g64"><path
             id="path66"
             style="fill:none;stroke:#231f20;stroke-width:2;stroke-linecap:butt;stroke-linejoin:miter;stroke-miterlimit:10;stroke-dasharray:none;stroke-opacity:1"
             d="m 0,0 c 0,0 -3.491,4.364 -8.291,3.055 -4.8,-1.31 -21.601,-8.054 -23.563,-9.372 -1.964,-1.319 -6.764,-4.81 -6.764,-4.81 0,0 19.854,5.018 22.472,5.891 2.619,0.873 11.723,1.445 13.826,2.467 C -0.219,-1.745 0,0 0,0 Z" /></g><g
           transform="translate(446.2656,391.3789)"
           id="g68"><path
             id="path70"
             style="fill:#982f13;fill-opacity:1;fill-rule:nonzero;stroke:none"
             d="m 0,0 c 0,0 -6.545,15.08 -17.182,17.481 -10.217,2.306 -20.345,-0.027 -20.345,-0.027 l -5.237,-3.491 4.582,-3.273 c 0,0 14.346,0.232 18.055,-0.422 3.709,-0.655 14.454,-13.541 14.454,-13.541 z" /></g><g
           transform="translate(446.2656,391.3789)"
           id="g72"><path
             id="path74"
             style="fill:none;stroke:#231f20;stroke-width:2;stroke-linecap:butt;stroke-linejoin:miter;stroke-miterlimit:10;stroke-dasharray:none;stroke-opacity:1"
             d="m 0,0 c 0,0 -6.545,15.08 -17.182,17.481 -10.217,2.306 -20.345,-0.027 -20.345,-0.027 l -5.237,-3.491 4.582,-3.273 c 0,0 14.346,0.232 18.055,-0.422 3.709,-0.655 14.454,-13.541 14.454,-13.541 z" /></g><g
           transform="translate(409.3926,405.5605)"
           id="g76"><path
             id="path78"
             style="fill:#982f13;fill-opacity:1;fill-rule:nonzero;stroke:none"
             d="m 0,0 c 0,0 -3.49,4.363 -8.291,3.054 -4.8,-1.309 -21.6,-8.054 -23.563,-9.372 -1.963,-1.319 -6.764,-4.81 -6.764,-4.81 0,0 19.854,5.019 22.472,5.892 2.619,0.872 11.724,1.444 13.826,2.467 C -0.218,-1.746 0,0 0,0" /></g><g
           transform="translate(409.3926,405.5605)"
           id="g80"><path
             id="path82"
             style="fill:none;stroke:#231f20;stroke-width:2;stroke-linecap:butt;stroke-linejoin:miter;stroke-miterlimit:10;stroke-dasharray:none;stroke-opacity:1"
             d="m 0,0 c 0,0 -3.49,4.363 -8.291,3.054 -4.8,-1.309 -21.6,-8.054 -23.563,-9.372 -1.963,-1.319 -6.764,-4.81 -6.764,-4.81 0,0 19.854,5.019 22.472,5.892 2.619,0.872 11.724,1.444 13.826,2.467 C -0.218,-1.746 0,0 0,0 Z" /></g><g
           transform="translate(455.1396,407.4106)"
           id="g84"><path
             id="path86"
             style="fill:#982f13;fill-opacity:1;fill-rule:nonzero;stroke:none"
             d="m 0,0 c 0,0 -7.58,14.588 -18.357,16.243 -10.354,1.589 -20.294,-1.444 -20.294,-1.444 l -4.981,-3.847 4.798,-2.946 c 0,0 14.295,1.23 18.04,0.835 C -17.048,8.447 -5.431,-3.66 -5.431,-3.66 Z" /></g><g
           transform="translate(455.1396,407.4106)"
           id="g88"><path
             id="path90"
             style="fill:none;stroke:#231f20;stroke-width:2;stroke-linecap:butt;stroke-linejoin:miter;stroke-miterlimit:10;stroke-dasharray:none;stroke-opacity:1"
             d="m 0,0 c 0,0 -7.58,14.588 -18.357,16.243 -10.354,1.589 -20.294,-1.444 -20.294,-1.444 l -4.981,-3.847 4.798,-2.946 c 0,0 14.295,1.23 18.04,0.835 C -17.048,8.447 -5.431,-3.66 -5.431,-3.66 Z" /></g><g
           transform="translate(417.8457,416.7773)"
           id="g92"><path
             id="path94"
             style="fill:#982f13;fill-opacity:1;fill-rule:nonzero;stroke:none"
             d="m 0,0 c 0,0 -3.29,4.517 -8.145,3.427 -4.854,-1.091 -21.942,-7.069 -23.962,-8.297 -2.022,-1.229 -6.975,-4.499 -6.975,-4.499 0,0 20.061,4.115 22.716,4.869 2.655,0.753 11.776,0.913 13.923,1.839 C -0.297,-1.734 0,0 0,0" /></g><g
           transform="translate(417.8457,416.7773)"
           id="g96"><path
             id="path98"
             style="fill:none;stroke:#231f20;stroke-width:2;stroke-linecap:butt;stroke-linejoin:miter;stroke-miterlimit:10;stroke-dasharray:none;stroke-opacity:1"
             d="m 0,0 c 0,0 -3.29,4.517 -8.145,3.427 -4.854,-1.091 -21.942,-7.069 -23.962,-8.297 -2.022,-1.229 -6.975,-4.499 -6.975,-4.499 0,0 20.061,4.115 22.716,4.869 2.655,0.753 11.776,0.913 13.923,1.839 C -0.297,-1.734 0,0 0,0 Z" /></g><g
           transform="translate(448.7285,431.0889)"
           id="g100"><path
             id="path102"
             style="fill:#982f13;fill-opacity:1;fill-rule:nonzero;stroke:none"
             d="M 0,0 C 0,0 -11.01,4.293 -21.911,4.531 -32.384,4.759 -41.845,0.458 -41.845,0.458 l -4.437,-4.463 5.14,-2.296 c 0,0 14.013,3.08 17.779,3.177 3.764,0.096 20.237,-3.373 20.237,-3.373 z" /></g><g
           transform="translate(448.7285,431.0889)"
           id="g104"><path
             id="path106"
             style="fill:none;stroke:#231f20;stroke-width:2;stroke-linecap:butt;stroke-linejoin:miter;stroke-miterlimit:10;stroke-dasharray:none;stroke-opacity:1"
             d="M 0,0 C 0,0 -11.01,4.293 -21.911,4.531 -32.384,4.759 -41.845,0.458 -41.845,0.458 l -4.437,-4.463 5.14,-2.296 c 0,0 14.013,3.08 17.779,3.177 3.764,0.096 20.237,-3.373 20.237,-3.373 z" /></g><g
           transform="translate(411.3115,426.978)"
           id="g108"><path
             id="path110"
             style="fill:#982f13;fill-opacity:1;fill-rule:nonzero;stroke:none"
             d="m 0,0 c 0,0 -3.628,4.25 -8.385,2.789 -4.756,-1.461 -21.332,-8.737 -23.253,-10.118 -1.921,-1.38 -6.607,-5.022 -6.607,-5.022 0,0 19.685,5.647 22.274,6.603 2.589,0.956 11.671,1.817 13.74,2.907 C -0.163,-1.751 0,0 0,0" /></g><g
           transform="translate(411.3115,426.978)"
           id="g112"><path
             id="path114"
             style="fill:none;stroke:#231f20;stroke-width:2;stroke-linecap:butt;stroke-linejoin:miter;stroke-miterlimit:10;stroke-dasharray:none;stroke-opacity:1"
             d="m 0,0 c 0,0 -3.628,4.25 -8.385,2.789 -4.756,-1.461 -21.332,-8.737 -23.253,-10.118 -1.921,-1.38 -6.607,-5.022 -6.607,-5.022 0,0 19.685,5.647 22.274,6.603 2.589,0.956 11.671,1.817 13.74,2.907 C -0.163,-1.751 0,0 0,0 Z" /></g><g
           transform="translate(429.7734,448.0771)"
           id="g116"><path
             id="path118"
             style="fill:#982f13;fill-opacity:1;fill-rule:nonzero;stroke:none"
             d="m 0,0 c 0,0 -10.51,-2.362 -21.413,-2.233 -10.475,0.124 -19.893,-4.271 -19.893,-4.271 l -4.392,-4.507 5.164,-2.244 c 0,0 13.981,3.219 17.745,3.353 3.765,0.133 21.827,2.358 21.827,2.358 z" /></g><g
           transform="translate(429.7734,448.0771)"
           id="g120"><path
             id="path122"
             style="fill:none;stroke:#231f20;stroke-width:2;stroke-linecap:butt;stroke-linejoin:miter;stroke-miterlimit:10;stroke-dasharray:none;stroke-opacity:1"
             d="m 0,0 c 0,0 -10.51,-2.362 -21.413,-2.233 -10.475,0.124 -19.893,-4.271 -19.893,-4.271 l -4.392,-4.507 5.164,-2.244 c 0,0 13.981,3.219 17.745,3.353 3.765,0.133 21.827,2.358 21.827,2.358 z" /></g><g
           transform="translate(389.457,439.2231)"
           id="g124"><path
             id="path126"
             style="fill:#982f13;fill-opacity:1;fill-rule:nonzero;stroke:none"
             d="m 0,0 c 0,0 -4.852,1.032 -9.272,-1.25 -4.422,-2.282 -12.11,-7.471 -14.237,-8.982 -1.928,-1.369 -6.382,-5.145 -6.382,-5.145 0,0 13.003,4.551 15.382,5.95 2.378,1.4 10.975,4.796 12.817,6.235 C 0.15,-1.753 0,0 0,0" /></g><g
           transform="translate(389.457,439.2231)"
           id="g128"><path
             id="path130"
             style="fill:none;stroke:#231f20;stroke-width:2;stroke-linecap:butt;stroke-linejoin:miter;stroke-miterlimit:10;stroke-dasharray:none;stroke-opacity:1"
             d="m 0,0 c 0,0 -4.852,1.032 -9.272,-1.25 -4.422,-2.282 -12.11,-7.471 -14.237,-8.982 -1.928,-1.369 -6.382,-5.145 -6.382,-5.145 0,0 13.003,4.551 15.382,5.95 2.378,1.4 10.975,4.796 12.817,6.235 C 0.15,-1.753 0,0 0,0 Z" /></g><g
           transform="translate(428.8262,380.2832)"
           id="g132"><path
             id="path134"
             style="fill:#da4727;fill-opacity:1;fill-rule:nonzero;stroke:none"
             d="M 0,0 C 0,0 -6.546,15.081 -17.182,17.481 -27.4,19.788 -37.527,17.455 -37.527,17.455 l -5.237,-3.491 4.582,-3.274 c 0,0 14.345,0.232 18.054,-0.422 3.71,-0.655 14.455,-13.54 14.455,-13.54 z" /></g><g
           transform="translate(428.8262,380.2832)"
           id="g136"><path
             id="path138"
             style="fill:none;stroke:#231f20;stroke-width:2;stroke-linecap:butt;stroke-linejoin:miter;stroke-miterlimit:10;stroke-dasharray:none;stroke-opacity:1"
             d="M 0,0 C 0,0 -6.546,15.081 -17.182,17.481 -27.4,19.788 -37.527,17.455 -37.527,17.455 l -5.237,-3.491 4.582,-3.274 c 0,0 14.345,0.232 18.054,-0.422 3.71,-0.655 14.455,-13.54 14.455,-13.54 z" /></g><g
           transform="translate(391.9531,394.4648)"
           id="g140"><path
             id="path142"
             style="fill:#da4727;fill-opacity:1;fill-rule:nonzero;stroke:none"
             d="m 0,0 c 0,0 -3.491,4.364 -8.291,3.055 -4.8,-1.309 -21.6,-8.054 -23.563,-9.372 -1.964,-1.32 -6.764,-4.81 -6.764,-4.81 0,0 19.854,5.018 22.472,5.891 2.619,0.873 11.723,1.444 13.826,2.467 C -0.218,-1.745 0,0 0,0" /></g><g
           transform="translate(391.9531,394.4648)"
           id="g144"><path
             id="path146"
             style="fill:none;stroke:#231f20;stroke-width:2;stroke-linecap:butt;stroke-linejoin:miter;stroke-miterlimit:10;stroke-dasharray:none;stroke-opacity:1"
             d="m 0,0 c 0,0 -3.491,4.364 -8.291,3.055 -4.8,-1.309 -21.6,-8.054 -23.563,-9.372 -1.964,-1.32 -6.764,-4.81 -6.764,-4.81 0,0 19.854,5.018 22.472,5.891 2.619,0.873 11.723,1.444 13.826,2.467 C -0.218,-1.745 0,0 0,0 Z" /></g><g
           transform="translate(435.7725,393.1553)"
           id="g148"><path
             id="path150"
             style="fill:#da4727;fill-opacity:1;fill-rule:nonzero;stroke:none"
             d="m 0,0 c 0,0 -6.545,15.081 -17.182,17.482 -10.217,2.306 -20.344,-0.027 -20.344,-0.027 l -5.237,-3.491 4.581,-3.273 c 0,0 14.346,0.232 18.055,-0.422 3.709,-0.655 14.455,-13.541 14.455,-13.541 z" /></g><g
           transform="translate(435.7725,393.1553)"
           id="g152"><path
             id="path154"
             style="fill:none;stroke:#231f20;stroke-width:2;stroke-linecap:butt;stroke-linejoin:miter;stroke-miterlimit:10;stroke-dasharray:none;stroke-opacity:1"
             d="m 0,0 c 0,0 -6.545,15.081 -17.182,17.482 -10.217,2.306 -20.344,-0.027 -20.344,-0.027 l -5.237,-3.491 4.581,-3.273 c 0,0 14.346,0.232 18.055,-0.422 3.709,-0.655 14.455,-13.541 14.455,-13.541 z" /></g><g
           transform="translate(398.9004,407.3374)"
           id="g156"><path
             id="path158"
             style="fill:#da4727;fill-opacity:1;fill-rule:nonzero;stroke:none"
             d="m 0,0 c 0,0 -3.491,4.364 -8.291,3.055 -4.8,-1.309 -21.6,-8.054 -23.563,-9.373 -1.964,-1.318 -6.764,-4.809 -6.764,-4.809 0,0 19.854,5.018 22.472,5.891 2.619,0.873 11.723,1.444 13.826,2.467 C -0.219,-1.745 0,0 0,0" /></g><g
           transform="translate(398.9004,407.3374)"
           id="g160"><path
             id="path162"
             style="fill:none;stroke:#231f20;stroke-width:2;stroke-linecap:butt;stroke-linejoin:miter;stroke-miterlimit:10;stroke-dasharray:none;stroke-opacity:1"
             d="m 0,0 c 0,0 -3.491,4.364 -8.291,3.055 -4.8,-1.309 -21.6,-8.054 -23.563,-9.373 -1.964,-1.318 -6.764,-4.809 -6.764,-4.809 0,0 19.854,5.018 22.472,5.891 2.619,0.873 11.723,1.444 13.826,2.467 C -0.219,-1.745 0,0 0,0 Z" /></g><g
           transform="translate(444.6465,409.188)"
           id="g164"><path
             id="path166"
             style="fill:#da4727;fill-opacity:1;fill-rule:nonzero;stroke:none"
             d="m 0,0 c 0,0 -7.579,14.588 -18.357,16.242 -10.354,1.59 -20.294,-1.444 -20.294,-1.444 l -4.981,-3.846 4.799,-2.946 c 0,0 14.294,1.23 18.04,0.835 C -17.048,8.447 -5.431,-3.66 -5.431,-3.66 Z" /></g><g
           transform="translate(444.6465,409.188)"
           id="g168"><path
             id="path170"
             style="fill:none;stroke:#231f20;stroke-width:2;stroke-linecap:butt;stroke-linejoin:miter;stroke-miterlimit:10;stroke-dasharray:none;stroke-opacity:1"
             d="m 0,0 c 0,0 -7.579,14.588 -18.357,16.242 -10.354,1.59 -20.294,-1.444 -20.294,-1.444 l -4.981,-3.846 4.799,-2.946 c 0,0 14.294,1.23 18.04,0.835 C -17.048,8.447 -5.431,-3.66 -5.431,-3.66 Z" /></g><g
           transform="translate(407.3525,418.5547)"
           id="g172"><path
             id="path174"
             style="fill:#da4727;fill-opacity:1;fill-rule:nonzero;stroke:none"
             d="m 0,0 c 0,0 -3.29,4.517 -8.144,3.426 -4.854,-1.09 -21.942,-7.068 -23.963,-8.296 -2.022,-1.229 -6.975,-4.499 -6.975,-4.499 0,0 20.061,4.115 22.717,4.869 2.654,0.753 11.776,0.912 13.922,1.839 C -0.297,-1.734 0,0 0,0" /></g><g
           transform="translate(407.3525,418.5547)"
           id="g176"><path
             id="path178"
             style="fill:none;stroke:#231f20;stroke-width:2;stroke-linecap:butt;stroke-linejoin:miter;stroke-miterlimit:10;stroke-dasharray:none;stroke-opacity:1"
             d="m 0,0 c 0,0 -3.29,4.517 -8.144,3.426 -4.854,-1.09 -21.942,-7.068 -23.963,-8.296 -2.022,-1.229 -6.975,-4.499 -6.975,-4.499 0,0 20.061,4.115 22.717,4.869 2.654,0.753 11.776,0.912 13.922,1.839 C -0.297,-1.734 0,0 0,0 Z" /></g><g
           transform="translate(438.2354,432.8662)"
           id="g180"><path
             id="path182"
             style="fill:#da4727;fill-opacity:1;fill-rule:nonzero;stroke:none"
             d="M 0,0 C 0,0 -11.01,4.293 -21.911,4.531 -32.384,4.759 -41.845,0.458 -41.845,0.458 l -4.437,-4.463 5.141,-2.296 c 0,0 14.013,3.08 17.778,3.176 3.765,0.097 20.238,-3.372 20.238,-3.372 z" /></g><g
           transform="translate(438.2354,432.8662)"
           id="g184"><path
             id="path186"
             style="fill:none;stroke:#231f20;stroke-width:2;stroke-linecap:butt;stroke-linejoin:miter;stroke-miterlimit:10;stroke-dasharray:none;stroke-opacity:1"
             d="M 0,0 C 0,0 -11.01,4.293 -21.911,4.531 -32.384,4.759 -41.845,0.458 -41.845,0.458 l -4.437,-4.463 5.141,-2.296 c 0,0 14.013,3.08 17.778,3.176 3.765,0.097 20.238,-3.372 20.238,-3.372 z" /></g><g
           transform="translate(400.8184,428.7554)"
           id="g188"><path
             id="path190"
             style="fill:#da4727;fill-opacity:1;fill-rule:nonzero;stroke:none"
             d="m 0,0 c 0,0 -3.628,4.25 -8.384,2.789 -4.756,-1.461 -21.333,-8.738 -23.253,-10.118 -1.921,-1.38 -6.607,-5.023 -6.607,-5.023 0,0 19.684,5.648 22.273,6.604 2.59,0.956 11.671,1.817 13.741,2.907 C -0.162,-1.752 0,0 0,0" /></g><g
           transform="translate(400.8184,428.7554)"
           id="g192"><path
             id="path194"
             style="fill:none;stroke:#231f20;stroke-width:2;stroke-linecap:butt;stroke-linejoin:miter;stroke-miterlimit:10;stroke-dasharray:none;stroke-opacity:1"
             d="m 0,0 c 0,0 -3.628,4.25 -8.384,2.789 -4.756,-1.461 -21.333,-8.738 -23.253,-10.118 -1.921,-1.38 -6.607,-5.023 -6.607,-5.023 0,0 19.684,5.648 22.273,6.604 2.59,0.956 11.671,1.817 13.741,2.907 C -0.162,-1.752 0,0 0,0 Z" /></g><g
           transform="translate(419.2803,449.8545)"
           id="g196"><path
             id="path198"
             style="fill:#da4727;fill-opacity:1;fill-rule:nonzero;stroke:none"
             d="m 0,0 c 0,0 -10.51,-2.362 -21.413,-2.233 -10.474,0.124 -19.892,-4.271 -19.892,-4.271 l -4.392,-4.507 5.163,-2.245 c 0,0 13.981,3.22 17.746,3.354 3.764,0.133 21.826,2.358 21.826,2.358 z" /></g><g
           transform="translate(419.2803,449.8545)"
           id="g200"><path
             id="path202"
             style="fill:none;stroke:#231f20;stroke-width:2;stroke-linecap:butt;stroke-linejoin:miter;stroke-miterlimit:10;stroke-dasharray:none;stroke-opacity:1"
             d="m 0,0 c 0,0 -10.51,-2.362 -21.413,-2.233 -10.474,0.124 -19.892,-4.271 -19.892,-4.271 l -4.392,-4.507 5.163,-2.245 c 0,0 13.981,3.22 17.746,3.354 3.764,0.133 21.826,2.358 21.826,2.358 z" /></g><g
           transform="translate(378.9639,441)"
           id="g204"><path
             id="path206"
             style="fill:#da4727;fill-opacity:1;fill-rule:nonzero;stroke:none"
             d="m 0,0 c 0,0 -4.852,1.032 -9.272,-1.25 -4.421,-2.282 -12.11,-7.471 -14.237,-8.981 -1.928,-1.37 -6.382,-5.146 -6.382,-5.146 0,0 13.003,4.551 15.382,5.951 2.379,1.4 10.975,4.795 12.818,6.235 C 0.15,-1.752 0,0 0,0" /></g><g
           transform="translate(378.9639,441)"
           id="g208"><path
             id="path210"
             style="fill:none;stroke:#231f20;stroke-width:2;stroke-linecap:butt;stroke-linejoin:miter;stroke-miterlimit:10;stroke-dasharray:none;stroke-opacity:1"
             d="m 0,0 c 0,0 -4.852,1.032 -9.272,-1.25 -4.421,-2.282 -12.11,-7.471 -14.237,-8.981 -1.928,-1.37 -6.382,-5.146 -6.382,-5.146 0,0 13.003,4.551 15.382,5.951 2.379,1.4 10.975,4.795 12.818,6.235 C 0.15,-1.752 0,0 0,0 Z" /></g><g
           transform="translate(243.1289,415.8008)"
           id="g212"><path
             id="path214"
             style="fill:#962e12;fill-opacity:1;fill-rule:nonzero;stroke:none"
             d="m 0,0 c 0,0 -2.539,-10.964 -3.714,-12.902 -1.175,-1.939 -3.082,-0.457 -3.082,-0.457 0,0 -1.536,4.403 -0.897,6.043 0.64,1.638 3.717,7.661 3.717,7.661 z" /></g><g
           transform="translate(243.1289,415.8008)"
           id="g216"><path
             id="path218"
             style="fill:none;stroke:#231f20;stroke-width:2;stroke-linecap:butt;stroke-linejoin:miter;stroke-miterlimit:10;stroke-dasharray:none;stroke-opacity:1"
             d="m 0,0 c 0,0 -2.539,-10.964 -3.714,-12.902 -1.175,-1.939 -3.082,-0.457 -3.082,-0.457 0,0 -1.536,4.403 -0.897,6.043 0.64,1.638 3.717,7.661 3.717,7.661 z" /></g><g
           transform="translate(248.813,449.4595)"
           id="g220"><path
             id="path222"
             style="fill:#962e12;fill-opacity:1;fill-rule:nonzero;stroke:none"
             d="m 0,0 c 0,0 3.454,-8.354 1.282,-14.737 -2.173,-6.384 -4.816,-15.967 -6.398,-17.54 -1.582,-1.573 -4.172,-3.179 -4.172,-3.179 0,0 -2.041,2.109 -1.178,6.465 0.442,2.232 3.547,9.451 4.612,16.088 0.832,5.175 3.396,12.469 3.396,12.469 z" /></g><g
           transform="translate(248.813,449.4595)"
           id="g224"><path
             id="path226"
             style="fill:none;stroke:#231f20;stroke-width:2;stroke-linecap:butt;stroke-linejoin:miter;stroke-miterlimit:10;stroke-dasharray:none;stroke-opacity:1"
             d="m 0,0 c 0,0 3.454,-8.354 1.282,-14.737 -2.173,-6.384 -4.816,-15.967 -6.398,-17.54 -1.582,-1.573 -4.172,-3.179 -4.172,-3.179 0,0 -2.041,2.109 -1.178,6.465 0.442,2.232 3.547,9.451 4.612,16.088 0.832,5.175 3.396,12.469 3.396,12.469 z" /></g><g
           transform="translate(293.1377,464.5322)"
           id="g228"><path
             id="path230"
             style="fill:#962e12;fill-opacity:1;fill-rule:nonzero;stroke:none"
             d="m 0,0 c -6.44,-0.437 -40.601,-8.006 -44.452,-10.583 -3.851,-2.577 -3.158,-6.313 -3.158,-6.313 -0.202,-0.174 3.385,-2.403 9.853,-0.788 4.12,1.029 43.977,13.475 45.88,14.352 C 10.025,-2.454 0,0 0,0" /></g><g
           transform="translate(293.1377,464.5322)"
           id="g232"><path
             id="path234"
             style="fill:none;stroke:#231f20;stroke-width:2;stroke-linecap:butt;stroke-linejoin:miter;stroke-miterlimit:10;stroke-dasharray:none;stroke-opacity:1"
             d="m 0,0 c -6.44,-0.437 -40.601,-8.006 -44.452,-10.583 -3.851,-2.577 -3.158,-6.313 -3.158,-6.313 -0.202,-0.174 3.385,-2.403 9.853,-0.788 4.12,1.029 43.977,13.475 45.88,14.352 C 10.025,-2.454 0,0 0,0 Z" /></g><g
           transform="translate(254.4307,401.2056)"
           id="g236"><path
             id="path238"
             style="fill:#962e12;fill-opacity:1;fill-rule:nonzero;stroke:none"
             d="m 0,0 c 0,0 4.593,-8.371 4.843,-10.624 0.25,-2.253 -2.76,-2.699 -2.76,-2.699 0,0 -3.232,1.145 -3.724,2.834 -0.492,1.689 -1.721,8.34 -1.721,8.34 z" /></g><g
           transform="translate(254.4307,401.2056)"
           id="g240"><path
             id="path242"
             style="fill:none;stroke:#231f20;stroke-width:2;stroke-linecap:butt;stroke-linejoin:miter;stroke-miterlimit:10;stroke-dasharray:none;stroke-opacity:1"
             d="m 0,0 c 0,0 4.593,-8.371 4.843,-10.624 0.25,-2.253 -2.76,-2.699 -2.76,-2.699 0,0 -3.232,1.145 -3.724,2.834 -0.492,1.689 -1.721,8.34 -1.721,8.34 z" /></g><g
           transform="translate(270.4766,442.7236)"
           id="g244"><path
             id="path246"
             style="fill:#962e12;fill-opacity:1;fill-rule:nonzero;stroke:none"
             d="m 0,0 c 0,0 -1.663,-10.32 -3.726,-18.947 -2.136,-8.932 -7.734,-20.534 -9.851,-22.666 -2.116,-2.132 -5.34,-4.384 -5.34,-4.384 0,0 -4.503,5.28 0.314,8.164 1.864,1.116 7.013,11.203 9.019,20.901 1.386,6.699 6.794,16.187 6.794,16.187 z" /></g><g
           transform="translate(270.4766,442.7236)"
           id="g248"><path
             id="path250"
             style="fill:none;stroke:#231f20;stroke-width:2;stroke-linecap:butt;stroke-linejoin:miter;stroke-miterlimit:10;stroke-dasharray:none;stroke-opacity:1"
             d="m 0,0 c 0,0 -1.663,-10.32 -3.726,-18.947 -2.136,-8.932 -7.734,-20.534 -9.851,-22.666 -2.116,-2.132 -5.34,-4.384 -5.34,-4.384 0,0 -4.503,5.28 0.314,8.164 1.864,1.116 7.013,11.203 9.019,20.901 1.386,6.699 6.794,16.187 6.794,16.187 z" /></g><g
           transform="translate(309.6172,459.1904)"
           id="g252"><path
             id="path254"
             style="fill:#962e12;fill-opacity:1;fill-rule:nonzero;stroke:none"
             d="m 0,0 c -6.439,-0.455 -35.773,-9.83 -39.617,-12.417 -3.844,-2.588 -2.69,-4.097 -2.69,-4.097 0,0 -1.381,-0.98 2.856,-1.278 4.237,-0.299 28.988,10.492 30.889,11.375 C -6.662,-5.535 0,0 0,0" /></g><g
           transform="translate(309.6172,459.1904)"
           id="g256"><path
             id="path258"
             style="fill:none;stroke:#231f20;stroke-width:2;stroke-linecap:butt;stroke-linejoin:miter;stroke-miterlimit:10;stroke-dasharray:none;stroke-opacity:1"
             d="m 0,0 c -6.439,-0.455 -35.773,-9.83 -39.617,-12.417 -3.844,-2.588 -2.69,-4.097 -2.69,-4.097 0,0 -1.381,-0.98 2.856,-1.278 4.237,-0.299 28.988,10.492 30.889,11.375 C -6.662,-5.535 0,0 0,0 Z" /></g><g
           transform="translate(284.917,414.04)"
           id="g260"><path
             id="path262"
             style="fill:#962e12;fill-opacity:1;fill-rule:nonzero;stroke:none"
             d="m 0,0 c 0,0 8.747,-2.408 10.492,-3.855 1.746,-1.446 1.726,-4.828 1.726,-4.828 0,0 -4.582,-0.872 -6.109,0 -1.527,0.873 -7.033,4.801 -7.033,4.801 z" /></g><g
           transform="translate(284.917,414.04)"
           id="g264"><path
             id="path266"
             style="fill:none;stroke:#231f20;stroke-width:2;stroke-linecap:butt;stroke-linejoin:miter;stroke-miterlimit:10;stroke-dasharray:none;stroke-opacity:1"
             d="m 0,0 c 0,0 8.747,-2.408 10.492,-3.855 1.746,-1.446 1.726,-4.828 1.726,-4.828 0,0 -4.582,-0.872 -6.109,0 -1.527,0.873 -7.033,4.801 -7.033,4.801 z" /></g><g
           transform="translate(280.6943,447.6611)"
           id="g268"><path
             id="path270"
             style="fill:#962e12;fill-opacity:1;fill-rule:nonzero;stroke:none"
             d="m 0,0 c 0,0 2.945,-7.46 5.856,-13.932 2.879,-6.4 3.273,-17.035 2.619,-19.256 -0.655,-2.222 -2.182,-4.968 -2.182,-4.968 0,0 -2.794,0.935 -4.085,5.362 -0.662,2.268 -3.273,11.591 -3.51,17.046 -0.236,5.455 -2.878,13.124 -2.878,13.124 z" /></g><g
           transform="translate(280.6943,447.6611)"
           id="g272"><path
             id="path274"
             style="fill:none;stroke:#231f20;stroke-width:2;stroke-linecap:butt;stroke-linejoin:miter;stroke-miterlimit:10;stroke-dasharray:none;stroke-opacity:1"
             d="m 0,0 c 0,0 2.945,-7.46 5.856,-13.932 2.879,-6.4 3.273,-17.035 2.619,-19.256 -0.655,-2.222 -2.182,-4.968 -2.182,-4.968 0,0 -2.794,0.935 -4.085,5.362 -0.662,2.268 -3.273,11.591 -3.51,17.046 -0.236,5.455 -2.878,13.124 -2.878,13.124 z" /></g><g
           transform="translate(328.4229,456.0513)"
           id="g276"><path
             id="path278"
             style="fill:#962e12;fill-opacity:1;fill-rule:nonzero;stroke:none"
             d="m 0,0 c -5.14,-0.253 -44.953,-6.065 -50.554,-7.865 -5.601,-1.8 -2.355,-3.734 -2.355,-3.734 0,0 3.544,-0.391 6.272,-0.651 2.728,-0.258 30.372,5.658 32.708,6.266 C -11.593,-5.377 0,0 0,0" /></g><g
           transform="translate(328.4229,456.0513)"
           id="g280"><path
             id="path282"
             style="fill:none;stroke:#231f20;stroke-width:2;stroke-linecap:butt;stroke-linejoin:miter;stroke-miterlimit:10;stroke-dasharray:none;stroke-opacity:1"
             d="m 0,0 c -5.14,-0.253 -44.953,-6.065 -50.554,-7.865 -5.601,-1.8 -2.355,-3.734 -2.355,-3.734 0,0 3.544,-0.391 6.272,-0.651 2.728,-0.258 30.372,5.658 32.708,6.266 C -11.593,-5.377 0,0 0,0 Z" /></g><g
           transform="translate(302.6162,400.9971)"
           id="g284"><path
             id="path286"
             style="fill:#962e12;fill-opacity:1;fill-rule:nonzero;stroke:none"
             d="m 0,0 c 0,0 8.07,-9.03 9.28,-11.602 1.21,-2.571 0,-5.206 0,-5.206 0,0 -5.801,2.888 -7.081,4.814 -1.28,1.925 -5.453,9.512 -5.453,9.512 z" /></g><g
           transform="translate(302.6162,400.9971)"
           id="g288"><path
             id="path290"
             style="fill:none;stroke:#231f20;stroke-width:2;stroke-linecap:butt;stroke-linejoin:miter;stroke-miterlimit:10;stroke-dasharray:none;stroke-opacity:1"
             d="m 0,0 c 0,0 8.07,-9.03 9.28,-11.602 1.21,-2.571 0,-5.206 0,-5.206 0,0 -5.801,2.888 -7.081,4.814 -1.28,1.925 -5.453,9.512 -5.453,9.512 z" /></g><g
           transform="translate(305.4839,442.9863)"
           id="g292"><path
             id="path294"
             style="fill:#962e12;fill-opacity:1;fill-rule:nonzero;stroke:none"
             d="m 0,0 c 0,0 4.488,-8.961 3.015,-17.236 -1.473,-8.275 -3.057,-20.513 -4.486,-22.862 -1.43,-2.349 -3.882,-5.037 -3.882,-5.037 0,0 -2.325,1.916 -1.951,7.379 0.192,2.799 1.083,14.273 2.835,20.597 1.753,6.324 2.015,15.912 2.015,15.912 z" /></g><g
           transform="translate(305.4839,442.9863)"
           id="g296"><path
             id="path298"
             style="fill:none;stroke:#231f20;stroke-width:2;stroke-linecap:butt;stroke-linejoin:miter;stroke-miterlimit:10;stroke-dasharray:none;stroke-opacity:1"
             d="m 0,0 c 0,0 4.488,-8.961 3.015,-17.236 -1.473,-8.275 -3.057,-20.513 -4.486,-22.862 -1.43,-2.349 -3.882,-5.037 -3.882,-5.037 0,0 -2.325,1.916 -1.951,7.379 0.192,2.799 1.083,14.273 2.835,20.597 1.753,6.324 2.015,15.912 2.015,15.912 z" /></g><g
           transform="translate(343.957,463.1069)"
           id="g300"><path
             id="path302"
             style="fill:#962e12;fill-opacity:1;fill-rule:nonzero;stroke:none"
             d="m 0,0 c -6.211,-1.759 -38.069,-16.223 -41.305,-19.54 -3.235,-3.317 -1.785,-6.829 -1.785,-6.829 0,0 0.632,-2.767 9.802,1.265 3.889,1.709 27.059,14.217 28.739,15.469 C -2.868,-8.383 0,0 0,0" /></g><g
           transform="translate(343.957,463.1069)"
           id="g304"><path
             id="path306"
             style="fill:none;stroke:#231f20;stroke-width:2;stroke-linecap:butt;stroke-linejoin:miter;stroke-miterlimit:10;stroke-dasharray:none;stroke-opacity:1"
             d="m 0,0 c -6.211,-1.759 -38.069,-16.223 -41.305,-19.54 -3.235,-3.317 -1.785,-6.829 -1.785,-6.829 0,0 0.632,-2.767 9.802,1.265 3.889,1.709 27.059,14.217 28.739,15.469 C -2.868,-8.383 0,0 0,0 Z" /></g><g
           transform="translate(325.0898,402.5952)"
           id="g308"><path
             id="path310"
             style="fill:#962e12;fill-opacity:1;fill-rule:nonzero;stroke:none"
             d="m 0,0 c 0,0 5.891,-1.208 7.637,-2.655 1.745,-1.446 4.581,-6.028 4.581,-6.028 0,0 -4.581,-0.873 -6.109,0 -1.527,0.873 -7.034,4.801 -7.034,4.801 z" /></g><g
           transform="translate(325.0898,402.5952)"
           id="g312"><path
             id="path314"
             style="fill:none;stroke:#231f20;stroke-width:2;stroke-linecap:butt;stroke-linejoin:miter;stroke-miterlimit:10;stroke-dasharray:none;stroke-opacity:1"
             d="m 0,0 c 0,0 5.891,-1.208 7.637,-2.655 1.745,-1.446 4.581,-6.028 4.581,-6.028 0,0 -4.581,-0.873 -6.109,0 -1.527,0.873 -7.034,4.801 -7.034,4.801 z" /></g><g
           transform="translate(315.877,433.9712)"
           id="g316"><path
             id="path318"
             style="fill:#962e12;fill-opacity:1;fill-rule:nonzero;stroke:none"
             d="m 0,0 c 0,0 6.981,-5.742 8.072,-12.396 1.091,-6.655 3.273,-16.353 2.618,-18.485 -0.654,-2.133 -2.181,-4.769 -2.181,-4.769 0,0 -2.795,0.898 -4.086,5.147 -0.661,2.177 -3.273,11.127 -3.509,16.364 -0.236,5.236 -2.878,12.599 -2.878,12.599 z" /></g><g
           transform="translate(315.877,433.9712)"
           id="g320"><path
             id="path322"
             style="fill:none;stroke:#231f20;stroke-width:2;stroke-linecap:butt;stroke-linejoin:miter;stroke-miterlimit:10;stroke-dasharray:none;stroke-opacity:1"
             d="m 0,0 c 0,0 6.981,-5.742 8.072,-12.396 1.091,-6.655 3.273,-16.353 2.618,-18.485 -0.654,-2.133 -2.181,-4.769 -2.181,-4.769 0,0 -2.795,0.898 -4.086,5.147 -0.661,2.177 -3.273,11.127 -3.509,16.364 -0.236,5.236 -2.878,12.599 -2.878,12.599 z" /></g><g
           transform="translate(348.7549,464.9956)"
           id="g324"><path
             id="path326"
             style="fill:#962e12;fill-opacity:1;fill-rule:nonzero;stroke:none"
             d="m 0,0 c -5.563,-3.273 -32.728,-25.326 -35.019,-29.354 -2.291,-4.028 0,-7.059 0,-7.059 0,0 4.042,-0.704 9.165,3.704 3.219,2.771 22.582,20.6 23.89,22.236 C -0.654,-8.836 0,0 0,0" /></g><g
           transform="translate(348.7549,464.9956)"
           id="g328"><path
             id="path330"
             style="fill:none;stroke:#231f20;stroke-width:2;stroke-linecap:butt;stroke-linejoin:miter;stroke-miterlimit:10;stroke-dasharray:none;stroke-opacity:1"
             d="m 0,0 c -5.563,-3.273 -32.728,-25.326 -35.019,-29.354 -2.291,-4.028 0,-7.059 0,-7.059 0,0 4.042,-0.704 9.165,3.704 3.219,2.771 22.582,20.6 23.89,22.236 C -0.654,-8.836 0,0 0,0 Z" /></g><g
           transform="translate(228.8286,413.5874)"
           id="g332"><path
             id="path334"
             style="fill:#b2391c;fill-opacity:1;fill-rule:nonzero;stroke:none"
             d="m 0,0 c 0,0 -2.539,-10.964 -3.714,-12.903 -1.175,-1.938 -3.082,-0.457 -3.082,-0.457 0,0 -1.536,4.404 -0.897,6.043 0.64,1.639 3.717,7.662 3.717,7.662 z" /></g><g
           transform="translate(228.8286,413.5874)"
           id="g336"><path
             id="path338"
             style="fill:none;stroke:#231f20;stroke-width:2;stroke-linecap:butt;stroke-linejoin:miter;stroke-miterlimit:10;stroke-dasharray:none;stroke-opacity:1"
             d="m 0,0 c 0,0 -2.539,-10.964 -3.714,-12.903 -1.175,-1.938 -3.082,-0.457 -3.082,-0.457 0,0 -1.536,4.404 -0.897,6.043 0.64,1.639 3.717,7.662 3.717,7.662 z" /></g><g
           transform="translate(234.5127,447.2461)"
           id="g340"><path
             id="path342"
             style="fill:#c84123;fill-opacity:1;fill-rule:nonzero;stroke:none"
             d="m 0,0 c 0,0 3.454,-8.354 1.282,-14.738 -2.173,-6.384 -4.816,-15.966 -6.398,-17.539 -1.582,-1.573 -4.172,-3.179 -4.172,-3.179 0,0 -2.041,2.108 -1.178,6.465 0.442,2.232 3.547,9.45 4.612,16.087 0.832,5.176 3.396,12.47 3.396,12.47 z" /></g><g
           transform="translate(234.5127,447.2461)"
           id="g344"><path
             id="path346"
             style="fill:none;stroke:#231f20;stroke-width:2;stroke-linecap:butt;stroke-linejoin:miter;stroke-miterlimit:10;stroke-dasharray:none;stroke-opacity:1"
             d="m 0,0 c 0,0 3.454,-8.354 1.282,-14.738 -2.173,-6.384 -4.816,-15.966 -6.398,-17.539 -1.582,-1.573 -4.172,-3.179 -4.172,-3.179 0,0 -2.041,2.108 -1.178,6.465 0.442,2.232 3.547,9.45 4.612,16.087 0.832,5.176 3.396,12.47 3.396,12.47 z" /></g><g
           transform="translate(278.8374,462.3184)"
           id="g348"><path
             id="path350"
             style="fill:#d64626;fill-opacity:1;fill-rule:nonzero;stroke:none"
             d="m 0,0 c -6.44,-0.437 -40.601,-8.006 -44.452,-10.583 -3.851,-2.577 -3.158,-6.313 -3.158,-6.313 -0.202,-0.174 3.385,-2.403 9.853,-0.788 4.12,1.03 43.977,13.475 45.88,14.352 C 10.025,-2.454 0,0 0,0" /></g><g
           transform="translate(278.8374,462.3184)"
           id="g352"><path
             id="path354"
             style="fill:none;stroke:#231f20;stroke-width:2;stroke-linecap:butt;stroke-linejoin:miter;stroke-miterlimit:10;stroke-dasharray:none;stroke-opacity:1"
             d="m 0,0 c -6.44,-0.437 -40.601,-8.006 -44.452,-10.583 -3.851,-2.577 -3.158,-6.313 -3.158,-6.313 -0.202,-0.174 3.385,-2.403 9.853,-0.788 4.12,1.03 43.977,13.475 45.88,14.352 C 10.025,-2.454 0,0 0,0 Z" /></g><g
           transform="translate(240.1304,398.9917)"
           id="g356"><path
             id="path358"
             style="fill:#c84123;fill-opacity:1;fill-rule:nonzero;stroke:none"
             d="m 0,0 c 0,0 4.593,-8.371 4.843,-10.624 0.25,-2.252 -2.76,-2.698 -2.76,-2.698 0,0 -3.232,1.144 -3.724,2.833 -0.492,1.689 -1.721,8.34 -1.721,8.34 z" /></g><g
           transform="translate(240.1304,398.9917)"
           id="g360"><path
             id="path362"
             style="fill:none;stroke:#231f20;stroke-width:2;stroke-linecap:butt;stroke-linejoin:miter;stroke-miterlimit:10;stroke-dasharray:none;stroke-opacity:1"
             d="m 0,0 c 0,0 4.593,-8.371 4.843,-10.624 0.25,-2.252 -2.76,-2.698 -2.76,-2.698 0,0 -3.232,1.144 -3.724,2.833 -0.492,1.689 -1.721,8.34 -1.721,8.34 z" /></g><g
           transform="translate(256.1763,440.5103)"
           id="g364"><path
             id="path366"
             style="fill:#c84123;fill-opacity:1;fill-rule:nonzero;stroke:none"
             d="m 0,0 c 0,0 -1.663,-10.32 -3.726,-18.947 -2.136,-8.933 -7.734,-20.535 -9.851,-22.666 -2.116,-2.132 -5.34,-4.385 -5.34,-4.385 0,0 -4.503,5.281 0.314,8.165 1.864,1.115 7.013,11.202 9.019,20.901 1.386,6.699 6.794,16.187 6.794,16.187 z" /></g><g
           transform="translate(256.1763,440.5103)"
           id="g368"><path
             id="path370"
             style="fill:none;stroke:#231f20;stroke-width:2;stroke-linecap:butt;stroke-linejoin:miter;stroke-miterlimit:10;stroke-dasharray:none;stroke-opacity:1"
             d="m 0,0 c 0,0 -1.663,-10.32 -3.726,-18.947 -2.136,-8.933 -7.734,-20.535 -9.851,-22.666 -2.116,-2.132 -5.34,-4.385 -5.34,-4.385 0,0 -4.503,5.281 0.314,8.165 1.864,1.115 7.013,11.202 9.019,20.901 1.386,6.699 6.794,16.187 6.794,16.187 z" /></g><g
           transform="translate(295.3169,456.9766)"
           id="g372"><path
             id="path374"
             style="fill:#c84123;fill-opacity:1;fill-rule:nonzero;stroke:none"
             d="m 0,0 c -6.439,-0.455 -35.773,-9.83 -39.617,-12.417 -3.844,-2.588 -2.69,-4.097 -2.69,-4.097 0,0 -1.381,-0.98 2.856,-1.278 4.237,-0.299 28.988,10.492 30.889,11.375 C -6.662,-5.534 0,0 0,0" /></g><g
           transform="translate(295.3169,456.9766)"
           id="g376"><path
             id="path378"
             style="fill:none;stroke:#231f20;stroke-width:2;stroke-linecap:butt;stroke-linejoin:miter;stroke-miterlimit:10;stroke-dasharray:none;stroke-opacity:1"
             d="m 0,0 c -6.439,-0.455 -35.773,-9.83 -39.617,-12.417 -3.844,-2.588 -2.69,-4.097 -2.69,-4.097 0,0 -1.381,-0.98 2.856,-1.278 4.237,-0.299 28.988,10.492 30.889,11.375 C -6.662,-5.534 0,0 0,0 Z" /></g><g
           transform="translate(270.6167,411.8267)"
           id="g380"><path
             id="path382"
             style="fill:#c84123;fill-opacity:1;fill-rule:nonzero;stroke:none"
             d="m 0,0 c 0,0 8.747,-2.409 10.492,-3.855 1.746,-1.447 1.726,-4.828 1.726,-4.828 0,0 -4.582,-0.873 -6.109,0 -1.527,0.873 -7.033,4.801 -7.033,4.801 z" /></g><g
           transform="translate(270.6167,411.8267)"
           id="g384"><path
             id="path386"
             style="fill:none;stroke:#231f20;stroke-width:2;stroke-linecap:butt;stroke-linejoin:miter;stroke-miterlimit:10;stroke-dasharray:none;stroke-opacity:1"
             d="m 0,0 c 0,0 8.747,-2.409 10.492,-3.855 1.746,-1.447 1.726,-4.828 1.726,-4.828 0,0 -4.582,-0.873 -6.109,0 -1.527,0.873 -7.033,4.801 -7.033,4.801 z" /></g><g
           transform="translate(266.394,445.4478)"
           id="g388"><path
             id="path390"
             style="fill:#c84123;fill-opacity:1;fill-rule:nonzero;stroke:none"
             d="m 0,0 c 0,0 2.945,-7.46 5.856,-13.932 2.879,-6.4 3.273,-17.035 2.619,-19.256 -0.655,-2.222 -2.182,-4.969 -2.182,-4.969 0,0 -2.794,0.936 -4.085,5.363 -0.662,2.268 -3.273,11.591 -3.51,17.046 -0.236,5.455 -2.878,13.124 -2.878,13.124 z" /></g><g
           transform="translate(266.394,445.4478)"
           id="g392"><path
             id="path394"
             style="fill:none;stroke:#231f20;stroke-width:2;stroke-linecap:butt;stroke-linejoin:miter;stroke-miterlimit:10;stroke-dasharray:none;stroke-opacity:1"
             d="m 0,0 c 0,0 2.945,-7.46 5.856,-13.932 2.879,-6.4 3.273,-17.035 2.619,-19.256 -0.655,-2.222 -2.182,-4.969 -2.182,-4.969 0,0 -2.794,0.936 -4.085,5.363 -0.662,2.268 -3.273,11.591 -3.51,17.046 -0.236,5.455 -2.878,13.124 -2.878,13.124 z" /></g><g
           transform="translate(314.1221,453.8374)"
           id="g396"><path
             id="path398"
             style="fill:#c84123;fill-opacity:1;fill-rule:nonzero;stroke:none"
             d="m 0,0 c -5.14,-0.253 -44.953,-6.064 -50.554,-7.865 -5.601,-1.8 -2.354,-3.734 -2.354,-3.734 0,0 3.543,-0.391 6.271,-0.65 2.728,-0.259 30.373,5.657 32.709,6.265 C -11.593,-5.376 0,0 0,0" /></g><g
           transform="translate(314.1221,453.8374)"
           id="g400"><path
             id="path402"
             style="fill:none;stroke:#231f20;stroke-width:2;stroke-linecap:butt;stroke-linejoin:miter;stroke-miterlimit:10;stroke-dasharray:none;stroke-opacity:1"
             d="m 0,0 c -5.14,-0.253 -44.953,-6.064 -50.554,-7.865 -5.601,-1.8 -2.354,-3.734 -2.354,-3.734 0,0 3.543,-0.391 6.271,-0.65 2.728,-0.259 30.373,5.657 32.709,6.265 C -11.593,-5.376 0,0 0,0 Z" /></g><g
           transform="translate(288.3159,398.7832)"
           id="g404"><path
             id="path406"
             style="fill:#c84123;fill-opacity:1;fill-rule:nonzero;stroke:none"
             d="m 0,0 c 0,0 8.07,-9.03 9.28,-11.602 1.21,-2.571 0,-5.206 0,-5.206 0,0 -5.801,2.889 -7.081,4.814 -1.28,1.925 -5.453,9.512 -5.453,9.512 z" /></g><g
           transform="translate(288.3159,398.7832)"
           id="g408"><path
             id="path410"
             style="fill:none;stroke:#231f20;stroke-width:2;stroke-linecap:butt;stroke-linejoin:miter;stroke-miterlimit:10;stroke-dasharray:none;stroke-opacity:1"
             d="m 0,0 c 0,0 8.07,-9.03 9.28,-11.602 1.21,-2.571 0,-5.206 0,-5.206 0,0 -5.801,2.889 -7.081,4.814 -1.28,1.925 -5.453,9.512 -5.453,9.512 z" /></g><g
           transform="translate(291.1836,440.7729)"
           id="g412"><path
             id="path414"
             style="fill:#c84123;fill-opacity:1;fill-rule:nonzero;stroke:none"
             d="m 0,0 c 0,0 4.488,-8.961 3.015,-17.236 -1.473,-8.275 -3.057,-20.513 -4.486,-22.863 -1.43,-2.349 -3.882,-5.036 -3.882,-5.036 0,0 -2.325,1.915 -1.951,7.379 0.192,2.799 1.083,14.273 2.835,20.597 1.753,6.324 2.015,15.912 2.015,15.912 z" /></g><g
           transform="translate(291.1836,440.7729)"
           id="g416"><path
             id="path418"
             style="fill:none;stroke:#231f20;stroke-width:2;stroke-linecap:butt;stroke-linejoin:miter;stroke-miterlimit:10;stroke-dasharray:none;stroke-opacity:1"
             d="m 0,0 c 0,0 4.488,-8.961 3.015,-17.236 -1.473,-8.275 -3.057,-20.513 -4.486,-22.863 -1.43,-2.349 -3.882,-5.036 -3.882,-5.036 0,0 -2.325,1.915 -1.951,7.379 0.192,2.799 1.083,14.273 2.835,20.597 1.753,6.324 2.015,15.912 2.015,15.912 z" /></g><g
           transform="translate(329.6572,460.8936)"
           id="g420"><path
             id="path422"
             style="fill:#c84123;fill-opacity:1;fill-rule:nonzero;stroke:none"
             d="m 0,0 c -6.211,-1.759 -38.07,-16.223 -41.305,-19.541 -3.236,-3.317 -1.786,-6.828 -1.786,-6.828 0,0 0.633,-2.767 9.802,1.265 3.889,1.709 27.059,14.217 28.739,15.469 C -2.869,-8.383 0,0 0,0" /></g><g
           transform="translate(329.6572,460.8936)"
           id="g424"><path
             id="path426"
             style="fill:none;stroke:#231f20;stroke-width:2;stroke-linecap:butt;stroke-linejoin:miter;stroke-miterlimit:10;stroke-dasharray:none;stroke-opacity:1"
             d="m 0,0 c -6.211,-1.759 -38.07,-16.223 -41.305,-19.541 -3.236,-3.317 -1.786,-6.828 -1.786,-6.828 0,0 0.633,-2.767 9.802,1.265 3.889,1.709 27.059,14.217 28.739,15.469 C -2.869,-8.383 0,0 0,0 Z" /></g><g
           transform="translate(310.7891,400.3813)"
           id="g428"><path
             id="path430"
             style="fill:#c84123;fill-opacity:1;fill-rule:nonzero;stroke:none"
             d="m 0,0 c 0,0 5.892,-1.208 7.637,-2.655 1.745,-1.446 4.582,-6.028 4.582,-6.028 0,0 -4.582,-0.872 -6.11,0 -1.527,0.873 -7.033,4.801 -7.033,4.801 z" /></g><g
           transform="translate(310.7891,400.3813)"
           id="g432"><path
             id="path434"
             style="fill:none;stroke:#231f20;stroke-width:2;stroke-linecap:butt;stroke-linejoin:miter;stroke-miterlimit:10;stroke-dasharray:none;stroke-opacity:1"
             d="m 0,0 c 0,0 5.892,-1.208 7.637,-2.655 1.745,-1.446 4.582,-6.028 4.582,-6.028 0,0 -4.582,-0.872 -6.11,0 -1.527,0.873 -7.033,4.801 -7.033,4.801 z" /></g><g
           transform="translate(301.5762,431.7578)"
           id="g436"><path
             id="path438"
             style="fill:#c84123;fill-opacity:1;fill-rule:nonzero;stroke:none"
             d="m 0,0 c 0,0 6.981,-5.742 8.073,-12.396 1.091,-6.655 3.273,-16.353 2.618,-18.486 -0.655,-2.133 -2.182,-4.769 -2.182,-4.769 0,0 -2.794,0.899 -4.085,5.148 -0.662,2.177 -3.273,11.127 -3.509,16.363 -0.237,5.237 -2.878,12.599 -2.878,12.599 z" /></g><g
           transform="translate(301.5762,431.7578)"
           id="g440"><path
             id="path442"
             style="fill:none;stroke:#231f20;stroke-width:2;stroke-linecap:butt;stroke-linejoin:miter;stroke-miterlimit:10;stroke-dasharray:none;stroke-opacity:1"
             d="m 0,0 c 0,0 6.981,-5.742 8.073,-12.396 1.091,-6.655 3.273,-16.353 2.618,-18.486 -0.655,-2.133 -2.182,-4.769 -2.182,-4.769 0,0 -2.794,0.899 -4.085,5.148 -0.662,2.177 -3.273,11.127 -3.509,16.363 -0.237,5.237 -2.878,12.599 -2.878,12.599 z" /></g><g
           transform="translate(334.4541,462.7817)"
           id="g444"><path
             id="path446"
             style="fill:#c84123;fill-opacity:1;fill-rule:nonzero;stroke:none"
             d="m 0,0 c -5.563,-3.272 -32.727,-25.326 -35.018,-29.354 -2.291,-4.028 0,-7.058 0,-7.058 0,0 4.041,-0.705 9.164,3.703 3.219,2.771 22.582,20.6 23.891,22.236 C -0.654,-8.836 0,0 0,0" /></g><g
           transform="translate(334.4541,462.7817)"
           id="g448"><path
             id="path450"
             style="fill:none;stroke:#231f20;stroke-width:2;stroke-linecap:butt;stroke-linejoin:miter;stroke-miterlimit:10;stroke-dasharray:none;stroke-opacity:1"
             d="m 0,0 c -5.563,-3.272 -32.727,-25.326 -35.018,-29.354 -2.291,-4.028 0,-7.058 0,-7.058 0,0 4.041,-0.705 9.164,3.703 3.219,2.771 22.582,20.6 23.891,22.236 C -0.654,-8.836 0,0 0,0 Z" /></g><g
           transform="translate(437.2178,411.7271)"
           id="g452"><path
             id="path454"
             style="fill:#9c3015;fill-opacity:1;fill-rule:nonzero;stroke:none"
             d="m 0,0 c 0,0 -6.545,-4.909 -9.163,-11.454 -2.618,-6.546 -7.855,-10.146 -9.164,-13.419 -1.309,-3.272 -1.309,-11.782 0,-18 1.309,-6.217 7.527,-21.272 10.473,-24.544 2.946,-3.274 12.763,-7.856 21.273,-5.238 8.509,2.618 24.545,10.801 30.435,18.328 5.892,7.528 14.728,20.946 15.71,35.018 C 60.546,-5.236 26.183,7.527 26.183,7.527 Z" /></g><g
           transform="translate(437.1064,411.9512)"
           id="g456"><path
             id="path458"
             style="fill:#231f20;fill-opacity:1;fill-rule:nonzero;stroke:none"
             d="m 0,0 c 4.194,1.613 8.473,3.13 12.772,4.645 4.305,1.508 8.65,2.972 13.013,4.427 l 0.512,0.171 0.638,-0.214 c 2.24,-0.754 4.366,-1.588 6.517,-2.464 2.143,-0.874 4.263,-1.812 6.349,-2.836 4.175,-2.038 8.277,-4.308 12.128,-7.14 1.928,-1.412 3.777,-2.988 5.486,-4.815 1.685,-1.837 3.264,-3.955 4.231,-6.611 0.189,-0.692 0.45,-1.345 0.529,-2.086 l 0.156,-1.089 0.01,-1.118 -0.006,-0.558 -0.046,-0.459 -0.099,-0.907 c -0.073,-0.602 -0.121,-1.212 -0.232,-1.805 -0.407,-2.385 -0.938,-4.738 -1.676,-7.008 -2.928,-9.106 -7.861,-17.216 -13.669,-24.439 l -1.107,-1.342 c -0.402,-0.457 -0.836,-0.913 -1.255,-1.363 -0.875,-0.849 -1.762,-1.672 -2.699,-2.398 -1.851,-1.492 -3.788,-2.805 -5.774,-4.009 -3.958,-2.434 -8.09,-4.471 -12.266,-6.386 -2.101,-0.933 -4.224,-1.81 -6.372,-2.638 -1.08,-0.403 -2.171,-0.78 -3.28,-1.122 l -1.724,-0.447 -1.756,-0.287 c -4.733,-0.523 -9.467,0.457 -13.828,2.318 -1.089,0.482 -2.156,1.029 -3.188,1.7 -1.017,0.646 -2.084,1.472 -2.9,2.55 -1.491,1.99 -2.608,4.008 -3.721,6.06 -2.163,4.116 -4.029,8.329 -5.589,12.729 -0.387,1.102 -0.755,2.212 -1.067,3.374 -0.333,1.148 -0.599,2.385 -0.778,3.555 -0.371,2.37 -0.568,4.728 -0.622,7.094 -0.064,2.37 0.025,4.735 0.412,7.172 0.211,1.215 0.437,2.476 1.109,3.85 0.682,1.316 1.487,2.255 2.273,3.144 1.581,1.745 3.124,3.302 4.433,5.031 0.66,0.857 1.276,1.735 1.825,2.655 0.569,0.924 0.965,1.839 1.554,2.979 1.155,2.134 2.656,3.991 4.281,5.667 C -3.758,-2.75 -2.028,-1.305 0,0 m 0.223,-0.448 c -3.136,-3.105 -6.061,-6.748 -7.683,-10.705 -0.368,-0.927 -0.769,-2.152 -1.288,-3.231 -0.517,-1.092 -1.086,-2.166 -1.753,-3.159 -1.296,-2.015 -2.838,-3.826 -4.185,-5.567 -0.66,-0.863 -1.295,-1.717 -1.609,-2.455 -0.306,-0.691 -0.483,-1.706 -0.597,-2.736 -0.213,-2.08 -0.208,-4.287 -0.116,-6.466 0.1,-2.185 0.338,-4.372 0.721,-6.494 0.205,-1.075 0.412,-2.068 0.711,-3.108 0.287,-1.036 0.614,-2.097 0.957,-3.151 1.372,-4.225 2.928,-8.47 4.639,-12.599 0.851,-2.053 1.765,-4.13 2.834,-5.912 0.482,-0.808 1.174,-1.483 2.008,-2.149 0.814,-0.667 1.743,-1.234 2.692,-1.763 1.909,-1.051 3.985,-1.844 6.126,-2.343 2.137,-0.514 4.357,-0.712 6.534,-0.494 l 1.617,0.248 c 0.527,0.136 1.055,0.254 1.582,0.41 1.064,0.346 2.119,0.727 3.168,1.136 2.1,0.816 4.148,1.772 6.167,2.783 4.022,2.051 7.904,4.394 11.499,7.059 1.803,1.322 3.531,2.733 5.102,4.247 0.803,0.743 1.521,1.543 2.214,2.342 l 0.965,1.234 0.975,1.365 c 5.102,7.316 9.548,15.173 11.913,23.544 0.613,2.082 1.02,4.198 1.322,6.31 0.088,0.528 0.099,1.059 0.162,1.587 l 0.079,0.792 0.036,0.392 -0.011,0.295 -0.003,0.59 -0.104,0.599 c -0.024,0.401 -0.222,0.808 -0.321,1.216 -0.577,1.647 -1.744,3.284 -3.104,4.807 -1.368,1.534 -2.987,2.941 -4.68,4.286 -3.418,2.665 -7.194,5.039 -11.101,7.195 -3.908,2.133 -7.962,4.179 -12.039,5.921 l 1.15,-0.043 C 22.438,4.481 18.056,3.436 13.632,2.435 9.205,1.44 4.756,0.448 0.223,-0.448" /></g><g
           transform="translate(514.7822,419.582)"
           id="g460"><path
             id="path462"
             style="fill:#a73519;fill-opacity:1;fill-rule:nonzero;stroke:none"
             d="m 0,0 c 0,0 6.545,27.164 2.945,34.363 -3.6,7.2 -19.636,25.855 -22.255,25.855 -2.618,0 -37.636,-16.691 -37.636,-16.691 l -27.163,-25.2 c 0,0 -0.655,-20.945 -1.964,-25.527 -1.309,-4.582 0.981,-7.528 4.582,-8.509 3.599,-0.982 12.763,2.618 18,0 5.236,-2.619 17.726,-12.109 22.281,-15.055 4.555,-2.945 16.01,-9.818 20.592,-8.181 4.581,1.635 9.163,7.527 14.399,17.345 C -0.982,-11.782 0,0 0,0" /></g><g
           transform="translate(515.0283,419.542)"
           id="g464"><path
             id="path466"
             style="fill:#231f20;fill-opacity:1;fill-rule:nonzero;stroke:none"
             d="m 0,0 c -0.274,-3.098 -0.836,-6.208 -1.521,-9.265 -0.667,-3.069 -1.551,-6.096 -2.651,-9.068 -0.557,-1.478 -1.203,-2.953 -1.888,-4.37 -0.668,-1.425 -1.374,-2.835 -2.107,-4.238 -1.484,-2.797 -3.077,-5.565 -5.096,-8.163 -1.014,-1.294 -2.133,-2.553 -3.488,-3.676 -0.665,-0.571 -1.423,-1.08 -2.24,-1.525 -0.424,-0.216 -0.826,-0.41 -1.32,-0.591 -0.541,-0.138 -1.173,-0.352 -1.658,-0.344 -2.089,-0.151 -3.798,0.256 -5.444,0.71 -1.616,0.501 -3.156,1.097 -4.652,1.748 -2.988,1.3 -5.791,2.854 -8.537,4.488 -1.356,0.811 -2.75,1.678 -4.074,2.579 l -3.892,2.678 -7.616,5.401 c -2.538,1.752 -5.099,3.529 -7.612,5.038 -0.313,0.19 -0.613,0.343 -0.921,0.517 -0.316,0.18 -0.503,0.214 -0.755,0.343 -0.243,0.103 -0.543,0.154 -0.809,0.243 -0.284,0.071 -0.605,0.102 -0.905,0.162 -1.262,0.163 -2.682,0.124 -4.138,10e-4 -1.463,-0.118 -2.971,-0.326 -4.544,-0.527 -1.594,-0.181 -3.173,-0.439 -5.212,-0.289 -0.493,0.058 -1.216,0.18 -1.621,0.337 -0.468,0.143 -0.933,0.337 -1.389,0.55 -0.913,0.433 -1.795,1.038 -2.549,1.815 -0.754,0.774 -1.367,1.729 -1.738,2.754 -0.375,1.024 -0.525,2.093 -0.507,3.105 0.034,1.007 0.2,1.968 0.461,2.864 l 0.247,0.977 0.198,1.067 c 0.237,1.463 0.457,2.984 0.627,4.515 0.686,6.134 1.243,12.366 1.664,18.573 l 0.041,0.599 0.385,0.335 6.99,6.086 c 2.341,2.015 4.631,4.088 6.933,6.146 2.303,2.058 4.56,4.165 6.842,6.245 l 6.746,6.349 0.085,0.08 0.12,0.059 c 8.259,4.08 16.394,8.405 24.661,12.525 2.073,1.019 4.156,2.02 6.263,3.001 1.055,0.489 2.126,0.948 3.217,1.406 0.546,0.228 1.103,0.45 1.685,0.667 0.323,0.108 0.567,0.214 0.961,0.321 l 0.275,0.077 0.152,0.04 0.254,0.043 c 0.17,0.025 0.342,0.044 0.512,0.056 0.233,-0.008 0.488,-0.043 0.727,-0.095 0.787,-0.215 1.087,-0.437 1.441,-0.637 0.331,-0.203 0.611,-0.406 0.876,-0.609 0.525,-0.405 1.001,-0.809 1.456,-1.218 0.91,-0.818 1.761,-1.647 2.59,-2.49 1.663,-1.677 3.214,-3.426 4.729,-5.201 1.5,-1.787 2.965,-3.598 4.351,-5.474 1.39,-1.871 2.775,-3.749 4.038,-5.73 C 1.282,40.006 1.904,39.007 2.5,37.977 3.099,36.927 3.663,35.936 4.159,34.681 5.069,32.042 4.933,29.672 4.86,27.303 4.562,22.596 3.74,18.045 2.888,13.507 2.01,8.982 1.03,4.456 0,0 m -0.493,0.08 c 1.06,4.506 1.871,9.013 2.459,13.574 0.581,4.546 0.939,9.153 0.733,13.655 -0.069,1.119 -0.16,2.233 -0.342,3.303 -0.185,1.058 -0.451,2.107 -0.861,2.903 -0.443,0.845 -1.113,1.809 -1.74,2.703 -0.645,0.907 -1.327,1.804 -2.028,2.69 -2.793,3.554 -5.785,7.002 -8.809,10.382 -1.505,1.698 -3.051,3.355 -4.597,4.976 -0.777,0.805 -1.569,1.587 -2.364,2.313 -0.397,0.366 -0.798,0.707 -1.181,1.008 -0.188,0.15 -0.379,0.28 -0.53,0.389 l -0.191,0.125 c -0.005,0 -0.009,0.002 -0.012,0.008 0.002,0.005 -0.041,0.026 0.099,-0.021 0.098,-0.026 0.211,-0.03 0.303,-0.017 0.028,-0.008 0.057,-0.009 0.085,-0.004 l 0.04,0.013 c 0.005,0.003 -0.04,-0.01 -0.056,-0.014 l -0.143,-0.035 c -0.165,-0.029 -0.458,-0.134 -0.684,-0.198 -0.502,-0.164 -1.023,-0.346 -1.547,-0.54 l -3.167,-1.218 c -2.129,-0.818 -4.256,-1.676 -6.383,-2.536 -8.525,-3.419 -17.06,-6.903 -25.43,-10.713 l 0.205,0.139 -6.836,-6.251 c -2.245,-2.12 -4.515,-4.213 -6.74,-6.355 -2.225,-2.141 -4.463,-4.269 -6.647,-6.454 l -6.593,-6.514 0.425,0.934 c -0.02,-6.274 -0.022,-12.523 -0.388,-18.835 -0.093,-1.58 -0.203,-3.165 -0.406,-4.793 L -84,-6.547 -84.277,-7.852 c -0.152,-0.611 -0.216,-1.203 -0.218,-1.757 0.039,-1.105 0.402,-1.961 1.088,-2.625 0.344,-0.331 0.775,-0.62 1.282,-0.837 0.255,-0.105 0.514,-0.21 0.797,-0.283 l 0.206,-0.062 0.146,-0.013 c 0.111,-0.006 0.163,-0.045 0.317,-0.04 1.085,-0.053 2.618,0.167 4.111,0.404 1.518,0.24 3.097,0.509 4.742,0.694 1.648,0.175 3.365,0.287 5.209,0.099 0.469,-0.07 0.929,-0.115 1.406,-0.217 0.481,-0.128 0.957,-0.217 1.441,-0.395 0.461,-0.185 1.025,-0.387 1.392,-0.587 0.378,-0.199 0.777,-0.396 1.136,-0.601 2.893,-1.621 5.481,-3.39 8.078,-5.188 2.588,-1.794 5.143,-3.608 7.676,-5.422 l 3.766,-2.716 c 1.237,-0.884 2.478,-1.695 3.784,-2.516 2.581,-1.623 5.234,-3.125 7.897,-4.484 1.337,-0.665 2.687,-1.26 4.031,-1.754 1.319,-0.477 2.696,-0.853 3.735,-0.856 l 0.2,-0.013 c 0.055,0.006 0.097,0.022 0.147,0.029 0.096,0.017 0.193,0.028 0.295,0.034 0.243,0.062 0.563,0.182 0.842,0.296 0.573,0.265 1.161,0.56 1.728,0.948 1.145,0.753 2.236,1.725 3.268,2.784 2.067,2.132 3.896,4.621 5.624,7.172 1.711,2.577 3.395,5.196 4.712,7.964 2.649,5.581 4.217,11.68 4.946,17.874" /></g><g
           transform="translate(418.2363,490.9272)"
           id="g468"><path
             id="path470"
             style="fill:#c23f21;fill-opacity:1;fill-rule:nonzero;stroke:none"
             d="m 0,0 c 0,0 16.363,23.891 24.546,27.818 8.182,3.928 12.764,3.273 20.618,0 7.855,-3.273 19.309,-9.731 22.581,-12.556 3.274,-2.825 21.601,-20.825 23.236,-28.026 1.637,-7.199 -0.327,-12.109 -4.581,-14.727 -4.254,-2.618 -14.073,-0.327 -21.927,-6.545 C 56.618,-40.254 42.546,-59.563 37.964,-62.182 33.382,-64.8 21.928,-69.709 16.691,-68.4 11.454,-67.091 -0.654,-58.909 0,-53.673 0.654,-48.437 -12.764,-27.491 -10.473,-22.909 -8.182,-18.327 0,0 0,0" /></g><g
           transform="translate(418.4541,490.8052)"
           id="g472"><path
             id="path474"
             style="fill:#231f20;fill-opacity:1;fill-rule:nonzero;stroke:none"
             d="m 0,0 -3.837,-8.685 c -1.224,-2.923 -2.495,-5.821 -3.666,-8.768 l -1.783,-4.404 -0.437,-1.106 -0.103,-0.269 -0.035,-0.164 c -0.043,-0.088 -0.033,-0.254 -0.048,-0.386 -0.021,-0.586 0.121,-1.301 0.302,-1.998 0.834,-2.843 2.262,-5.669 3.669,-8.455 1.423,-2.797 2.963,-5.559 4.376,-8.43 0.713,-1.433 1.419,-2.881 2.08,-4.392 0.628,-1.54 1.26,-3.047 1.619,-5.051 l 0.087,-0.836 -0.007,-0.506 -0.01,-0.253 c -0.005,-0.09 -0.011,-0.18 -0.005,-0.167 0.011,-0.106 0.006,-0.235 0.066,-0.423 0.093,-0.364 0.33,-0.86 0.646,-1.37 0.643,-1.029 1.619,-2.08 2.668,-3.049 2.13,-1.942 4.633,-3.673 7.214,-5.082 1.286,-0.684 2.617,-1.358 3.827,-1.745 0.301,-0.102 0.571,-0.166 0.804,-0.19 l 0.367,-0.065 0.442,-0.013 0.446,-0.017 0.489,0.032 c 0.322,0.014 0.65,0.034 0.999,0.092 1.363,0.166 2.801,0.502 4.228,0.919 1.429,0.409 2.873,0.872 4.295,1.407 1.426,0.524 2.842,1.104 4.229,1.73 0.696,0.307 1.383,0.635 2.055,0.969 0.335,0.168 0.675,0.334 0.995,0.51 l 0.486,0.26 c 0.136,0.083 0.221,0.157 0.335,0.233 0.9,0.609 2.078,1.744 3.118,2.81 1.07,1.088 2.127,2.236 3.178,3.394 4.205,4.649 8.312,9.501 12.748,14.115 2.238,2.302 4.509,4.577 7.177,6.622 2.744,2.072 6.007,3.406 9.244,4.038 3.24,0.706 6.492,0.783 9.545,1.121 1.52,0.19 2.986,0.425 4.129,1.157 1.235,0.769 2.297,1.791 3.054,3.031 1.59,2.469 1.788,5.656 1.384,8.653 -0.048,0.378 -0.102,0.757 -0.183,1.133 -0.082,0.369 -0.122,0.773 -0.264,1.098 l -0.354,1.022 -0.513,1.011 c -0.696,1.346 -1.578,2.637 -2.484,3.901 -3.748,4.998 -8.169,9.531 -12.724,13.862 -2.282,2.153 -4.617,4.308 -6.968,6.291 -0.598,0.503 -1.111,0.873 -1.749,1.302 -0.618,0.414 -1.266,0.82 -1.927,1.215 -1.314,0.797 -2.681,1.541 -4.039,2.302 -5.467,2.974 -11.08,5.85 -16.74,8.158 -2.833,1.137 -5.6,2.038 -8.374,2.084 -2.77,0.033 -5.647,-0.717 -8.473,-1.887 -2.615,-0.986 -5.014,-3.06 -7.309,-5.145 C 15.976,19.501 13.782,17.234 11.686,14.879 7.503,10.17 3.563,5.161 0,0 m -0.436,0.244 c 3.657,5.231 7.301,10.364 11.131,15.45 1.92,2.533 3.899,5.03 6.011,7.455 0.545,0.595 1.073,1.202 1.634,1.789 l 1.741,1.727 c 0.644,0.538 1.258,1.096 1.939,1.618 l 1.114,0.733 c 0.186,0.118 0.376,0.25 0.561,0.357 l 0.548,0.28 c 2.885,1.497 6.147,2.811 9.731,2.964 1.772,0.088 3.551,-0.1 5.234,-0.455 1.68,-0.378 3.285,-0.883 4.815,-1.464 3.064,-1.146 5.988,-2.531 8.845,-3.987 2.872,-1.437 5.645,-3.044 8.392,-4.709 1.379,-0.826 2.716,-1.725 4.056,-2.648 0.669,-0.463 1.332,-0.943 1.997,-1.455 0.649,-0.491 1.374,-1.109 1.937,-1.681 2.31,-2.296 4.444,-4.622 6.577,-7.001 2.112,-2.386 4.219,-4.773 6.228,-7.248 2.03,-2.457 4.008,-4.96 5.839,-7.596 0.914,-1.321 1.804,-2.664 2.539,-4.14 l 0.542,-1.113 0.403,-1.226 c 0.154,-0.414 0.196,-0.805 0.289,-1.206 0.091,-0.396 0.153,-0.8 0.21,-1.206 0.478,-3.2 0.299,-6.73 -1.434,-9.737 -0.842,-1.496 -2.074,-2.768 -3.492,-3.72 -1.503,-1.062 -3.249,-1.425 -4.828,-1.725 -3.206,-0.55 -6.308,-0.821 -9.22,-1.653 -2.917,-0.794 -5.566,-2.135 -7.752,-4.038 -2.216,-1.983 -4.302,-4.324 -6.351,-6.669 -4.087,-4.743 -8.022,-9.667 -12.162,-14.53 -1.04,-1.216 -2.09,-2.429 -3.203,-3.63 -1.148,-1.21 -2.173,-2.378 -3.852,-3.606 -0.211,-0.147 -0.441,-0.315 -0.642,-0.439 l -0.552,-0.312 c -0.369,-0.214 -0.736,-0.403 -1.103,-0.599 -0.735,-0.387 -1.469,-0.758 -2.212,-1.107 -1.48,-0.71 -2.979,-1.365 -4.51,-1.968 -1.526,-0.605 -3.078,-1.175 -4.69,-1.637 -1.607,-0.471 -3.257,-0.874 -5.034,-1.1 -0.433,-0.071 -0.894,-0.106 -1.361,-0.131 l -0.696,-0.041 -0.74,0.018 -0.742,0.03 -0.805,0.123 c -0.553,0.079 -1.049,0.209 -1.5,0.358 -1.801,0.594 -3.316,1.337 -4.798,2.179 -2.929,1.692 -5.634,3.638 -8.133,6.012 -1.237,1.207 -2.435,2.498 -3.443,4.173 -0.499,0.841 -0.952,1.795 -1.184,2.982 -0.122,0.582 -0.153,1.252 -0.082,1.933 0.012,0.113 0.01,0.121 0.009,0.129 l 10e-4,0.044 c 0.002,0.028 0.008,0.057 0.017,0.087 l -0.019,0.346 c -0.132,1.127 -0.6,2.613 -1.114,4.016 -0.498,1.432 -1.065,2.882 -1.651,4.333 -1.194,2.895 -2.388,5.839 -3.542,8.821 -1.127,2.999 -2.292,5.992 -2.901,9.321 -0.119,0.851 -0.226,1.72 -0.085,2.711 0.054,0.256 0.073,0.493 0.197,0.769 l 0.164,0.395 0.139,0.272 0.551,1.052 2.162,4.227 c 1.459,2.808 2.82,5.664 4.226,8.495 z" /></g><g
           transform="translate(354.0908,496.4907)"
           id="g476"><path
             id="path478"
             style="fill:#da4727;fill-opacity:1;fill-rule:nonzero;stroke:none"
             d="m 0,0 c 0,0 13.091,32.728 16.691,34.691 3.6,1.964 14.073,5.891 25.855,3.6 C 54.327,36 70.363,35.019 73.964,30.437 77.563,25.854 82.146,16.691 78.873,8.836 75.6,0.982 75.6,-7.527 76.582,-17.018 c 0.981,-9.491 0,-24.545 -6.219,-29.455 -6.217,-4.909 -6.545,-10.799 -12.763,-10.472 -6.218,0.327 -32.727,2.618 -36.655,3.6 -3.926,0.982 -7.527,-2.291 -12.436,5.236 C 3.6,-40.582 -8.182,-18 -8.182,-18 Z" /></g><g
           transform="translate(354.3213,496.3926)"
           id="g480"><path
             id="path482"
             style="fill:#231f20;fill-opacity:1;fill-rule:nonzero;stroke:none"
             d="M 0,0 -1.996,-4.523 C -2.654,-6.034 -3.344,-7.531 -3.97,-9.057 l -1.916,-4.56 c -0.649,-1.515 -1.244,-3.056 -1.867,-4.584 l -0.018,0.634 c 2.935,-5.071 6.011,-10.07 9.074,-15.058 l 4.642,-7.438 2.336,-3.677 c 0.795,-1.182 1.568,-2.465 2.356,-3.505 0.764,-1.062 1.624,-1.984 2.481,-2.554 0.878,-0.573 1.593,-0.788 2.72,-0.805 1.116,-0.035 2.708,0.301 4.743,0.014 l 1.196,-0.219 c 0.271,-0.056 0.613,-0.107 0.963,-0.154 0.677,-0.102 1.394,-0.185 2.105,-0.27 5.736,-0.624 11.571,-1.246 17.385,-1.76 l 8.724,-0.837 4.354,-0.377 2.152,-0.167 0.793,-0.012 0.694,0.089 c 0.84,0.191 1.562,0.657 2.411,1.565 0.832,0.913 1.691,2.111 2.647,3.306 0.955,1.198 2.014,2.416 3.221,3.491 0.288,0.282 0.608,0.531 0.92,0.788 0.304,0.25 0.672,0.538 0.83,0.698 l 0.629,0.556 0.571,0.687 0.289,0.345 0.251,0.399 0.51,0.795 c 0.282,0.59 0.608,1.148 0.863,1.77 0.526,1.228 0.988,2.522 1.335,3.87 0.715,2.686 1.197,5.498 1.477,8.34 0.279,2.843 0.385,5.723 0.293,8.591 -0.054,1.417 -0.167,2.876 -0.252,4.365 -0.086,1.477 -0.134,2.96 -0.154,4.444 -0.013,1.485 0.007,2.972 0.083,4.458 0.049,1.487 0.176,2.975 0.354,4.456 0.38,2.958 0.987,5.905 2.001,8.728 0.236,0.703 0.555,1.412 0.796,2.083 0.239,0.651 0.471,1.305 0.595,1.99 0.186,0.671 0.217,1.372 0.314,2.06 0.006,0.699 0.071,1.395 -0.002,2.095 -0.125,2.809 -1.046,5.553 -2.237,8.114 -0.586,1.292 -1.338,2.507 -2.117,3.683 -0.39,0.59 -0.813,1.156 -1.243,1.71 -0.22,0.254 -0.443,0.584 -0.659,0.775 -0.223,0.181 -0.397,0.384 -0.638,0.556 -2.071,1.365 -4.948,2.025 -7.721,2.556 -5.635,1.015 -11.46,1.533 -17.302,2.378 -1.466,0.198 -2.928,0.444 -4.398,0.716 -1.468,0.252 -2.744,0.481 -4.145,0.593 -2.746,0.255 -5.528,0.243 -8.299,-0.026 -2.769,-0.284 -5.54,-0.783 -8.223,-1.583 -1.348,-0.372 -2.676,-0.83 -3.936,-1.361 L 17.55,33.488 c -0.14,-0.063 -0.364,-0.163 -0.32,-0.157 -0.01,-0.008 -0.021,-0.006 -0.043,-0.009 l -0.13,-0.126 C 16.969,33.116 16.876,33.039 16.772,32.907 16.369,32.468 15.951,31.886 15.556,31.321 13.967,28.989 12.532,26.424 11.135,23.87 9.733,21.308 8.421,18.691 7.125,16.065 4.577,10.791 2.166,5.453 0,0 m -0.46,0.196 c 2.218,5.416 4.34,10.889 6.509,16.343 1.064,2.738 2.173,5.459 3.286,8.189 1.143,2.725 2.287,5.432 3.722,8.123 0.379,0.676 0.734,1.344 1.256,2.041 0.111,0.168 0.273,0.355 0.438,0.539 l 0.247,0.274 c 0.122,0.108 0.26,0.218 0.396,0.321 0.323,0.247 0.442,0.288 0.624,0.398 l 0.518,0.293 c 1.38,0.739 2.78,1.367 4.215,1.912 2.876,1.055 5.853,1.83 8.897,2.283 3.046,0.422 6.158,0.523 9.245,0.221 1.52,-0.13 3.129,-0.43 4.545,-0.687 l 4.265,-0.782 c 5.722,-1.034 11.554,-1.917 17.355,-3.498 2.882,-0.839 5.844,-1.653 8.555,-3.755 0.329,-0.282 0.635,-0.644 0.942,-0.968 0.296,-0.332 0.461,-0.632 0.696,-0.95 0.425,-0.636 0.835,-1.276 1.209,-1.937 0.754,-1.317 1.427,-2.673 2.004,-4.071 1.166,-2.788 1.927,-5.768 2.061,-8.826 0.065,-0.761 -0.012,-1.531 -0.036,-2.296 -0.114,-0.76 -0.168,-1.53 -0.383,-2.274 C 79.96,10.33 79.677,9.61 79.421,8.882 79.174,8.171 78.895,7.54 78.671,6.85 76.776,1.425 76.468,-4.447 76.907,-10.199 c 0.111,-1.443 0.248,-2.884 0.422,-4.326 0.171,-1.429 0.375,-2.884 0.528,-4.391 0.289,-2.978 0.41,-5.97 0.327,-8.976 -0.091,-3.003 -0.344,-6.026 -0.987,-9.042 -0.301,-1.509 -0.734,-3.015 -1.279,-4.512 -0.257,-0.751 -0.64,-1.483 -0.969,-2.222 l -0.629,-1.084 -0.319,-0.541 -0.389,-0.52 c -0.265,-0.344 -0.521,-0.692 -0.801,-1.029 l -0.973,-0.946 c -0.367,-0.352 -0.57,-0.523 -0.823,-0.749 -0.245,-0.219 -0.499,-0.427 -0.725,-0.669 -0.951,-0.909 -1.799,-1.932 -2.635,-3.049 -0.845,-1.115 -1.647,-2.34 -2.746,-3.633 -0.586,-0.642 -1.208,-1.308 -2.048,-1.876 -0.797,-0.597 -1.798,-1.01 -2.782,-1.283 -0.49,-0.109 -0.986,-0.181 -1.475,-0.243 -0.466,-0.015 -0.955,-0.027 -1.406,-0.025 l -2.233,0.111 -4.412,0.278 -8.794,0.641 -8.781,0.812 c -2.932,0.285 -5.855,0.588 -8.809,1.011 -0.741,0.106 -1.479,0.207 -2.248,0.34 -0.374,0.06 -0.756,0.123 -1.201,0.223 l -0.961,0.2 c -0.874,0.189 -2.223,-0.009 -4.031,0.019 -1.797,0.007 -4.026,0.667 -5.502,1.856 -1.523,1.155 -2.581,2.511 -3.469,3.857 -1.736,2.646 -3.023,5.22 -4.409,7.854 -1.373,2.611 -2.626,5.277 -3.907,7.924 -2.553,5.297 -4.991,10.641 -7.495,15.952 l -0.163,0.346 0.146,0.289 c 0.741,1.472 1.509,2.931 2.223,4.416 l 2.175,4.439 c 0.738,1.475 1.412,2.977 2.117,4.467 z" /></g><g
           transform="translate(253.6182,623.1455)"
           id="g484"><path
             id="path486"
             style="fill:#231f20;fill-opacity:1;fill-rule:nonzero;stroke:none"
             d="m 0,0 c -1.857,-3.715 -3.877,-7.35 -6.035,-10.902 -2.154,-3.555 -4.457,-7.026 -6.979,-10.342 -1.265,-1.648 -2.543,-3.311 -4.048,-4.79 -1.5,-1.47 -3.127,-2.797 -4.806,-4.042 -3.365,-2.487 -6.953,-4.638 -10.613,-6.638 -7.341,-3.967 -14.993,-7.33 -22.878,-10.103 -1.975,-0.685 -3.97,-1.328 -5.997,-1.889 l -5.987,-1.689 -11.96,-3.468 c -15.926,-4.685 -31.85,-9.434 -47.623,-14.525 -3.932,-1.29 -7.868,-2.591 -11.681,-4.038 -3.806,-1.469 -7.508,-3.16 -11.033,-5.139 -7.049,-3.945 -13.376,-9.098 -18.32,-15.379 -2.486,-3.125 -4.626,-6.517 -6.429,-10.083 -0.887,-1.774 -1.756,-3.631 -2.43,-5.448 -0.698,-1.819 -1.259,-3.69 -1.656,-5.597 -1.656,-7.631 -0.969,-15.693 1.323,-23.244 2.304,-7.557 6.117,-14.72 11.075,-20.838 1.239,-1.528 2.548,-2.993 3.937,-4.352 1.296,-1.279 2.734,-2.38 4.316,-3.364 3.155,-1.969 6.797,-3.315 10.551,-4.286 7.572,-1.865 15.657,-2.095 23.66,-1.503 8.025,0.631 16.028,2.121 23.917,4.113 15.782,4.055 31.117,10.056 45.983,17.027 l 3.353,-7.263 c -15.288,-6.929 -31.103,-12.904 -47.569,-16.912 -8.237,-1.967 -16.641,-3.43 -25.191,-3.992 -8.539,-0.514 -17.273,-0.201 -25.836,2.018 -4.258,1.161 -8.488,2.76 -12.365,5.239 -1.928,1.231 -3.79,2.69 -5.424,4.357 -1.543,1.582 -2.966,3.254 -4.303,4.983 -5.336,6.916 -9.289,14.786 -11.641,23.171 -2.33,8.362 -2.919,17.399 -0.843,26.002 0.5,2.146 1.184,4.252 2.02,6.291 0.825,2.057 1.765,3.945 2.778,5.862 2.032,3.799 4.432,7.413 7.194,10.726 5.498,6.664 12.438,12.03 19.968,16.014 3.765,2.001 7.679,3.677 11.655,5.108 3.987,1.408 7.97,2.62 11.959,3.828 15.958,4.746 31.983,9.124 48.033,13.444 l 12.05,3.194 6.042,1.555 c 1.987,0.501 3.961,1.086 5.925,1.717 7.845,2.555 15.526,5.72 22.888,9.482 3.671,1.897 7.272,3.946 10.645,6.32 1.684,1.189 3.313,2.457 4.813,3.86 1.494,1.4 2.794,3.012 4.094,4.625 2.581,3.237 4.957,6.643 7.188,10.14 C -4.044,-7.255 -1.942,-3.67 0,0" /></g><g
           transform="translate(211.2407,481.1392)"
           id="g488"><path
             id="path490"
             style="fill:#231f20;fill-opacity:1;fill-rule:nonzero;stroke:none"
             d="m 0,0 c -3.372,-1.607 -6.593,-2.929 -9.935,-4.234 -3.324,-1.278 -6.676,-2.473 -10.063,-3.561 -6.772,-2.177 -13.672,-3.983 -20.688,-5.304 -7.012,-1.324 -14.152,-2.144 -21.348,-2.247 -7.189,-0.104 -14.438,0.526 -21.507,2.177 -7.061,1.642 -13.953,4.297 -20.16,8.222 -3.1,1.957 -6.023,4.231 -8.643,6.867 -1.307,1.322 -2.538,2.733 -3.656,4.261 -0.558,0.763 -1.084,1.56 -1.578,2.388 -0.234,0.426 -0.487,0.833 -0.7,1.28 l -0.329,0.658 -0.277,0.621 c -6.03,13.207 -7.556,28.219 -4.662,42.288 1.465,7.024 4.009,13.889 8.009,19.949 1.003,1.51 2.081,2.976 3.287,4.346 0.589,0.71 1.206,1.323 1.81,1.979 0.606,0.647 1.207,1.299 1.849,1.914 2.491,2.528 5.166,4.888 7.994,7.05 5.642,4.343 11.997,7.776 18.683,10.132 3.326,1.199 6.779,2.118 10.143,2.952 3.37,0.858 6.728,1.758 10.072,2.706 6.686,1.899 13.322,3.984 19.828,6.41 6.482,2.455 12.921,5.167 18.74,8.895 1.453,0.93 2.835,1.963 4.117,3.098 1.278,1.146 2.508,2.391 3.713,3.634 2.404,2.504 4.666,5.148 6.742,7.934 2.072,2.787 3.959,5.721 5.528,8.824 1.531,3.104 2.837,6.405 3.114,9.895 -0.192,-3.497 -1.423,-6.848 -2.888,-10.005 -1.502,-3.157 -3.329,-6.154 -5.347,-9.009 -2.022,-2.854 -4.237,-5.572 -6.599,-8.154 -1.19,-1.288 -2.381,-2.555 -3.669,-3.768 -1.299,-1.206 -2.693,-2.3 -4.152,-3.284 -5.846,-3.946 -12.278,-6.831 -18.754,-9.465 -6.499,-2.603 -13.125,-4.861 -19.801,-6.932 -3.34,-1.034 -6.694,-2.019 -10.059,-2.963 -3.379,-0.925 -6.65,-1.883 -9.857,-3.125 -6.408,-2.435 -12.386,-5.859 -17.694,-10.148 -2.659,-2.136 -5.172,-4.46 -7.514,-6.955 -0.603,-0.606 -1.168,-1.25 -1.738,-1.888 -0.562,-0.64 -1.167,-1.273 -1.674,-1.919 -1.069,-1.273 -2.028,-2.645 -2.92,-4.059 -3.563,-5.678 -5.812,-12.179 -7.03,-18.811 -2.415,-13.296 -0.613,-27.346 5.247,-39.398 1.311,-2.843 3.366,-5.324 5.703,-7.6 2.351,-2.254 5.011,-4.229 7.845,-5.923 5.674,-3.402 12.026,-5.69 18.569,-7.046 6.551,-1.366 13.309,-1.797 20.049,-1.537 6.744,0.258 13.49,1.192 20.142,2.615 6.656,1.42 13.228,3.308 19.677,5.553 3.224,1.123 6.414,2.347 9.567,3.646 3.122,1.302 6.318,2.718 9.206,4.181 z" /></g><g
           transform="translate(211.1011,494.418)"
           id="g492"><path
             id="path494"
             style="fill:#b53a30;fill-opacity:1;fill-rule:nonzero;stroke:none"
             d="m 0,0 -19.575,-11.808 1.923,-3.795 1.934,-3.815 c 0,0 10.123,3.411 14.703,7.61 C 3.565,-7.609 7.003,0 7.003,0 Z" /></g><g
           transform="translate(211.1011,494.418)"
           id="g496"><path
             id="path498"
             style="fill:none;stroke:#231f20;stroke-width:2;stroke-linecap:butt;stroke-linejoin:miter;stroke-miterlimit:10;stroke-dasharray:none;stroke-opacity:1"
             d="m 0,0 -19.575,-11.808 1.923,-3.795 1.934,-3.815 c 0,0 10.123,3.411 14.703,7.61 C 3.565,-7.609 7.003,0 7.003,0 Z" /></g><g
           transform="translate(215.3965,484.709)"
           id="g500"><path
             id="path502"
             style="fill:#b53a30;fill-opacity:1;fill-rule:nonzero;stroke:none"
             d="m 0,0 -26.578,-14.727 2.611,-4.732 2.625,-4.759 c 0,0 13.745,4.255 19.964,9.491 C 4.84,-9.491 9.508,0 9.508,0 Z" /></g><g
           transform="translate(215.3965,484.709)"
           id="g504"><path
             id="path506"
             style="fill:none;stroke:#231f20;stroke-width:2;stroke-linecap:butt;stroke-linejoin:miter;stroke-miterlimit:10;stroke-dasharray:none;stroke-opacity:1"
             d="m 0,0 -26.578,-14.727 2.611,-4.732 2.625,-4.759 c 0,0 13.745,4.255 19.964,9.491 C 4.84,-9.491 9.508,0 9.508,0 Z" /></g><g
           transform="translate(144.3472,498.6719)"
           id="g508"><path
             id="path510"
             style="fill:#ec5430;fill-opacity:1;fill-rule:nonzero;stroke:none"
             d="M 0,0 37.271,4.329 21.998,9.958 47.744,15.492 28.107,26.619 c 0,0 38.291,-4.582 47.782,-3.6 9.491,0.982 20.291,3.6 20.291,3.6 l 3.273,5.891 13.418,-2.291 4.254,7.527 13.419,-3.272 2.29,6.545 14.728,-2.945 2.945,6.872 c 0,0 15.709,-6.872 25.201,-7.2 9.491,-0.327 33.381,0.655 33.381,0.655 0,0 4.91,2.291 8.509,-6.218 3.601,-8.51 8.182,-15.709 11.782,-25.2 3.6,-9.491 0.328,-25.2 -3.6,-36 -3.927,-10.8 -12.778,-24.873 -20.625,-27.491 -7.848,-2.618 -42.211,11.454 -58.575,12.436 -16.364,0.982 -31.091,2.291 -40.254,8.837 -9.164,6.545 -18.982,12.109 -27.164,13.09 C 70.98,-21.163 38.907,-9.705 31.708,-5.943 24.507,-2.181 0,0 0,0" /></g><g
           transform="translate(144.5474,498.6743)"
           id="g512"><path
             id="path514"
             style="fill:#231f20;fill-opacity:1;fill-rule:nonzero;stroke:none"
             d="M 0,0 C 0.056,0.03 0.092,0.097 0.089,0.14 0.098,0.181 0.06,0.181 0.137,0.175 L 0.455,0.153 1.092,0.107 2.365,0.011 4.909,-0.202 c 1.696,-0.146 3.39,-0.311 5.083,-0.5 3.385,-0.377 6.766,-0.815 10.137,-1.373 3.371,-0.578 6.734,-1.206 10.064,-2.342 1.738,-0.672 3.129,-1.425 4.71,-2.054 1.552,-0.649 3.126,-1.27 4.709,-1.867 6.329,-2.408 12.759,-4.596 19.204,-6.687 3.229,-1.024 6.462,-2.045 9.711,-2.965 3.229,-0.921 6.525,-1.876 9.693,-2.42 l 2.548,-0.381 c 0.879,-0.176 1.765,-0.341 2.62,-0.582 1.727,-0.444 3.401,-1.017 5.029,-1.67 3.268,-1.292 6.364,-2.89 9.366,-4.613 3.004,-1.722 5.895,-3.606 8.726,-5.561 0.726,-0.517 1.37,-0.906 2.039,-1.341 0.663,-0.428 1.393,-0.767 2.084,-1.157 0.731,-0.332 1.453,-0.678 2.198,-0.986 0.761,-0.277 1.499,-0.601 2.278,-0.843 6.184,-2.06 12.853,-2.969 19.538,-3.591 3.351,-0.301 6.722,-0.522 10.104,-0.719 1.647,-0.087 3.496,-0.21 5.235,-0.441 1.744,-0.24 3.464,-0.541 5.161,-0.892 6.786,-1.403 13.352,-3.292 19.901,-5.152 6.545,-1.839 13.04,-3.862 19.548,-5.331 1.623,-0.359 3.25,-0.694 4.846,-0.909 1.568,-0.211 3.227,-0.35 4.438,-0.143 0.13,0.034 0.261,0.064 0.393,0.09 0.139,0.034 0.315,0.128 0.472,0.188 0.32,0.148 0.65,0.236 0.969,0.423 l 0.96,0.551 c 0.324,0.177 0.623,0.436 0.938,0.649 1.252,0.882 2.41,1.999 3.53,3.148 4.403,4.752 7.923,10.539 10.741,16.519 1.41,2.995 2.541,6.099 3.547,9.296 0.999,3.183 1.838,6.421 2.48,9.689 0.638,3.266 1.084,6.567 1.206,9.856 0.103,3.274 -0.052,6.59 -0.964,9.612 l -0.344,1.128 -0.438,1.173 c -0.286,0.786 -0.612,1.559 -0.918,2.338 -0.641,1.549 -1.312,3.09 -2.016,4.62 -1.408,3.062 -2.928,6.093 -4.416,9.164 -0.741,1.538 -1.477,3.083 -2.179,4.649 -0.705,1.536 -1.355,3.23 -2.021,4.641 -0.716,1.419 -1.593,2.775 -2.749,3.671 -0.569,0.463 -1.213,0.763 -1.873,0.92 -0.331,0.084 -0.67,0.098 -1.005,0.096 -0.314,-0.016 -0.712,-0.098 -0.899,-0.168 l -0.227,-0.085 -0.138,-0.004 c -4.981,-0.139 -9.958,-0.247 -14.939,-0.321 -4.981,-0.07 -9.959,-0.183 -14.952,-0.132 -1.249,0.013 -2.496,0.034 -3.755,0.092 -0.636,0.054 -1.277,0.085 -1.907,0.161 l -1.88,0.271 c -2.493,0.427 -4.924,1.061 -7.328,1.765 -4.801,1.442 -9.487,3.156 -14.11,5.093 l 0.825,0.326 -2.924,-6.881 -0.204,-0.481 -0.52,0.1 -14.751,2.825 0.88,0.502 -2.211,-6.574 -0.244,-0.724 -0.767,0.175 -13.467,3.074 1.175,0.509 -4.143,-7.591 -0.392,-0.718 -0.843,0.131 -13.451,2.098 1.443,0.692 -3.188,-5.937 -0.301,-0.561 -0.645,-0.159 C 90.716,23.787 85.105,22.587 79.367,21.759 77.916,21.57 76.531,21.342 75.005,21.251 73.467,21.118 72.032,21.152 70.563,21.142 67.66,21.188 64.781,21.337 61.916,21.531 56.181,21.909 50.473,22.404 44.777,23 39.078,23.586 33.396,24.225 27.704,24.914 l 1.049,3.194 19.56,-11.26 3.572,-2.056 -4.013,-0.829 C 43.573,13.075 39.277,12.177 34.971,11.325 L 22.061,8.735 22.23,11.126 37.425,5.287 41.4,3.759 37.189,3.31 C 31.14,2.664 25.113,2.212 18.931,1.726 12.759,1.25 6.404,0.697 0,0 m -0.4,-0.005 c 6.02,0.746 12.088,1.636 18.339,2.603 6.243,0.957 12.639,1.948 19.014,2.745 l -0.236,-1.977 -15.35,5.418 -4.04,1.426 4.209,0.966 12.835,2.944 c 4.275,0.992 8.561,1.939 12.844,2.896 l -0.441,-2.885 -19.712,10.994 -7.461,4.161 8.51,-0.967 c 5.66,-0.643 11.341,-1.239 17.016,-1.781 5.678,-0.525 11.355,-1.062 17.025,-1.451 2.835,-0.211 5.666,-0.333 8.476,-0.431 1.387,-0.013 2.813,-0.064 4.125,0.033 1.33,0.051 2.775,0.261 4.158,0.42 5.584,0.747 11.203,1.737 16.72,2.947 l -0.946,-0.72 3.357,5.844 0.499,0.868 0.945,-0.175 13.385,-2.484 -1.235,-0.587 4.365,7.464 0.414,0.707 0.762,-0.198 13.369,-3.472 -1.011,-0.549 2.371,6.517 0.232,0.637 0.648,-0.135 14.703,-3.066 -0.723,-0.38 2.966,6.863 0.248,0.575 0.578,-0.248 c 4.537,-1.948 9.208,-3.679 13.96,-5.031 2.376,-0.674 4.774,-1.276 7.193,-1.668 l 1.815,-0.245 c 0.605,-0.068 1.209,-0.09 1.813,-0.137 1.227,-0.046 2.468,-0.056 3.707,-0.058 4.96,0.009 9.933,0.109 14.902,0.301 4.968,0.193 9.938,0.419 14.901,0.676 l -0.365,-0.089 c 2.113,0.852 4.254,0.198 5.811,-0.958 1.569,-1.169 2.597,-2.743 3.447,-4.318 0.818,-1.649 1.424,-3.118 2.177,-4.653 0.731,-1.517 1.498,-3.022 2.275,-4.525 1.559,-3.006 3.172,-6.011 4.69,-9.087 0.759,-1.538 1.489,-3.096 2.191,-4.67 0.338,-0.793 0.693,-1.579 1.011,-2.382 l 0.488,-1.202 0.437,-1.299 c 1.112,-3.489 1.32,-7.068 1.278,-10.568 -0.068,-3.509 -0.475,-6.974 -1.078,-10.39 -0.607,-3.415 -1.416,-6.784 -2.392,-10.106 -0.961,-3.31 -2.149,-6.615 -3.597,-9.791 -1.438,-3.173 -3.077,-6.245 -4.925,-9.206 -1.853,-2.956 -3.907,-5.81 -6.323,-8.441 -1.236,-1.295 -2.521,-2.566 -4.036,-3.665 -0.385,-0.27 -0.733,-0.568 -1.149,-0.811 l -1.246,-0.729 c -0.414,-0.243 -0.905,-0.411 -1.356,-0.614 -0.239,-0.093 -0.443,-0.2 -0.713,-0.28 l -0.846,-0.211 c -2.15,-0.363 -3.924,-0.142 -5.717,0.055 -1.777,0.221 -3.486,0.558 -5.186,0.914 -6.771,1.477 -13.308,3.38 -19.846,5.239 -6.528,1.847 -13.048,3.707 -19.585,5.049 -1.633,0.337 -3.264,0.61 -4.886,0.855 -1.63,0.227 -3.175,0.345 -4.922,0.453 -3.403,0.228 -6.814,0.48 -10.233,0.816 -6.821,0.716 -13.742,1.634 -20.444,4.001 -0.84,0.279 -1.658,0.651 -2.486,0.973 -0.819,0.357 -1.625,0.759 -2.433,1.147 -0.783,0.455 -1.59,0.855 -2.348,1.36 -0.75,0.502 -1.544,1.018 -2.194,1.501 -2.727,1.959 -5.505,3.841 -8.369,5.554 -2.861,1.714 -5.796,3.295 -8.832,4.559 -1.514,0.641 -3.055,1.199 -4.613,1.629 -0.777,0.236 -1.562,0.393 -2.346,0.569 l -2.487,0.418 c -3.524,0.677 -6.753,1.691 -10.039,2.697 -3.265,1.032 -6.485,2.157 -9.705,3.285 -6.422,2.3 -12.803,4.689 -19.11,7.308 C 26.776,-3.295 13.44,-2.289 -0.4,-0.005" /></g><g
           transform="translate(207.7065,512.8569)"
           id="g516"><path
             id="path518"
             style="fill:#231f20;fill-opacity:1;fill-rule:nonzero;stroke:none"
             d="m 0,0 c 0,-9.498 7.7,-17.198 17.198,-17.198 9.498,0 17.198,7.7 17.198,17.198 0,9.498 -7.7,17.198 -17.198,17.198 C 7.7,17.198 0,9.498 0,0" /></g><g
           transform="translate(219.9097,514.9502)"
           id="g520"><path
             id="path522"
             style="fill:#eff0f0;fill-opacity:1;fill-rule:nonzero;stroke:none"
             d="m 0,0 c 0,-4.843 3.773,-8.769 8.429,-8.769 4.655,0 8.429,3.926 8.429,8.769 0,4.843 -3.774,8.769 -8.429,8.769 C 3.773,8.769 0,4.843 0,0" /></g><g
           transform="translate(219.4692,508.6299)"
           id="g524"><path
             id="path526"
             style="fill:#eff0f0;fill-opacity:1;fill-rule:nonzero;stroke:none"
             d="m 0,0 c 0,-3.109 -1.823,-5.629 -4.073,-5.629 -2.25,0 -4.073,2.52 -4.073,5.629 0,3.108 1.823,5.629 4.073,5.629 C -1.823,5.629 0,3.108 0,0" /></g><g
           transform="translate(220.8774,499.8076)"
           id="g528"><path
             id="path530"
             style="fill:#eff0f0;fill-opacity:1;fill-rule:nonzero;stroke:none"
             d="m 0,0 c 0,-1.764 1.43,-3.193 3.193,-3.193 1.764,0 3.193,1.429 3.193,3.193 0,1.764 -1.429,3.193 -3.193,3.193 C 1.43,3.193 0,1.764 0,0" /></g><g
           transform="translate(250.3701,524.9507)"
           id="g532"><path
             id="path534"
             style="fill:#231f20;fill-opacity:1;fill-rule:nonzero;stroke:none"
             d="m 0,0 c -2.18,-0.57 -4.38,-1.002 -6.62,-1.302 -2.242,-0.31 -4.512,-0.493 -6.863,-0.474 -1.183,0.005 -2.373,0.095 -3.61,0.277 -0.625,0.109 -1.239,0.184 -1.897,0.368 l -0.972,0.249 -0.645,0.184 c -1.893,0.526 -4.133,0.941 -6.32,1.445 -2.208,0.493 -4.452,1.134 -6.649,2.149 -2.183,0.978 -4.452,2.528 -6.215,4.33 -1.794,1.792 -3.201,3.85 -4.264,6.028 -0.521,1.098 -0.979,2.211 -1.286,3.39 -0.334,1.162 -0.568,2.346 -0.615,3.606 l 0.802,0.408 c 3.858,-2.679 7.215,-5.086 10.512,-6.871 1.66,-0.897 3.179,-1.554 4.967,-2.363 1.771,-0.784 3.61,-1.674 5.523,-2.586 1.927,-0.923 3.861,-1.762 6.067,-2.713 l 0.877,-0.406 0.562,-0.312 c 0.353,-0.225 0.802,-0.398 1.221,-0.596 0.868,-0.378 1.821,-0.685 2.788,-1.028 3.935,-1.241 8.253,-2.109 12.588,-2.885 z" /></g><g
           transform="translate(360.6406,514.4517)"
           id="g536"><path
             id="path538"
             style="fill:#fbcfca;fill-opacity:1;fill-rule:nonzero;stroke:none"
             d="m 0,0 c 0,0 -21.95,3.53 -30.437,4.146 -8.115,0.588 -46.108,1.194 -47.226,5.121 -0.773,2.719 31.89,1.905 45.445,0 C -10.805,6.257 0,0 0,0" /></g><g
           transform="translate(426.582,510.3618)"
           id="g540"><path
             id="path542"
             style="fill:#fbcfca;fill-opacity:1;fill-rule:nonzero;stroke:none"
             d="m 0,0 c 1.101,-0.57 0.5,-2.243 -0.713,-1.986 -5.059,1.07 -11.994,2.457 -15.569,2.822 -5.772,0.588 -32.793,1.194 -33.587,5.122 -0.551,2.719 22.679,1.905 32.32,0 C -9.677,4.402 -3.821,1.979 0,0" /></g><g
           transform="translate(495.1914,471.8423)"
           id="g544"><path
             id="path546"
             style="fill:#fbcfca;fill-opacity:1;fill-rule:nonzero;stroke:none"
             d="M 0,0 C 0.99,-1.07 -0.363,-2.295 -1.605,-1.456 -6.79,2.049 -13.927,6.779 -17.75,8.897 c -6.172,3.421 -35.951,17.475 -35.223,21.453 0.504,2.755 25.984,-9.594 35.915,-16.148 C -8.948,8.85 -3.435,3.714 0,0" /></g><g
           transform="translate(491.5449,394.7031)"
           id="g548"><path
             id="path550"
             style="fill:#fbcfca;fill-opacity:1;fill-rule:nonzero;stroke:none"
             d="M 0,0 C -0.63,-1.314 -2.268,-0.51 -1.946,0.956 -0.602,7.067 1.16,15.445 1.719,19.781 2.62,26.779 4.692,59.643 8.659,60.434 11.405,60.982 9.331,32.745 6.904,21.095 4.923,11.583 2.184,4.562 0,0" /></g><g
           transform="translate(439.249,342.5586)"
           id="g552"><path
             id="path554"
             style="fill:#fbcfca;fill-opacity:1;fill-rule:nonzero;stroke:none"
             d="m 0,0 c -1.229,-0.453 -1.986,1.172 -0.898,1.929 4.535,3.156 10.694,7.537 13.617,10.04 4.718,4.039 25.264,24.445 28.68,22.329 C 43.765,32.833 25.892,15.495 17.346,9.388 10.368,4.4 4.267,1.57 0,0" /></g><g
           transform="translate(349.2246,334.2705)"
           id="g556"><path
             id="path558"
             style="fill:#fbcfca;fill-opacity:1;fill-rule:nonzero;stroke:none"
             d="m 0,0 c -1.736,0.229 -1.184,2.049 0.655,2.159 7.67,0.463 18.167,1.176 23.509,1.887 8.624,1.147 48.572,8.627 50.524,5.016 C 76.038,6.561 41.638,0.418 27.049,-0.596 15.137,-1.423 6.024,-0.797 0,0" /></g><g
           transform="translate(361.498,473.4775)"
           id="g560"><path
             id="path562"
             style="fill:#7f4637;fill-opacity:1;fill-rule:nonzero;stroke:none"
             d="m 0,0 c 0,0 -3.719,-20.958 -12.229,-24.149 -8.512,-3.191 -25.104,2.131 -25.104,2.131 0,0 8.761,-0.069 19.996,5.281 C -6.102,-11.387 0,0 0,0" /></g><g
           transform="translate(422.6582,462.9209)"
           id="g564"><path
             id="path566"
             style="fill:#713e2e;fill-opacity:1;fill-rule:nonzero;stroke:none"
             d="m 0,0 c 0,0 -3.134,-15.128 -10.309,-17.431 -7.174,-2.303 -21.16,1.538 -21.16,1.538 0,0 10.158,-1.43 19.629,2.432 C -2.369,-9.6 0,0 0,0" /></g><g
           transform="translate(450.0156,432.8643)"
           id="g568"><path
             id="path570"
             style="fill:#623426;fill-opacity:1;fill-rule:nonzero;stroke:none"
             d="m 0,0 c 0.503,0.238 0.932,-0.437 0.493,-0.779 -3.845,-2.988 -9.658,-6.598 -14.1,-5.366 -7.261,2.015 -9.226,6.499 -9.226,6.499 0,0 4.035,-0.655 9.11,-2.372 C -8.473,-3.795 -3.365,-1.593 0,0" /></g><g
           transform="translate(442.2051,408.8599)"
           id="g572"><path
             id="path574"
             style="fill:#4e2719;fill-opacity:1;fill-rule:nonzero;stroke:none"
             d="m 0,0 c 0,0 -8.757,-3.212 -9.891,0 -0.987,2.795 1.247,10.633 1.247,10.633 0,0 -0.503,-4.55 2.675,-8.311 C -4.239,0.276 0.501,-0.131 0,0" /></g><g
           transform="translate(424.8838,366.0186)"
           id="g576"><path
             id="path578"
             style="fill:#482315;fill-opacity:1;fill-rule:nonzero;stroke:none"
             d="m 0,0 c 0,0 -5.111,8.569 -2.249,15.54 2.862,6.97 9.428,16.293 9.428,16.293 0,0 -1.065,-6.332 -2.563,-16.449 C 3.453,7.527 0,0 0,0" /></g><g
           transform="translate(331.9453,350.9639)"
           id="g580"><path
             id="path582"
             style="fill:#623426;fill-opacity:1;fill-rule:nonzero;stroke:none"
             d="m 0,0 c 0,0 1.239,3.717 6.764,8.84 5.525,5.124 18.656,8.845 18.656,8.845 0,0 -6.711,-3.081 -13.656,-10.589 C 4.819,-0.413 0,0 0,0" /></g><g
           transform="translate(257.8726,375.8906)"
           id="g584"><path
             id="path586"
             style="fill:#4c2618;fill-opacity:1;fill-rule:nonzero;stroke:none"
             d="m 0,0 c 0,0 21.889,-6.49 42.67,-15.989 11.845,-5.414 27.039,-8.942 27.039,-8.942 0,0 -13.668,1.374 -29.164,7.749 C 31.251,-13.357 0,0 0,0" /></g><g
           transform="translate(249.6484,349.9863)"
           id="g588"><path
             id="path590"
             style="fill:#713e2e;fill-opacity:1;fill-rule:nonzero;stroke:none"
             d="m 0,0 c 0,0 20.828,11.014 54.41,-0.785 12.287,-4.318 24.364,-4.892 24.364,-4.892 0,0 -10.487,-1.844 -26.366,3.502 C 20.044,8.723 0,0 0,0" /></g></g></g></g></svg>